<?xml version="1.0" encoding="utf-8"?>
<!-- Generator: Adobe Illustrator 22.0.1, SVG Export Plug-In . SVG Version: 6.00 Build 0)  -->
<svg version="1.1" id="Layer_1" xmlns="http://www.w3.org/2000/svg" xmlns:xlink="http://www.w3.org/1999/xlink" x="0px" y="0px"
	 viewBox="0 0 250 250" style="enable-background:new 0 0 250 250;" xml:space="preserve">
<style type="text/css">
	.st0{fill:#53C1DE;}
	.st1{fill:#E535AB;}
	.st2{fill:#41B000;}
	.st3{fill:url(#SVGID_1_);}
	.st4{fill:#FFFFFF;}
</style>
<g>
	<path class="st0" d="M199.1,88.6c-2.4-0.8-4.9-1.6-7.4-2.3c0.4-1.7,0.8-3.4,1.1-5c5.6-27.2,1.9-49.1-10.6-56.3
		c-12-6.9-31.6,0.3-51.4,17.5c-2,1.7-3.9,3.5-5.7,5.3c-1.2-1.2-2.5-2.4-3.8-3.5c-20.8-18.4-41.6-26.2-54.1-19
		c-12,6.9-15.5,27.5-10.5,53.3c0.5,2.6,1.1,5.1,1.7,7.6c-2.9,0.8-5.8,1.7-8.5,2.7C25.6,97.3,10,110.6,10,124.4
		c0,14.3,16.7,28.6,42.1,37.2c2.1,0.7,4.1,1.3,6.2,1.9c-0.7,2.7-1.3,5.5-1.8,8.2c-4.8,25.3-1.1,45.5,10.9,52.3
		c12.3,7.1,33.1-0.2,53.3-17.8c1.6-1.4,3.2-2.9,4.8-4.4c2,1.9,4.1,3.8,6.2,5.7c19.5,16.8,38.9,23.6,50.8,16.7
		c12.3-7.1,16.3-28.8,11.1-55c-0.4-2-0.9-4.1-1.4-6.1c1.5-0.4,2.9-0.9,4.3-1.3c26.4-8.7,43.5-22.9,43.5-37.3
		C240,110.6,223.9,97.2,199.1,88.6z M137.3,49.8c17-14.8,32.9-20.6,40.1-16.4l0,0c7.7,4.4,10.7,22.4,5.9,45.8
		c-0.3,1.5-0.7,3.1-1,4.6c-9.5-2.2-19.9-3.8-30.8-4.9c-6.3-9-12.9-17.2-19.4-24.3C133.7,53,135.5,51.4,137.3,49.8z M77.9,136.2
		c2.1,4,4.3,8,6.5,11.9c2.3,4,4.7,7.9,7.2,11.8c-7.5-0.8-14.6-2-21.2-3.4C72.5,149.9,75,143.1,77.9,136.2z M77.9,113.1
		c-2.9-6.8-5.3-13.5-7.3-19.9c6.6-1.5,13.6-2.7,20.9-3.6c-2.4,3.8-4.8,7.7-7.1,11.6C82.1,105.1,80,109.1,77.9,113.1z M83.1,124.6
		c3-6.3,6.3-12.5,9.8-18.5v0c3.5-6.1,7.2-12,11.2-17.8c6.8-0.5,13.9-0.8,20.9-0.8c7.1,0,14.1,0.3,21,0.8c3.9,5.8,7.6,11.7,11.1,17.7
		c3.5,6,6.8,12.2,9.9,18.5c-3.1,6.3-6.4,12.5-9.9,18.6h0c-3.5,6.1-7.2,12-11,17.8c-6.8,0.5-13.9,0.7-21.1,0.7
		c-7.2,0-14.1-0.2-20.8-0.7c-4-5.8-7.7-11.7-11.2-17.8C89.4,137.1,86.2,130.9,83.1,124.6z M165.6,148c2.3-4,4.5-8.1,6.7-12.2l0,0
		c3.1,7,5.7,13.8,7.7,20.2c-6.7,1.5-13.9,2.7-21.5,3.7C161,155.9,163.3,152,165.6,148z M172.2,113.1c-2.1-4-4.3-8-6.6-12
		c-2.2-3.9-4.6-7.7-7-11.5c7.3,0.9,14.4,2.2,21,3.7C177.6,99.6,175.1,106.3,172.2,113.1z M125.1,61.7c4.5,4.9,9.1,10.4,13.5,16.3
		c-9.1-0.4-18.1-0.4-27.2,0C115.9,72.2,120.5,66.7,125.1,61.7z M72.1,33.7c7.7-4.5,24.7,1.9,42.6,17.8c1.1,1,2.3,2.1,3.5,3.2
		C111.5,61.9,104.9,70,98.6,79c-10.8,1-21.2,2.6-30.7,4.8c-0.6-2.3-1.1-4.7-1.6-7.1v0C62,54.5,64.9,37.9,72.1,33.7z M60.9,154.1
		c-1.9-0.5-3.8-1.1-5.7-1.8c-11.2-3.8-20.5-8.8-26.8-14.3c-5.7-4.9-8.6-9.7-8.6-13.7c0-8.4,12.5-19.1,33.3-26.3
		c2.6-0.9,5.3-1.7,7.9-2.5c2.9,9.4,6.7,19.1,11.2,29C67.6,134.7,63.8,144.6,60.9,154.1z M114.2,198.9c-8.9,7.8-17.9,13.3-25.7,16.1
		h0c-7.1,2.5-12.7,2.6-16.1,0.6c-7.3-4.2-10.3-20.3-6.2-42c0.5-2.6,1-5.1,1.7-7.6c9.4,2.1,19.8,3.6,31,4.5c6.4,9,13,17.2,19.7,24.4
		C117.1,196.2,115.7,197.6,114.2,198.9z M125.4,187.8c-4.7-5-9.3-10.6-13.8-16.6c4.4,0.2,8.9,0.3,13.5,0.3c4.7,0,9.3-0.1,13.9-0.3
		C134.4,177.3,129.9,182.8,125.4,187.8z M185,201.5c-1.4,7.4-4.1,12.3-7.5,14.3c-7.2,4.2-22.8-1.3-39.5-15.6
		c-1.9-1.6-3.8-3.4-5.8-5.3c6.5-7.1,13-15.3,19.3-24.5c11.1-1,21.6-2.6,31.2-4.8c0.5,1.9,0.9,3.7,1.2,5.6
		C186.2,182.7,186.6,193.2,185,201.5z M193.4,152.4L193.4,152.4c-1.3,0.4-2.5,0.8-3.9,1.2c-2.9-9.2-6.8-19-11.6-29.1
		c4.6-9.9,8.4-19.6,11.2-28.7c2.4,0.7,4.6,1.4,6.8,2.2c21.3,7.3,34.3,18.2,34.3,26.5C230.2,133.3,216.2,144.8,193.4,152.4z"/>
	<path class="st1" d="M223.2,156c-1.8-1-3.7-1.8-5.7-2.3V96.3c2-0.5,3.9-1.3,5.7-2.3c10.3-6,13.8-19.1,7.9-29.4
		c-6-10.3-19.1-13.8-29.4-7.9c-1.8,1-3.5,2.3-4.9,3.9l-49.7-28.7h0c0.6-1.9,0.9-4,0.9-6.2c0-11.9-9.6-21.5-21.5-21.5
		s-21.5,9.6-21.5,21.5c0,2.1,0.3,4.1,0.9,6.1L56.1,60.5c-1.4-1.5-3.1-2.8-4.9-3.8c-10.3-5.9-23.5-2.4-29.4,7.9S19.4,88.1,29.7,94
		c1.8,1,3.7,1.8,5.7,2.3v57.4c-2,0.5-3.9,1.2-5.7,2.3c-10.3,6-13.8,19.1-7.9,29.4c5.9,10.3,19.1,13.8,29.4,7.9
		c1.8-1,3.4-2.3,4.8-3.8l49.7,28.7c-0.6,1.9-0.9,4-0.9,6.1c0,11.9,9.6,21.5,21.5,21.5s21.5-9.7,21.5-21.5c0-2.3-0.4-4.6-1.1-6.8
		l49.4-28.5c1.5,1.7,3.3,3.2,5.3,4.3c10.3,5.9,23.5,2.4,29.4-7.9C237,175.1,233.5,162,223.2,156z M46.5,154
		c-0.3-0.1-0.6-0.2-0.8-0.2V96.3c5.5-1.4,10.4-4.9,13.5-10.1c2.9-5.1,3.7-11.1,2-16.7L111,40.7c0.2,0.2,0.4,0.4,0.6,0.6l0,0
		L46.5,154z M142.4,209.8L142.4,209.8L142.4,209.8L142.4,209.8c-4.1-4.5-9.9-7-15.9-7c-5.9,0-11.5,2.4-15.5,6.6l-49.7-28.7
		c0.1-0.3,0.2-0.6,0.2-0.8h130c0.1,0.5,0.2,0.9,0.4,1.4L142.4,209.8z M193.7,163.9c-1,1.8-1.8,3.7-2.3,5.7h-130
		c-0.5-2-1.2-3.9-2.3-5.7c-1-1.8-2.3-3.4-3.8-4.8l65-112.7c2,0.6,4,0.8,6,0.8c2.1,0,4.1-0.3,6-0.8l65,112.6
		C196,160.5,194.7,162.1,193.7,163.9z M207.2,153.7c-0.3,0.1-0.6,0.1-0.8,0.2l-65-112.7c0.2-0.2,0.4-0.4,0.6-0.6v0l49.8,28.8
		c-1.6,5.6-0.9,11.6,2,16.7c3,5.3,8,8.8,13.5,10.1V153.7z"/>
	<g>
		<path class="st2" d="M124.9,103.9c-10.5,0-9.8,4.5-9.8,4.5l0,4.7h10v1.4h-14c0,0-6.7-0.8-6.7,9.8c0,10.6,5.9,10.2,5.9,10.2h3.5
			v-4.9c0,0-0.2-5.9,5.8-5.9h9.9c0,0,5.6,0.1,5.6-5.4v-9.1C135,109.4,135.8,103.9,124.9,103.9z M119.3,107c1,0,1.8,0.8,1.8,1.8
			c0,0,0,0,0,0c0,1-0.8,1.8-1.8,1.8c0,0,0,0,0,0c-1,0-1.8-0.8-1.8-1.8c0,0,0,0,0,0C117.5,107.8,118.3,107,119.3,107
			C119.3,107,119.3,107,119.3,107z"/>
		
			<linearGradient id="SVGID_1_" gradientUnits="userSpaceOnUse" x1="-557.9822" y1="509.134" x2="-557.9703" y2="509.1228" gradientTransform="matrix(1849.2671 0 0 -1853.3918 1031978.9375 943745.5)">
			<stop  offset="0" style="stop-color:#FFE052"/>
			<stop  offset="1" style="stop-color:#FFC331"/>
		</linearGradient>
		<path class="st3" d="M125.1,145c10.5,0,9.8-4.5,9.8-4.5l0-4.7h-10v-1.4h14c0,0,6.7,0.8,6.7-9.8c0-10.6-5.9-10.2-5.9-10.2h-3.5v4.9
			c0,0,0.2,5.9-5.8,5.9h-9.9c0,0-5.6-0.1-5.6,5.4v9.1C115,139.5,114.2,145,125.1,145L125.1,145z M130.7,141.8c-1,0-1.8-0.8-1.8-1.8
			c0,0,0,0,0,0c0-1,0.8-1.8,1.8-1.8c0,0,0,0,0,0c1,0,1.8,0.8,1.8,1.8c0,0,0,0,0,0C132.5,141,131.7,141.8,130.7,141.8
			C130.7,141.8,130.7,141.8,130.7,141.8L130.7,141.8z"/>
	</g>
</g>
<path class="st4" d="M154.5,115.3c-0.2-0.8-1.1-1.3-1.9-1.1c-0.8,0.2-1.3,1.1-1.1,1.9c0.7,2.3,1,4.8,1,7.2c0,14.9-12.1,27-27,27
	s-27-12.1-27-27c0-14.9,12.1-27,27-27c6.3,0,12.4,2.2,17.2,6.2c-0.2,0.4-0.3,0.9-0.3,1.5c0,2.1,1.7,3.8,3.8,3.8
	c2.1,0,3.8-1.7,3.8-3.8c0-2.1-1.7-3.8-3.8-3.8c-0.4,0-0.8,0.1-1.1,0.2c-5.4-4.6-12.4-7.2-19.5-7.2c-16.6,0-30.1,13.5-30.1,30.1
	c0,16.6,13.5,30.1,30.1,30.1s30.1-13.5,30.1-30.1C155.5,120.6,155.2,117.9,154.5,115.3z"/>
</svg>
