<?xml version="1.0" encoding="UTF-8"?>
<svg width="1792px" height="290px" viewBox="0 0 1792 290" version="1.1" xmlns="http://www.w3.org/2000/svg" xmlns:xlink="http://www.w3.org/1999/xlink">
    <!-- Generator: Sketch 49 (51002) - http://www.bohemiancoding.com/sketch -->
    <title>Group</title>
    <desc>Created with Sketch.</desc>
    <defs></defs>
    <g id="Page-1" stroke="none" stroke-width="1" fill="none" fill-rule="evenodd">
        <g id="Group" transform="translate(-1.000000, -3.000000)">
            <path d="M103.6,279.68 L123.76,259.52 L124.4,260.48 L104.56,280.32 L103.6,279.68 Z M95.6,279.68 L123.76,251.52 L124.4,252.16 L96.24,280.32 L95.6,279.68 Z M87.28,279.68 L123.76,243.2 L124.4,244.16 L88.24,280.32 L87.28,279.68 Z M79.28,279.68 L123.76,235.2 L124.4,235.84 L79.92,280.32 L79.28,279.68 Z M70.96,279.68 L123.76,226.88 L124.4,227.84 L71.92,280.32 L70.96,279.68 Z M62.96,279.68 L123.76,218.88 L124.4,219.84 L63.92,280.32 L62.96,279.68 Z M54.64,279.68 L123.76,210.56 L124.4,211.52 L55.6,280.32 L54.64,279.68 Z M46.64,279.68 L123.76,202.56 L124.4,203.52 L47.6,280.32 L46.64,279.68 Z M38.32,279.68 L77.68,240.32 L78.64,240.96 L39.28,280.32 L38.32,279.68 Z M82.8,235.2 L123.76,194.24 L124.4,195.2 L83.44,236.16 L82.8,235.2 Z M30.32,279.68 L69.68,240.32 L70.64,240.96 L31.28,280.32 L30.32,279.68 Z M82.8,227.2 L123.76,186.24 L124.4,187.2 L83.44,228.16 L82.8,227.2 Z M22,279.68 L61.36,240.32 L62.32,240.96 L22.96,280.32 L22,279.68 Z M82.8,218.88 L123.76,177.92 L124.4,178.88 L83.44,219.84 L82.8,218.88 Z M17.52,275.84 L53.36,240.32 L54.32,240.96 L18.48,276.8 L17.52,275.84 Z M82.8,210.88 L123.76,169.92 L124.4,170.88 L83.44,211.84 L82.8,210.88 Z M13.68,272 L46,239.36 L46.96,240.32 L14.32,272.64 L13.68,272 Z M82.8,202.56 L123.76,161.6 L124.4,162.56 L83.44,203.52 L82.8,202.56 Z M9.52,267.84 L42.16,235.2 L42.8,236.16 L10.48,268.8 L9.52,267.84 Z M82.8,194.56 L122.48,154.88 L123.44,155.84 L83.44,195.52 L82.8,194.56 Z M5.36,263.68 L42.16,227.2 L42.8,227.84 L6.32,264.64 L5.36,263.68 Z M82.8,186.56 L118.32,150.72 L119.28,151.68 L83.44,187.2 L82.8,186.56 Z M1.52,259.52 L42.16,218.88 L42.8,219.84 L2.16,260.48 L1.52,259.52 Z M81.52,179.2 L114.16,146.56 L115.12,147.52 L82.48,180.16 L81.52,179.2 Z M1.52,251.52 L42.16,210.88 L42.8,211.84 L2.16,252.48 L1.52,251.52 Z M77.36,175.68 L110.32,142.72 L110.96,143.36 L78.32,176.32 L77.36,175.68 Z M1.52,243.2 L35.12,209.6 L36.08,210.24 L2.16,244.16 L1.52,243.2 Z M69.04,175.68 L106.16,138.56 L107.12,139.52 L70,176.32 L69.04,175.68 Z M1.52,235.2 L27.12,209.6 L28.08,210.24 L2.16,236.16 L1.52,235.2 Z M61.04,175.68 L100.4,136.32 L101.36,136.96 L62,176.32 L61.04,175.68 Z M1.52,226.88 L18.8,209.6 L19.76,210.24 L2.16,227.84 L1.52,226.88 Z M52.72,175.68 L92.08,136.32 L93.04,136.96 L53.68,176.32 L52.72,175.68 Z M121.84,106.56 L123.76,104.64 L124.4,105.6 L122.8,107.2 L121.84,106.56 Z M1.52,218.88 L10.8,209.6 L11.76,210.24 L2.16,219.84 L1.52,218.88 Z M44.72,175.68 L84.08,136.32 L85.04,136.96 L45.68,176.32 L44.72,175.68 Z M113.84,106.56 L123.76,96.64 L124.4,97.6 L114.8,107.2 L113.84,106.56 Z M1.52,210.56 L2.48,209.6 L3.44,210.24 L2.16,211.52 L1.52,210.56 Z M36.4,175.68 L75.76,136.32 L76.72,136.96 L37.36,176.32 L36.4,175.68 Z M105.52,106.56 L123.76,88.32 L124.4,89.28 L106.48,107.2 L105.52,106.56 Z M28.4,175.68 L67.76,136.32 L68.72,136.96 L29.36,176.32 L28.4,175.68 Z M97.52,106.56 L123.76,80.32 L124.4,81.28 L98.48,107.2 L97.52,106.56 Z M20.72,175.04 L59.44,136.32 L60.4,136.96 L21.68,176 L20.72,175.04 Z M89.2,106.56 L123.76,72 L124.4,72.96 L90.16,107.2 L89.2,106.56 Z M16.56,170.88 L51.44,136.32 L52.4,136.96 L17.52,171.84 L16.56,170.88 Z M82.8,104.96 L123.76,64 L124.4,64.96 L83.44,105.92 L82.8,104.96 Z M12.72,167.04 L45.04,134.4 L46,135.36 L13.36,167.68 L12.72,167.04 Z M82.8,96.96 L123.44,56 L124.4,56.96 L83.44,97.6 L82.8,96.96 Z M8.56,162.88 L42.16,129.28 L42.8,130.24 L9.52,163.84 L8.56,162.88 Z M82.8,88.64 L119.28,51.84 L120.24,52.8 L83.44,89.6 L82.8,88.64 Z M4.4,158.72 L42.16,121.28 L42.8,121.92 L5.36,159.68 L4.4,158.72 Z M82.48,80.64 L115.44,48 L116.08,48.64 L83.44,81.6 L82.48,80.64 Z M1.52,153.6 L42.16,112.96 L42.8,113.92 L2.16,154.56 L1.52,153.6 Z M78.32,76.48 L111.28,43.84 L112.24,44.8 L79.28,77.44 L78.32,76.48 Z M1.52,145.6 L42.16,104.96 L42.8,105.92 L2.16,146.56 L1.52,145.6 Z M70.96,76.16 L107.12,39.68 L108.08,40.64 L71.92,76.8 L70.96,76.16 Z M1.52,137.28 L42.16,96.64 L42.8,97.6 L2.16,138.24 L1.52,137.28 Z M62.64,76.16 L102.32,36.48 L103.28,37.12 L63.6,76.8 L62.64,76.16 Z M1.52,129.28 L42.16,88.64 L42.8,89.6 L2.16,130.24 L1.52,129.28 Z M54.64,76.16 L94.32,36.48 L95.28,37.12 L55.6,76.8 L54.64,76.16 Z M1.52,120.96 L86,36.48 L86.96,37.12 L2.16,121.92 L1.52,120.96 Z M1.52,112.96 L78,36.48 L78.96,37.12 L2.16,113.92 L1.52,112.96 Z M1.52,104.64 L69.68,36.48 L70.64,37.12 L2.16,105.6 L1.52,104.64 Z M1.52,96.64 L61.68,36.48 L62.64,37.12 L2.16,97.6 L1.52,96.64 Z M1.52,88.64 L53.68,36.48 L54.32,37.12 L2.16,89.28 L1.52,88.64 Z M1.52,80.32 L45.36,36.48 L46.32,37.12 L2.16,81.28 L1.52,80.32 Z M1.52,72.32 L37.36,36.48 L38,37.12 L2.16,72.96 L1.52,72.32 Z M1.52,64 L29.04,36.48 L30,37.12 L2.16,64.96 L1.52,64 Z M290.16,279.68 L293.36,276.48 L294.32,277.12 L291.12,280.32 L290.16,279.68 Z M282.16,279.68 L291.76,269.76 L292.72,270.72 L283.12,280.32 L282.16,279.68 Z M273.84,279.68 L290.16,263.04 L291.12,264 L274.8,280.32 L273.84,279.68 Z M265.84,279.68 L288.88,256.64 L289.52,257.6 L266.8,280.32 L265.84,279.68 Z M257.52,279.68 L287.28,249.92 L288.24,250.88 L258.48,280.32 L257.52,279.68 Z M252.08,277.12 L285.68,243.52 L286.64,244.48 L253.04,277.76 L252.08,277.12 Z M250.8,270.4 L284.08,236.8 L285.04,237.76 L251.44,271.04 L250.8,270.4 Z M249.2,263.36 L282.48,230.4 L283.44,231.04 L250.16,264.32 L249.2,263.36 Z M247.92,256.64 L280.88,223.68 L281.84,224.64 L248.88,257.6 L247.92,256.64 Z M246.64,249.92 L279.28,216.96 L280.24,217.92 L247.28,250.88 L246.64,249.92 Z M245.04,243.2 L277.68,210.56 L278.64,211.52 L246,244.16 L245.04,243.2 Z M243.76,236.48 L276.4,203.84 L277.04,204.8 L244.72,237.44 L243.76,236.48 Z M242.16,229.76 L274.8,197.44 L275.76,198.08 L243.12,230.72 L242.16,229.76 Z M236.72,227.2 L273.2,190.72 L274.16,191.68 L237.68,227.84 L236.72,227.2 Z M176.24,279.68 L182,273.6 L182.96,274.56 L177.2,280.32 L176.24,279.68 Z M228.72,227.2 L271.6,184 L272.56,184.96 L229.68,227.84 L228.72,227.2 Z M167.92,279.68 L184.24,263.36 L185.2,264.32 L168.88,280.32 L167.92,279.68 Z M220.4,227.2 L270,177.6 L270.96,178.56 L221.36,227.84 L220.4,227.2 Z M159.92,279.68 L186.48,253.12 L187.12,254.08 L160.88,280.32 L159.92,279.68 Z M212.4,227.2 L268.4,170.88 L269.36,171.84 L213.36,227.84 L212.4,227.2 Z M151.6,279.68 L188.4,242.88 L189.36,243.84 L152.56,280.32 L151.6,279.68 Z M204.08,227.2 L266.8,164.48 L267.76,165.44 L205.04,227.84 L204.08,227.2 Z M143.6,279.68 L190.64,232.64 L191.6,233.6 L144.56,280.32 L143.6,279.68 Z M196.08,227.2 L265.2,157.76 L266.16,158.72 L197.04,227.84 L196.08,227.2 Z M140.4,274.56 L227.44,187.84 L228.08,188.48 L141.36,275.52 L140.4,274.56 Z M232.56,182.4 L263.92,151.36 L264.56,152 L233.52,183.36 L232.56,182.4 Z M142.96,264 L219.12,187.84 L220.08,188.48 L143.92,264.64 L142.96,264 Z M231.28,175.68 L262.32,144.64 L263.28,145.6 L231.92,176.64 L231.28,175.68 Z M145.52,253.12 L211.12,187.84 L212.08,188.48 L146.48,254.08 L145.52,253.12 Z M229.68,168.96 L260.72,137.92 L261.68,138.88 L230.64,169.92 L229.68,168.96 Z M148.08,242.56 L202.8,187.84 L203.76,188.48 L149.04,243.52 L148.08,242.56 Z M228.4,162.24 L259.12,131.52 L260.08,132.48 L229.36,163.2 L228.4,162.24 Z M150.64,231.68 L201.2,181.12 L202.16,182.08 L151.6,232.64 L150.64,231.68 Z M227.12,155.52 L257.52,124.8 L258.48,125.76 L227.76,156.48 L227.12,155.52 Z M153.2,221.12 L203.44,170.88 L204.08,171.84 L154.16,222.08 L153.2,221.12 Z M225.52,148.8 L255.92,118.4 L256.88,119.04 L226.48,149.44 L225.52,148.8 Z M155.76,210.56 L205.36,160.64 L206.32,161.6 L156.72,211.52 L155.76,210.56 Z M224.24,142.08 L254.32,111.68 L255.28,112.64 L225.2,142.72 L224.24,142.08 Z M158.32,199.68 L207.6,150.4 L208.56,151.36 L158.96,200.64 L158.32,199.68 Z M222.96,135.04 L252.72,104.96 L253.68,105.92 L223.6,136 L222.96,135.04 Z M160.88,189.12 L209.52,140.16 L210.48,141.12 L161.52,190.08 L160.88,189.12 Z M221.36,128.32 L251.44,98.56 L252.08,99.52 L222.32,129.28 L221.36,128.32 Z M163.12,178.56 L211.76,129.92 L212.72,130.88 L164.08,179.2 L163.12,178.56 Z M220.08,121.6 L249.84,91.84 L250.8,92.8 L221.04,122.56 L220.08,121.6 Z M165.68,167.68 L214,119.68 L214.64,120.64 L166.64,168.64 L165.68,167.68 Z M218.48,114.88 L248.24,85.44 L249.2,86.4 L219.44,115.84 L218.48,114.88 Z M168.24,157.12 L215.92,109.44 L216.88,110.4 L169.2,158.08 L168.24,157.12 Z M217.2,108.16 L246.64,78.72 L247.6,79.68 L218.16,109.12 L217.2,108.16 Z M170.8,146.56 L245.04,72.32 L246,72.96 L171.76,147.2 L170.8,146.56 Z M173.36,135.68 L243.44,65.6 L244.4,66.56 L174.32,136.64 L173.36,135.68 Z M175.92,125.12 L241.84,58.88 L242.8,59.84 L176.88,126.08 L175.92,125.12 Z M178.48,114.56 L240.24,52.48 L241.2,53.44 L179.44,115.2 L178.48,114.56 Z M181.04,103.68 L238.96,45.76 L239.6,46.72 L182,104.64 L181.04,103.68 Z M183.6,93.12 L237.36,39.36 L238.32,40.32 L184.24,94.08 L183.6,93.12 Z M186.16,82.24 L231.92,36.48 L232.88,37.12 L186.8,83.2 L186.16,82.24 Z M188.4,71.68 L223.92,36.48 L224.88,37.12 L189.36,72.64 L188.4,71.68 Z M190.96,61.12 L215.6,36.48 L216.56,37.12 L191.92,62.08 L190.96,61.12 Z M193.52,50.24 L207.6,36.48 L208.56,37.12 L194.48,51.2 L193.52,50.24 Z M196.08,39.68 L199.6,36.48 L200.24,37.12 L197.04,40.64 L196.08,39.68 Z M444.72,279.68 L449.52,274.88 L450.16,275.84 L445.68,280.32 L444.72,279.68 Z M436.4,279.68 L449.52,266.56 L450.16,267.52 L437.36,280.32 L436.4,279.68 Z M428.4,279.68 L449.52,258.56 L450.16,259.52 L429.36,280.32 L428.4,279.68 Z M420.08,279.68 L449.52,250.24 L450.16,251.2 L421.04,280.32 L420.08,279.68 Z M412.08,279.68 L449.52,242.24 L450.16,243.2 L413.04,280.32 L412.08,279.68 Z M405.04,278.4 L449.52,234.24 L450.16,234.88 L406,279.36 L405.04,278.4 Z M403.12,272.32 L449.52,225.92 L450.16,226.88 L403.76,273.28 L403.12,272.32 Z M400.88,266.24 L449.52,217.92 L450.16,218.56 L401.84,267.2 L400.88,266.24 Z M398.64,260.16 L449.52,209.6 L450.16,210.56 L399.6,261.12 L398.64,260.16 Z M396.72,254.4 L449.52,201.6 L450.16,202.56 L397.36,255.04 L396.72,254.4 Z M394.48,248.32 L449.52,193.28 L450.16,194.24 L395.44,249.28 L394.48,248.32 Z M392.24,242.24 L449.52,185.28 L450.16,186.24 L393.2,243.2 L392.24,242.24 Z M346.8,279.68 L352.88,273.6 L353.52,274.56 L347.76,280.32 L346.8,279.68 Z M390.32,236.16 L449.52,176.96 L450.16,177.92 L390.96,237.12 L390.32,236.16 Z M338.8,279.68 L352.88,265.6 L353.52,266.56 L339.76,280.32 L338.8,279.68 Z M388.08,230.08 L449.52,168.96 L450.16,169.92 L389.04,231.04 L388.08,230.08 Z M330.48,279.68 L352.88,257.28 L353.52,258.24 L331.44,280.32 L330.48,279.68 Z M385.84,224.32 L449.52,160.64 L450.16,161.6 L386.8,224.96 L385.84,224.32 Z M322.48,279.68 L352.88,249.28 L353.52,250.24 L323.44,280.32 L322.48,279.68 Z M383.92,218.24 L449.52,152.64 L450.16,153.6 L384.88,219.2 L383.92,218.24 Z M314.16,279.68 L352.88,240.96 L353.52,241.92 L315.12,280.32 L314.16,279.68 Z M381.68,212.16 L408.56,185.28 L409.52,186.24 L382.64,213.12 L381.68,212.16 Z M408.88,184.96 L449.52,144.32 L450.16,145.28 L409.52,185.92 L408.88,184.96 Z M312.24,273.6 L352.88,232.96 L353.52,233.92 L312.88,274.56 L312.24,273.6 Z M379.44,206.08 L406.64,179.2 L407.28,180.16 L380.4,207.04 L379.44,206.08 Z M408.88,176.96 L449.52,136.32 L450.16,137.28 L409.52,177.92 L408.88,176.96 Z M312.24,265.6 L352.88,224.96 L353.52,225.6 L312.88,266.24 L312.24,265.6 Z M377.52,200 L404.4,173.12 L405.36,174.08 L378.48,200.96 L377.52,200 Z M408.88,168.96 L449.52,128.32 L450.16,128.96 L409.52,169.6 L408.88,168.96 Z M312.24,257.28 L352.88,216.64 L353.52,217.6 L312.88,258.24 L312.24,257.28 Z M375.28,194.24 L402.16,167.04 L403.12,168 L376.24,194.88 L375.28,194.24 Z M408.88,160.64 L449.52,120 L450.16,120.96 L409.52,161.6 L408.88,160.64 Z M312.24,249.28 L352.88,208.64 L353.52,209.6 L312.88,250.24 L312.24,249.28 Z M373.04,188.16 L400.24,161.28 L401.2,161.92 L374,189.12 L373.04,188.16 Z M408.88,152.64 L449.52,112 L450.16,112.96 L409.52,153.6 L408.88,152.64 Z M312.24,240.96 L352.88,200.32 L353.52,201.28 L312.88,241.92 L312.24,240.96 Z M371.12,182.08 L398,155.2 L398.96,156.16 L372.08,183.04 L371.12,182.08 Z M408.88,144.32 L449.52,103.68 L450.16,104.64 L409.52,145.28 L408.88,144.32 Z M312.24,232.96 L352.88,192.32 L353.52,193.28 L312.88,233.92 L312.24,232.96 Z M368.88,176 L395.76,149.12 L396.72,150.08 L369.84,176.96 L368.88,176 Z M408.88,136.32 L449.52,95.68 L450.16,96.64 L409.52,137.28 L408.88,136.32 Z M312.24,224.64 L352.88,184 L353.52,184.96 L312.88,225.6 L312.24,224.64 Z M366.64,169.92 L393.84,143.04 L394.8,144 L367.6,170.88 L366.64,169.92 Z M408.88,128 L449.52,87.36 L450.16,88.32 L409.52,128.96 L408.88,128 Z M312.24,216.64 L352.88,176 L353.52,176.96 L312.88,217.6 L312.24,216.64 Z M364.72,164.16 L391.6,136.96 L392.56,137.92 L365.68,164.8 L364.72,164.16 Z M408.88,120 L449.52,79.36 L450.16,80.32 L409.52,120.96 L408.88,120 Z M312.24,208.32 L352.88,167.68 L353.52,168.64 L312.88,209.28 L312.24,208.32 Z M362.48,158.08 L389.36,131.2 L390.32,131.84 L363.44,159.04 L362.48,158.08 Z M408.88,111.68 L449.52,71.04 L450.16,72 L409.52,112.64 L408.88,111.68 Z M312.24,200.32 L352.88,159.68 L353.52,160.64 L312.88,201.28 L312.24,200.32 Z M360.24,152 L387.44,125.12 L388.4,126.08 L361.2,152.96 L360.24,152 Z M408.88,103.68 L449.52,63.04 L450.16,64 L409.52,104.64 L408.88,103.68 Z M312.24,192 L352.88,151.36 L353.52,152.32 L312.88,192.96 L312.24,192 Z M358.32,145.92 L385.2,119.04 L386.16,120 L359.28,146.88 L358.32,145.92 Z M408.88,95.36 L449.52,54.72 L450.16,55.68 L409.52,96.32 L408.88,95.36 Z M312.24,184 L352.88,143.36 L353.52,144.32 L312.88,184.96 L312.24,184 Z M356.08,139.84 L382.96,112.96 L383.92,113.92 L357.04,140.8 L356.08,139.84 Z M408.88,87.36 L449.52,46.72 L450.16,47.68 L409.52,88.32 L408.88,87.36 Z M312.24,176 L352.88,135.36 L353.52,136 L312.88,176.64 L312.24,176 Z M354.16,134.08 L381.04,106.88 L382,107.84 L354.8,134.72 L354.16,134.08 Z M408.88,79.36 L449.52,38.72 L450.16,39.36 L409.52,80 L408.88,79.36 Z M312.24,167.68 L378.8,101.12 L379.76,101.76 L312.88,168.64 L312.24,167.68 Z M408.88,71.04 L443.44,36.48 L444.4,37.12 L409.52,72 L408.88,71.04 Z M312.24,159.68 L376.56,95.04 L377.52,96 L312.88,160.32 L312.24,159.68 Z M408.88,63.04 L435.44,36.48 L436.08,37.12 L409.52,63.68 L408.88,63.04 Z M312.24,151.36 L374.64,88.96 L375.6,89.92 L312.88,152.32 L312.24,151.36 Z M408.88,54.72 L427.12,36.48 L428.08,37.12 L409.52,55.68 L408.88,54.72 Z M312.24,143.36 L372.4,82.88 L373.36,83.84 L312.88,144.32 L312.24,143.36 Z M408.88,46.72 L419.12,36.48 L420.08,37.12 L409.52,47.68 L408.88,46.72 Z M312.24,135.04 L370.16,76.8 L371.12,77.76 L312.88,136 L312.24,135.04 Z M408.88,38.4 L410.8,36.48 L411.76,37.12 L409.52,39.36 L408.88,38.4 Z M312.24,127.04 L368.24,71.04 L369.2,71.68 L312.88,128 L312.24,127.04 Z M312.24,118.72 L366,64.96 L366.96,65.92 L312.88,119.68 L312.24,118.72 Z M312.24,110.72 L364.08,58.88 L364.72,59.84 L312.88,111.68 L312.24,110.72 Z M312.24,102.4 L361.84,52.8 L362.8,53.76 L312.88,103.36 L312.24,102.4 Z M312.24,94.4 L359.6,46.72 L360.56,47.68 L312.88,95.36 L312.24,94.4 Z M312.24,86.4 L357.68,40.96 L358.32,41.6 L312.88,87.04 L312.24,86.4 Z M312.24,78.08 L353.84,36.48 L354.8,37.12 L312.88,79.04 L312.24,78.08 Z M312.24,70.08 L345.84,36.48 L346.48,37.12 L312.88,70.72 L312.24,70.08 Z M312.24,61.76 L337.52,36.48 L338.48,37.12 L312.88,62.72 L312.24,61.76 Z M312.24,53.76 L329.52,36.48 L330.48,37.12 L312.88,54.72 L312.24,53.76 Z M312.24,45.44 L321.2,36.48 L322.16,37.12 L312.88,46.4 L312.24,45.44 Z M312.24,37.44 L313.2,36.48 L314.16,37.12 L312.88,38.4 L312.24,37.44 Z M512.24,279.68 L518.32,273.6 L518.96,274.56 L513.2,280.32 L512.24,279.68 Z M504.24,279.68 L518.32,265.6 L518.96,266.56 L505.2,280.32 L504.24,279.68 Z M495.92,279.68 L518.32,257.28 L518.96,258.24 L496.88,280.32 L495.92,279.68 Z M487.92,279.68 L518.32,249.28 L518.96,250.24 L488.88,280.32 L487.92,279.68 Z M479.6,279.68 L518.32,240.96 L518.96,241.92 L480.56,280.32 L479.6,279.68 Z M477.68,273.6 L518.32,232.96 L518.96,233.92 L478.32,274.56 L477.68,273.6 Z M573.68,177.6 L574.32,176.96 L574.96,177.92 L574.64,178.24 L573.68,177.6 Z M477.68,265.6 L518.32,224.96 L518.96,225.6 L478.32,266.24 L477.68,265.6 Z M565.68,177.6 L574.32,168.96 L574.96,169.6 L566.32,178.24 L565.68,177.6 Z M477.68,257.28 L518.32,216.64 L518.96,217.6 L478.32,258.24 L477.68,257.28 Z M557.36,177.6 L574.32,160.64 L574.96,161.6 L558.32,178.24 L557.36,177.6 Z M477.68,249.28 L518.32,208.64 L518.96,209.6 L478.32,250.24 L477.68,249.28 Z M549.36,177.6 L574.32,152.64 L574.96,153.6 L550.32,178.24 L549.36,177.6 Z M477.68,240.96 L518.32,200.32 L518.96,201.28 L478.32,241.92 L477.68,240.96 Z M541.04,177.6 L574.32,144.32 L574.96,145.28 L542,178.24 L541.04,177.6 Z M477.68,232.96 L518.32,192.32 L518.96,193.28 L478.32,233.92 L477.68,232.96 Z M533.04,177.6 L572.4,138.24 L573.36,138.88 L534,178.24 L533.04,177.6 Z M477.68,224.64 L518.32,184 L518.96,184.96 L478.32,225.6 L477.68,224.64 Z M524.72,177.6 L564.08,138.24 L565.04,138.88 L525.68,178.24 L524.72,177.6 Z M477.68,216.64 L556.08,138.24 L557.04,138.88 L478.32,217.6 L477.68,216.64 Z M477.68,208.32 L547.76,138.24 L548.72,138.88 L478.32,209.28 L477.68,208.32 Z M477.68,200.32 L539.76,138.24 L540.72,138.88 L478.32,201.28 L477.68,200.32 Z M477.68,192 L531.44,138.24 L532.4,138.88 L478.32,192.96 L477.68,192 Z M477.68,184 L523.44,138.24 L524.4,138.88 L478.32,184.96 L477.68,184 Z M585.84,75.84 L594.16,67.52 L594.8,68.48 L586.8,76.48 L585.84,75.84 Z M477.68,176 L518.32,135.36 L518.96,136 L478.32,176.64 L477.68,176 Z M577.84,75.84 L594.16,59.52 L594.8,60.16 L578.48,76.48 L577.84,75.84 Z M477.68,167.68 L518.32,127.04 L518.96,128 L478.32,168.64 L477.68,167.68 Z M569.52,75.84 L594.16,51.2 L594.8,52.16 L570.48,76.48 L569.52,75.84 Z M477.68,159.68 L518.32,119.04 L518.96,119.68 L478.32,160.32 L477.68,159.68 Z M561.52,75.84 L594.16,43.2 L594.8,43.84 L562.16,76.48 L561.52,75.84 Z M477.68,151.36 L518.32,110.72 L518.96,111.68 L478.32,152.32 L477.68,151.36 Z M553.2,75.84 L592.56,36.48 L593.52,37.12 L554.16,76.48 L553.2,75.84 Z M477.68,143.36 L518.32,102.72 L518.96,103.68 L478.32,144.32 L477.68,143.36 Z M545.2,75.84 L584.56,36.48 L585.52,37.12 L546.16,76.48 L545.2,75.84 Z M477.68,135.04 L518.32,94.4 L518.96,95.36 L478.32,136 L477.68,135.04 Z M536.88,75.84 L576.24,36.48 L577.2,37.12 L537.84,76.48 L536.88,75.84 Z M477.68,127.04 L518.32,86.4 L518.96,87.36 L478.32,128 L477.68,127.04 Z M528.88,75.84 L568.24,36.48 L569.2,37.12 L529.84,76.48 L528.88,75.84 Z M477.68,118.72 L518.32,78.08 L518.96,79.04 L478.32,119.68 L477.68,118.72 Z M520.56,75.84 L559.92,36.48 L560.88,37.12 L521.52,76.48 L520.56,75.84 Z M477.68,110.72 L551.92,36.48 L552.88,37.12 L478.32,111.68 L477.68,110.72 Z M477.68,102.4 L543.6,36.48 L544.56,37.12 L478.32,103.36 L477.68,102.4 Z M477.68,94.4 L535.6,36.48 L536.56,37.12 L478.32,95.36 L477.68,94.4 Z M477.68,86.4 L527.6,36.48 L528.24,37.12 L478.32,87.04 L477.68,86.4 Z M477.68,78.08 L519.28,36.48 L520.24,37.12 L478.32,79.04 L477.68,78.08 Z M477.68,70.08 L511.28,36.48 L511.92,37.12 L478.32,70.72 L477.68,70.08 Z M477.68,61.76 L502.96,36.48 L503.92,37.12 L478.32,62.72 L477.68,61.76 Z M477.68,53.76 L494.96,36.48 L495.92,37.12 L478.32,54.72 L477.68,53.76 Z M477.68,45.44 L486.64,36.48 L487.6,37.12 L478.32,46.4 L477.68,45.44 Z M477.68,37.44 L478.64,36.48 L479.6,37.12 L478.32,38.4 L477.68,37.44 Z M715.12,279.68 L736.88,257.92 L737.52,258.88 L716.08,280.32 L715.12,279.68 Z M707.12,279.68 L736.88,249.92 L737.52,250.56 L707.76,280.32 L707.12,279.68 Z M698.8,279.68 L736.88,241.6 L737.52,242.56 L699.76,280.32 L698.8,279.68 Z M690.8,279.68 L736.88,233.6 L737.52,234.24 L691.44,280.32 L690.8,279.68 Z M682.48,279.68 L736.88,225.28 L737.52,226.24 L683.44,280.32 L682.48,279.68 Z M674.48,279.68 L736.88,217.28 L737.52,218.24 L675.44,280.32 L674.48,279.68 Z M666.16,279.68 L736.88,208.96 L737.52,209.92 L667.12,280.32 L666.16,279.68 Z M658.16,279.68 L736.88,200.96 L737.52,201.92 L659.12,280.32 L658.16,279.68 Z M649.84,279.68 L689.2,240.32 L690.16,240.96 L650.8,280.32 L649.84,279.68 Z M695.92,233.6 L736.88,192.64 L737.52,193.6 L696.56,234.56 L695.92,233.6 Z M641.84,279.68 L681.2,240.32 L682.16,240.96 L642.8,280.32 L641.84,279.68 Z M695.92,225.6 L736.88,184.64 L737.52,185.6 L696.56,226.56 L695.92,225.6 Z M634.16,278.72 L672.88,240.32 L673.84,240.96 L635.12,279.68 L634.16,278.72 Z M695.92,217.28 L736.88,176.32 L737.52,177.28 L696.56,218.24 L695.92,217.28 Z M630.32,274.88 L664.88,240.32 L665.84,240.96 L631.28,275.84 L630.32,274.88 Z M695.92,209.28 L736.88,168.32 L737.52,169.28 L696.56,210.24 L695.92,209.28 Z M626.16,270.72 L658.48,238.4 L659.44,239.36 L627.12,271.68 L626.16,270.72 Z M695.92,200.96 L736.88,160 L737.52,160.96 L696.56,201.92 L695.92,200.96 Z M622,266.56 L655.92,232.96 L656.56,233.92 L622.96,267.52 L622,266.56 Z M695.92,192.96 L736.88,152 L737.52,152.96 L696.56,193.92 L695.92,192.96 Z M618.16,262.72 L655.92,224.96 L656.56,225.6 L618.8,263.36 L618.16,262.72 Z M695.92,184.96 L736.88,144 L737.52,144.64 L696.56,185.6 L695.92,184.96 Z M615.28,257.28 L655.92,216.64 L656.56,217.6 L615.92,258.24 L615.28,257.28 Z M695.92,176.64 L736.88,135.68 L737.52,136.64 L696.56,177.6 L695.92,176.64 Z M615.28,249.28 L655.92,208.64 L656.56,209.6 L615.92,250.24 L615.28,249.28 Z M695.92,168.64 L736.88,127.68 L737.52,128.64 L696.56,169.6 L695.92,168.64 Z M615.28,240.96 L655.92,200.32 L656.56,201.28 L615.92,241.92 L615.28,240.96 Z M695.92,160.32 L736.88,119.36 L737.52,120.32 L696.56,161.28 L695.92,160.32 Z M615.28,232.96 L655.92,192.32 L656.56,193.28 L615.92,233.92 L615.28,232.96 Z M695.92,152.32 L736.88,111.36 L737.52,112.32 L696.56,153.28 L695.92,152.32 Z M615.28,224.64 L655.92,184 L656.56,184.96 L615.92,225.6 L615.28,224.64 Z M695.92,144 L736.88,103.04 L737.52,104 L696.56,144.96 L695.92,144 Z M615.28,216.64 L655.92,176 L656.56,176.96 L615.92,217.6 L615.28,216.64 Z M695.92,136 L736.88,95.04 L737.52,96 L696.56,136.96 L695.92,136 Z M615.28,208.32 L655.92,167.68 L656.56,168.64 L615.92,209.28 L615.28,208.32 Z M695.92,127.68 L736.88,86.72 L737.52,87.68 L696.56,128.64 L695.92,127.68 Z M615.28,200.32 L655.92,159.68 L656.56,160.64 L615.92,201.28 L615.28,200.32 Z M695.92,119.68 L736.88,78.72 L737.52,79.68 L696.56,120.64 L695.92,119.68 Z M615.28,192 L655.92,151.36 L656.56,152.32 L615.92,192.96 L615.28,192 Z M695.92,111.36 L736.88,70.4 L737.52,71.36 L696.56,112.32 L695.92,111.36 Z M615.28,184 L655.92,143.36 L656.56,144.32 L615.92,184.96 L615.28,184 Z M695.92,103.36 L736.88,62.4 L737.52,63.36 L696.56,104.32 L695.92,103.36 Z M615.28,176 L655.92,135.36 L656.56,136 L615.92,176.64 L615.28,176 Z M695.92,95.36 L735.92,55.36 L736.56,56 L696.56,96 L695.92,95.36 Z M615.28,167.68 L655.92,127.04 L656.56,128 L615.92,168.64 L615.28,167.68 Z M695.92,87.04 L731.76,51.2 L732.72,52.16 L696.56,88 L695.92,87.04 Z M615.28,159.68 L655.92,119.04 L656.56,119.68 L615.92,160.32 L615.28,159.68 Z M694.96,79.68 L727.6,47.04 L728.56,48 L695.92,80.64 L694.96,79.68 Z M615.28,151.36 L655.92,110.72 L656.56,111.68 L615.92,152.32 L615.28,151.36 Z M690.48,76.16 L723.44,42.88 L724.4,43.84 L691.44,76.8 L690.48,76.16 Z M615.28,143.36 L655.92,102.72 L656.56,103.68 L615.92,144.32 L615.28,143.36 Z M682.48,76.16 L719.6,39.04 L720.24,39.68 L683.44,76.8 L682.48,76.16 Z M615.28,135.04 L655.92,94.4 L656.56,95.36 L615.92,136 L615.28,135.04 Z M674.16,76.16 L713.84,36.48 L714.8,37.12 L675.12,76.8 L674.16,76.16 Z M615.28,127.04 L655.92,86.4 L656.56,87.36 L615.92,128 L615.28,127.04 Z M666.16,76.16 L705.84,36.48 L706.8,37.12 L667.12,76.8 L666.16,76.16 Z M615.28,118.72 L697.52,36.48 L698.48,37.12 L615.92,119.68 L615.28,118.72 Z M615.28,110.72 L689.52,36.48 L690.48,37.12 L615.92,111.68 L615.28,110.72 Z M615.28,102.4 L681.2,36.48 L682.16,37.12 L615.92,103.36 L615.28,102.4 Z M615.28,94.4 L673.2,36.48 L674.16,37.12 L615.92,95.36 L615.28,94.4 Z M615.28,86.4 L665.2,36.48 L665.84,37.12 L615.92,87.04 L615.28,86.4 Z M615.28,78.08 L656.88,36.48 L657.84,37.12 L615.92,79.04 L615.28,78.08 Z M615.28,70.08 L648.88,36.48 L649.52,37.12 L615.92,70.72 L615.28,70.08 Z M615.28,61.76 L640.56,36.48 L641.52,37.12 L615.92,62.72 L615.28,61.76 Z M889.2,279.68 L889.52,279.36 L890.48,280 L890.16,280.32 L889.2,279.68 Z M881.2,279.68 L888.24,272.64 L889.2,273.28 L882.16,280.32 L881.2,279.68 Z M872.88,279.68 L886.96,265.6 L887.6,266.56 L873.84,280.32 L872.88,279.68 Z M864.88,279.68 L885.36,258.88 L886.32,259.84 L865.84,280.32 L864.88,279.68 Z M856.88,279.68 L884.08,252.16 L885.04,253.12 L857.52,280.32 L856.88,279.68 Z M849.52,278.72 L882.48,245.44 L883.44,246.4 L850.48,279.36 L849.52,278.72 Z M848.24,272 L881.2,238.72 L882.16,239.68 L848.88,272.64 L848.24,272 Z M846.64,265.28 L879.92,232 L880.56,232.96 L847.6,265.92 L846.64,265.28 Z M845.36,258.56 L878.32,225.28 L879.28,226.24 L846.32,259.2 L845.36,258.56 Z M843.76,251.52 L877.04,218.56 L878,219.52 L844.72,252.48 L843.76,251.52 Z M842.48,244.8 L875.44,211.84 L876.4,212.8 L843.44,245.76 L842.48,244.8 Z M799.6,279.68 L805.68,273.6 L806.32,274.56 L800.56,280.32 L799.6,279.68 Z M841.2,238.08 L874.16,205.12 L875.12,206.08 L841.84,239.04 L841.2,238.08 Z M791.6,279.68 L805.68,265.6 L806.32,266.56 L792.56,280.32 L791.6,279.68 Z M839.6,231.36 L872.56,198.4 L873.52,199.36 L840.56,232.32 L839.6,231.36 Z M783.28,279.68 L805.68,257.28 L806.32,258.24 L784.24,280.32 L783.28,279.68 Z M838.32,224.64 L871.28,191.68 L872.24,192.64 L839.28,225.6 L838.32,224.64 Z M775.28,279.68 L805.68,249.28 L806.32,250.24 L776.24,280.32 L775.28,279.68 Z M836.72,217.92 L870,184.96 L870.64,185.92 L837.68,218.88 L836.72,217.92 Z M766.96,279.68 L805.68,240.96 L806.32,241.92 L767.92,280.32 L766.96,279.68 Z M835.44,211.2 L889.84,156.8 L890.48,157.76 L836.4,212.16 L835.44,211.2 Z M765.04,273.6 L805.68,232.96 L806.32,233.92 L765.68,274.56 L765.04,273.6 Z M833.84,204.48 L889.84,148.8 L890.48,149.76 L834.8,205.44 L833.84,204.48 Z M765.04,265.6 L805.68,224.96 L806.32,225.6 L765.68,266.24 L765.04,265.6 Z M832.56,197.76 L889.84,140.8 L890.48,141.44 L833.52,198.72 L832.56,197.76 Z M765.04,257.28 L805.68,216.64 L806.32,217.6 L765.68,258.24 L765.04,257.28 Z M831.28,191.04 L889.84,132.48 L890.48,133.44 L831.92,192 L831.28,191.04 Z M765.04,249.28 L805.68,208.64 L806.32,209.6 L765.68,250.24 L765.04,249.28 Z M829.36,184.96 L889.84,124.48 L890.48,125.44 L830.32,185.6 L829.36,184.96 Z M765.04,240.96 L805.68,200.32 L806.32,201.28 L765.68,241.92 L765.04,240.96 Z M821.04,184.96 L889.84,116.16 L890.48,117.12 L822,185.6 L821.04,184.96 Z M765.04,232.96 L805.68,192.32 L806.32,193.28 L765.68,233.92 L765.04,232.96 Z M813.04,184.96 L889.84,108.16 L890.48,109.12 L814,185.6 L813.04,184.96 Z M765.04,224.64 L844.08,145.6 L845.04,146.24 L765.68,225.6 L765.04,224.64 Z M849.2,140.48 L889.84,99.84 L890.48,100.8 L849.84,141.44 L849.2,140.48 Z M765.04,216.64 L836.08,145.6 L837.04,146.24 L765.68,217.6 L765.04,216.64 Z M849.2,132.48 L889.84,91.84 L890.48,92.8 L849.84,133.44 L849.2,132.48 Z M765.04,208.32 L827.76,145.6 L828.72,146.24 L765.68,209.28 L765.04,208.32 Z M849.2,124.16 L889.84,83.52 L890.48,84.48 L849.84,125.12 L849.2,124.16 Z M765.04,200.32 L819.76,145.6 L820.72,146.24 L765.68,201.28 L765.04,200.32 Z M849.2,116.16 L889.84,75.52 L890.48,76.48 L849.84,117.12 L849.2,116.16 Z M765.04,192 L811.44,145.6 L812.4,146.24 L765.68,192.96 L765.04,192 Z M849.2,107.84 L889.84,67.2 L890.48,68.16 L849.84,108.8 L849.2,107.84 Z M765.04,184 L805.68,143.36 L806.32,144.32 L765.68,184.96 L765.04,184 Z M849.2,99.84 L889.84,59.2 L890.48,60.16 L849.84,100.8 L849.2,99.84 Z M765.04,176 L805.68,135.36 L806.32,136 L765.68,176.64 L765.04,176 Z M849.2,91.84 L887.28,53.76 L887.92,54.4 L849.84,92.48 L849.2,91.84 Z M765.04,167.68 L805.68,127.04 L806.32,128 L765.68,168.64 L765.04,167.68 Z M849.2,83.52 L883.12,49.6 L884.08,50.56 L849.84,84.48 L849.2,83.52 Z M765.04,159.68 L805.68,119.04 L806.32,119.68 L765.68,160.32 L765.04,159.68 Z M846.64,78.08 L878.96,45.44 L879.92,46.4 L847.28,78.72 L846.64,78.08 Z M765.04,151.36 L805.68,110.72 L806.32,111.68 L765.68,152.32 L765.04,151.36 Z M840.24,76.16 L874.8,41.28 L875.76,42.24 L841.2,76.8 L840.24,76.16 Z M765.04,143.36 L805.68,102.72 L806.32,103.68 L765.68,144.32 L765.04,143.36 Z M832.24,76.16 L870.96,37.44 L871.6,38.08 L833.2,76.8 L832.24,76.16 Z M765.04,135.04 L805.68,94.4 L806.32,95.36 L765.68,136 L765.04,135.04 Z M823.92,76.16 L863.6,36.48 L864.56,37.12 L824.88,76.8 L823.92,76.16 Z M765.04,127.04 L805.68,86.4 L806.32,87.36 L765.68,128 L765.04,127.04 Z M815.92,76.16 L855.6,36.48 L856.56,37.12 L816.88,76.8 L815.92,76.16 Z M765.04,118.72 L805.68,78.08 L806.32,79.04 L765.68,119.68 L765.04,118.72 Z M807.6,76.16 L847.28,36.48 L848.24,37.12 L808.56,76.8 L807.6,76.16 Z M765.04,110.72 L839.28,36.48 L840.24,37.12 L765.68,111.68 L765.04,110.72 Z M765.04,102.4 L830.96,36.48 L831.92,37.12 L765.68,103.36 L765.04,102.4 Z M765.04,94.4 L822.96,36.48 L823.92,37.12 L765.68,95.36 L765.04,94.4 Z M765.04,86.4 L814.96,36.48 L815.6,37.12 L765.68,87.04 L765.04,86.4 Z M765.04,78.08 L806.64,36.48 L807.6,37.12 L765.68,79.04 L765.04,78.08 Z M765.04,70.08 L798.64,36.48 L799.28,37.12 L765.68,70.72 L765.04,70.08 Z M765.04,61.76 L790.32,36.48 L791.28,37.12 L765.68,62.72 L765.04,61.76 Z M765.04,53.76 L782.32,36.48 L783.28,37.12 L765.68,54.72 L765.04,53.76 Z M765.04,45.44 L774,36.48 L774.96,37.12 L765.68,46.4 L765.04,45.44 Z M765.04,37.44 L766,36.48 L766.96,37.12 L765.68,38.4 L765.04,37.44 Z M1015.28,279.68 L1038.32,256.64 L1038.96,257.6 L1016.24,280.32 L1015.28,279.68 Z M1007.28,279.68 L1038.32,248.64 L1038.96,249.28 L1007.92,280.32 L1007.28,279.68 Z M998.96,279.68 L1038.32,240.32 L1038.96,241.28 L999.92,280.32 L998.96,279.68 Z M990.96,279.68 L1038.32,232.32 L1038.96,232.96 L991.6,280.32 L990.96,279.68 Z M982.64,279.68 L1038.32,224 L1038.96,224.96 L983.6,280.32 L982.64,279.68 Z M974.64,279.68 L1038.32,216 L1038.96,216.96 L975.6,280.32 L974.64,279.68 Z M966.32,279.68 L1038.32,207.68 L1038.96,208.64 L967.28,280.32 L966.32,279.68 Z M958.32,279.68 L1038.32,199.68 L1038.96,200.64 L959.28,280.32 L958.32,279.68 Z M950,279.68 L989.68,240 L990.64,240.64 L950.96,280.32 L950,279.68 Z M997.04,232.64 L1038.32,191.36 L1038.96,192.32 L997.68,233.6 L997.04,232.64 Z M942,279.68 L981.68,240 L982.64,240.64 L942.96,280.32 L942,279.68 Z M997.04,224.64 L1038.32,183.36 L1038.96,184.32 L997.68,225.6 L997.04,224.64 Z M933.68,279.68 L973.36,240 L974.32,240.64 L934.64,280.32 L933.68,279.68 Z M997.04,216.32 L1038.32,175.04 L1038.96,176 L997.68,217.28 L997.04,216.32 Z M925.68,279.68 L965.36,240 L966.32,240.64 L926.64,280.32 L925.68,279.68 Z M997.04,208.32 L1038.32,167.04 L1038.96,168 L997.68,209.28 L997.04,208.32 Z M917.36,279.68 L957.04,240 L958,240.64 L918.32,280.32 L917.36,279.68 Z M997.04,200 L1038.32,158.72 L1038.96,159.68 L997.68,200.96 L997.04,200 Z M915.44,273.6 L956.4,232.64 L957.04,233.6 L916.08,274.56 L915.44,273.6 Z M997.04,192 L1038.32,150.72 L1038.96,151.68 L997.68,192.96 L997.04,192 Z M915.44,265.6 L956.4,224.64 L957.04,225.28 L916.08,266.24 L915.44,265.6 Z M997.04,184 L1038.32,142.72 L1038.96,143.36 L997.68,184.64 L997.04,184 Z M915.44,257.28 L956.4,216.32 L957.04,217.28 L916.08,258.24 L915.44,257.28 Z M997.04,175.68 L1038.32,134.4 L1038.96,135.36 L997.68,176.64 L997.04,175.68 Z M915.44,249.28 L956.4,208.32 L957.04,209.28 L916.08,250.24 L915.44,249.28 Z M997.04,167.68 L1038.32,126.4 L1038.96,127.36 L997.68,168.64 L997.04,167.68 Z M915.44,240.96 L956.4,200 L957.04,200.96 L916.08,241.92 L915.44,240.96 Z M997.04,159.36 L1038.32,118.08 L1038.96,119.04 L997.68,160.32 L997.04,159.36 Z M915.44,232.96 L956.4,192 L957.04,192.96 L916.08,233.92 L915.44,232.96 Z M997.04,151.36 L1038.32,110.08 L1038.96,111.04 L997.68,152.32 L997.04,151.36 Z M915.44,224.64 L956.4,183.68 L957.04,184.64 L916.08,225.6 L915.44,224.64 Z M997.04,143.04 L1038.32,101.76 L1038.96,102.72 L997.68,144 L997.04,143.04 Z M915.44,216.64 L956.4,175.68 L957.04,176.64 L916.08,217.6 L915.44,216.64 Z M997.04,135.04 L1038.32,93.76 L1038.96,94.72 L997.68,136 L997.04,135.04 Z M915.44,208.32 L956.4,167.36 L957.04,168.32 L916.08,209.28 L915.44,208.32 Z M997.04,126.72 L1038.32,85.44 L1038.96,86.4 L997.68,127.68 L997.04,126.72 Z M915.44,200.32 L956.4,159.36 L957.04,160.32 L916.08,201.28 L915.44,200.32 Z M997.04,118.72 L1038.32,77.44 L1038.96,78.4 L997.68,119.68 L997.04,118.72 Z M915.44,192 L956.4,151.04 L957.04,152 L916.08,192.96 L915.44,192 Z M997.04,110.4 L1038.32,69.12 L1038.96,70.08 L997.68,111.36 L997.04,110.4 Z M915.44,184 L956.4,143.04 L957.04,144 L916.08,184.96 L915.44,184 Z M997.04,102.4 L1038.32,61.12 L1038.96,62.08 L997.68,103.36 L997.04,102.4 Z M915.44,176 L956.4,135.04 L957.04,135.68 L916.08,176.64 L915.44,176 Z M997.04,94.4 L1036.72,54.72 L1037.36,55.36 L997.68,95.04 L997.04,94.4 Z M915.44,167.68 L956.4,126.72 L957.04,127.68 L916.08,168.64 L915.44,167.68 Z M997.04,86.08 L1032.56,50.56 L1033.52,51.52 L997.68,87.04 L997.04,86.08 Z M915.44,159.68 L956.4,118.72 L957.04,119.36 L916.08,160.32 L915.44,159.68 Z M996.08,79.04 L1028.4,46.4 L1029.36,47.36 L997.04,79.68 L996.08,79.04 Z M915.44,151.36 L956.4,110.4 L957.04,111.36 L916.08,152.32 L915.44,151.36 Z M991.6,75.2 L1024.24,42.24 L1025.2,43.2 L992.56,75.84 L991.6,75.2 Z M915.44,143.36 L956.4,102.4 L957.04,103.36 L916.08,144.32 L915.44,143.36 Z M983.6,75.2 L1020.4,38.4 L1021.04,39.04 L984.56,75.84 L983.6,75.2 Z M915.44,135.04 L956.4,94.08 L957.04,95.04 L916.08,136 L915.44,135.04 Z M975.28,75.2 L1014,36.48 L1014.96,37.12 L976.24,75.84 L975.28,75.2 Z M915.44,127.04 L956.4,86.08 L957.04,87.04 L916.08,128 L915.44,127.04 Z M967.28,75.2 L1006,36.48 L1006.96,37.12 L968.24,75.84 L967.28,75.2 Z M915.44,118.72 L956.4,77.76 L957.04,78.72 L916.08,119.68 L915.44,118.72 Z M958.96,75.2 L997.68,36.48 L998.64,37.12 L959.92,75.84 L958.96,75.2 Z M915.44,110.72 L989.68,36.48 L990.64,37.12 L916.08,111.68 L915.44,110.72 Z M915.44,102.4 L981.36,36.48 L982.32,37.12 L916.08,103.36 L915.44,102.4 Z M915.44,94.4 L973.36,36.48 L974.32,37.12 L916.08,95.36 L915.44,94.4 Z M915.44,86.4 L965.36,36.48 L966,37.12 L916.08,87.04 L915.44,86.4 Z M915.44,78.08 L957.04,36.48 L958,37.12 L916.08,79.04 L915.44,78.08 Z M915.44,70.08 L949.04,36.48 L949.68,37.12 L916.08,70.72 L915.44,70.08 Z M915.44,61.76 L940.72,36.48 L941.68,37.12 L916.08,62.72 L915.44,61.76 Z M915.44,53.76 L932.72,36.48 L933.68,37.12 L916.08,54.72 L915.44,53.76 Z M915.44,45.44 L924.4,36.48 L925.36,37.12 L916.08,46.4 L915.44,45.44 Z M915.44,37.44 L916.4,36.48 L917.36,37.12 L916.08,38.4 L915.44,37.44 Z" id="Sanford-Copy-2" fill="#000000"></path>
            <path d="M131.84,96.88 L123.84,97.2 L121.28,96.88 L118.08,97.2 L116.16,96.88 L113.6,97.52 L111.04,96.88 L108.16,96.88 L105.92,97.52 L103.04,96.88 L100.8,97.52 L97.6,96.88 L95.68,97.52 L93.12,94.96 L93.12,86.96 L92.8,84.72 L92.8,82.16 L92.48,79.28 L92.8,76.4 L92.48,73.84 L90.88,70 L89.92,68.08 L85.44,66.8 L82.56,66.8 L80.64,66.48 L77.76,66.48 L74.88,66.8 L72.32,66.48 L69.76,67.12 L67.84,66.8 L64.96,66.8 L62.72,67.12 L60.16,66.8 L55.68,68.4 L53.76,70.32 L52.16,73.84 L52.48,76.4 L52.16,78.64 L52.16,86.96 L51.84,89.2 L52.16,91.44 L52.16,94 L52.48,96.88 L52.16,98.8 L52.48,101.36 L52.48,106.48 L52.16,109.68 L51.84,111.6 L51.84,114.8 L52.16,117.36 L52.16,119.92 L53.76,123.76 L55.68,125.68 L62.4,127.28 L64.64,127.28 L67.84,126.96 L70.4,126.64 L72.64,127.28 L74.88,126.64 L77.44,126.96 L80.64,126.64 L83.2,127.28 L85.76,127.28 L88.32,126.64 L90.88,126.64 L93.12,127.28 L95.68,126.64 L98.24,126.64 L101.44,126.96 L103.36,126.64 L105.92,126.64 L108.8,126.96 L111.04,127.28 L115.84,128.24 L118.08,130.48 L119.68,131.76 L120.96,133.68 L123.52,135.6 L124.48,137.2 L126.72,139.76 L128.96,141.36 L130.24,143.28 L132.16,144.56 L133.44,149.36 L134.08,151.92 L133.76,154.16 L133.76,159.28 L133.44,161.84 L133.44,164.4 L134.08,167.28 L133.44,169.2 L133.76,171.76 L133.76,174.32 L133.44,176.88 L133.44,179.76 L133.76,181.68 L133.76,189.36 L134.08,191.92 L133.76,194.48 L133.76,197.04 L133.44,199.28 L134.08,201.84 L133.44,205.04 L133.76,207.28 L133.44,209.84 L133.44,212.08 L133.76,214.96 L133.76,217.84 L133.44,220.08 L133.44,222.32 L134.08,224.88 L134.08,227.44 L133.44,230 L133.76,232.24 L134.08,235.44 L133.44,237.68 L134.08,239.92 L133.76,243.12 L133.44,245.36 L133.44,247.6 L132.48,251.76 L130.56,254.32 L128.96,255.28 L121.28,262.96 L119.36,264.56 L117.44,266.48 L115.52,268.72 L111.36,270 L108.8,269.68 L105.92,270.32 L101.44,269.68 L98.88,270.32 L88.64,270.32 L86.08,270 L83.2,269.68 L80.96,270 L75.52,270 L72.32,270.32 L70.08,270.32 L67.84,269.68 L64.96,269.68 L62.08,270.32 L60.16,269.68 L57.28,270 L55.04,269.68 L51.84,270.32 L46.72,269.68 L44.16,270.32 L41.6,269.68 L39.36,270.32 L36.8,269.68 L34.24,270.32 L29.76,268.08 L27.52,266.48 L26.56,264.88 L24.64,262.64 L22.08,261.04 L20.8,259.76 L19.2,257.84 L17.28,255.6 L13.76,252.08 L11.52,247.6 L11.84,245.04 L11.84,243.12 L11.52,240.56 L12.16,237.68 L12.16,235.44 L11.84,232.56 L11.84,227.76 L12.16,224.88 L11.84,222.96 L12.16,219.76 L11.52,215.28 L11.84,212.72 L11.52,209.84 L11.84,207.28 L11.52,205.04 L11.52,202.16 L14.08,199.6 L16.96,199.6 L18.88,199.92 L21.76,199.6 L24.32,199.92 L26.56,199.92 L29.76,199.6 L31.68,199.6 L34.56,199.92 L37.12,200.24 L39.36,199.6 L42.24,199.92 L45.12,199.6 L47.04,200.24 L49.6,200.24 L52.16,203.12 L52.8,205.04 L52.8,207.6 L52.16,210.48 L52.16,215.28 L52.48,218.48 L52.16,220.72 L52.16,222.96 L53.76,227.44 L55.36,228.72 L59.84,230.96 L62.72,230.96 L64.64,230.32 L67.84,230.96 L75.2,230.96 L77.44,230.32 L80.32,230.64 L82.56,230.32 L85.12,230.32 L89.6,229.36 L91.84,227.44 L92.8,223.92 L93.44,220.72 L92.8,218.8 L93.44,215.6 L93.44,210.8 L92.8,208.56 L93.12,205.68 L93.44,203.76 L92.8,200.88 L93.12,198.64 L93.12,191.28 L92.8,188.72 L93.44,185.52 L93.44,183.92 L92.8,181.36 L93.44,178.48 L93.12,176.24 L93.44,173.68 L91.84,169.52 L90.24,167.28 L85.76,165.68 L82.56,166 L80.64,165.68 L77.76,165.68 L74.88,166 L72.96,166 L69.76,166.32 L67.2,166.32 L65.28,165.68 L62.72,166.32 L60.16,166.32 L57.28,165.68 L54.4,166.32 L51.84,165.68 L49.92,165.68 L47.36,166.32 L44.8,166.32 L42.24,166 L39.36,166.32 L37.12,166.32 L34.24,165.68 L30.08,164.72 L27.52,162.8 L26.56,161.2 L24,158.64 L22.72,156.72 L18.56,153.84 L17.28,151.92 L15.04,150.32 L13.44,148.4 L11.84,144.24 L11.84,138.8 L12.16,136.24 L12.16,131.44 L11.84,128.24 L12.16,126 L11.52,123.44 L11.84,120.56 L11.52,118.64 L12.16,113.52 L11.84,110.32 L12.16,107.76 L11.84,105.2 L12.16,102.96 L12.16,98.16 L11.52,95.28 L12.16,93.04 L12.16,90.48 L11.52,84.72 L12.16,80.24 L12.16,77.68 L11.84,74.48 L11.84,72.56 L11.52,69.68 L12.16,67.44 L11.84,64.56 L12.16,61.68 L11.52,59.76 L12.16,56.88 L11.52,54.64 L11.84,51.44 L11.84,49.52 L13.12,44.72 L15.68,42.8 L17.28,41.52 L18.88,39.28 L21.12,37.36 L22.72,35.76 L24.64,34.16 L26.24,31.92 L27.84,30.32 L30.08,29.04 L34.24,27.44 L36.8,27.44 L39.36,27.12 L41.92,27.44 L44.8,27.12 L46.72,27.44 L49.92,26.8 L52.48,27.12 L54.4,27.44 L56.96,27.12 L59.52,27.12 L62.72,27.44 L64.64,26.8 L67.2,27.44 L72.96,26.8 L75.52,26.8 L77.76,27.44 L80.64,26.8 L83.2,27.44 L85.76,26.8 L88.64,27.44 L90.88,27.12 L93.76,27.44 L95.68,27.12 L98.56,26.8 L100.8,27.44 L103.68,27.12 L106.24,26.8 L108.8,27.12 L111.04,26.8 L115.84,28.72 L117.76,30.32 L119.04,31.92 L121.28,34.16 L122.88,36.4 L124.8,37.36 L126.72,39.92 L128.96,41.2 L130.56,43.44 L132.48,45.36 L134.08,48.88 L134.08,51.76 L134.4,54.64 L133.76,56.56 L133.76,59.12 L134.08,62 L134.08,63.92 L134.4,67.12 L134.08,69.36 L134.4,71.6 L133.76,77.36 L134.4,79.92 L133.76,81.52 L134.08,84.72 L133.76,86.96 L133.76,89.84 L134.4,91.76 L134.08,94.96 L131.84,96.88 Z M303.36,265.52 L303.68,267.44 L301.44,270.64 L298.88,270 L296.32,270.64 L294.08,270.32 L291.84,270.32 L288.64,270 L286.72,270.64 L280.96,270.64 L278.08,270 L275.52,270.64 L270.4,270 L268.48,270.32 L265.28,270 L262.08,267.76 L261.76,265.52 L261.44,262.96 L261.12,260.08 L260.16,257.52 L259.52,255.28 L259.52,252.08 L259.2,250.48 L257.92,247.6 L257.28,242.48 L256.64,239.6 L255.68,237.36 L255.36,234.48 L255.04,232.24 L254.72,230.32 L254.08,227.76 L253.12,224.56 L252.8,222.64 L252.48,219.44 L251.52,217.84 L248.96,217.52 L246.72,217.84 L238.4,217.84 L236.48,218.16 L233.6,217.84 L231.36,218.16 L228.16,217.52 L225.92,218.16 L220.8,217.52 L218.24,218.16 L215.36,217.84 L210.88,217.84 L208,217.52 L205.76,218.16 L202.88,217.84 L201.92,217.84 L201.28,219.44 L200.96,222.64 L200.96,224.88 L200.32,227.44 L199.04,229.68 L199.36,232.24 L198.72,235.12 L198.08,237.68 L197.12,239.92 L196.48,242.16 L196.8,244.72 L195.84,247.92 L195.52,250.48 L194.88,252.08 L193.92,255.28 L194.24,257.52 L192.64,262.32 L192.32,264.88 L191.36,267.76 L188.8,270 L183.04,270.64 L181.12,270.32 L178.56,270.64 L176,270 L172.8,270.32 L167.68,270.32 L165.44,270.64 L162.88,270 L160,270 L157.44,270.64 L152.32,270.64 L150.08,267.76 L150.72,265.2 L151.04,262.32 L152,260.08 L152.32,257.52 L153.28,255.6 L153.28,253.04 L153.92,250.16 L154.88,247.6 L156.16,243.12 L156.48,240.24 L157.12,238.32 L157.76,235.12 L158.4,233.2 L158.72,230.64 L160,228.08 L160,225.52 L160.64,223.28 L160.96,220.72 L161.6,217.84 L162.24,215.92 L163.52,212.72 L163.84,210.48 L163.84,208.24 L164.48,205.36 L165.76,202.8 L166.08,200.56 L166.4,198 L167.68,196.08 L168,193.52 L168,190.32 L169.92,185.52 L169.92,182.96 L170.88,181.04 L170.88,178.16 L171.84,175.92 L172.16,173.68 L172.8,170.8 L173.76,168.88 L174.4,166 L174.4,163.12 L175.68,160.56 L176,158.96 L176.96,156.4 L177.6,153.84 L177.92,151.28 L178.56,148.4 L179.84,143.28 L180.16,141.36 L180.48,139.12 L181.76,135.92 L181.76,133.36 L182.4,131.12 L183.04,128.56 L183.36,126.32 L184.32,124.08 L184.64,121.2 L185.28,118.32 L185.92,116.4 L186.24,113.52 L187.52,110.96 L187.52,108.4 L188.16,106.16 L189.12,103.6 L189.76,101.36 L189.76,98.8 L190.4,96.88 L191.68,93.68 L192,91.76 L192.64,88.88 L193.28,86.64 L193.92,84.08 L193.92,81.84 L195.84,76.4 L196.16,74.48 L196.48,71.28 L196.8,69.36 L197.76,66.48 L198.08,64.56 L198.72,61.36 L199.68,59.44 L199.68,56.56 L200.64,54.64 L201.28,52.08 L201.92,48.88 L202.88,46.96 L203.52,44.4 L203.52,41.84 L203.84,39.6 L204.8,37.04 L205.76,34.8 L206.4,31.92 L206.72,29.04 L209.92,26.8 L211.84,27.44 L215.04,27.12 L216.64,27.44 L219.52,26.8 L222.4,27.44 L224.32,27.44 L226.88,26.8 L229.76,27.12 L231.68,27.44 L234.88,27.12 L237.12,27.44 L239.04,27.44 L242.24,26.8 L244.16,26.8 L247.36,29.36 L247.68,31.92 L248.32,34.16 L249.28,36.72 L249.6,38.96 L249.92,41.84 L250.56,44.08 L251.84,46.96 L251.84,49.2 L252.8,52.08 L253.76,54 L254.4,56.88 L254.08,59.12 L255.36,62 L255.36,64.24 L256.64,68.72 L257.28,71.92 L257.92,74.48 L258.56,76.4 L259.2,78.96 L260.16,81.52 L260.16,83.76 L261.12,86.64 L261.12,89.2 L261.76,91.12 L262.72,94.32 L263.68,96.56 L264.32,98.8 L264.64,101.68 L264.96,104.24 L265.92,106.16 L266.24,108.4 L266.88,111.6 L267.52,114.16 L267.84,116.4 L268.48,118.96 L268.8,121.52 L269.44,123.44 L270.72,126 L271.04,128.88 L271.68,131.12 L271.68,133.36 L272.32,136.56 L273.6,138.48 L273.6,141.04 L274.24,143.92 L274.88,146.48 L275.84,149.04 L276.48,150.64 L276.48,153.2 L277.12,156.4 L278.4,160.88 L278.72,163.76 L279.68,166 L280.64,168.56 L281.28,170.48 L281.6,173.36 L281.92,175.92 L282.56,178.48 L283.52,181.04 L284.16,186.16 L285.44,188.08 L286.08,190.32 L286.08,192.88 L286.72,195.44 L287.04,198.64 L287.68,200.88 L289.6,205.36 L289.6,208.24 L289.92,210.8 L291.2,215.92 L292.48,217.84 L293.12,220.4 L293.44,222.96 L293.44,225.84 L294.72,227.76 L295.04,230 L295.68,233.2 L297.28,238 L297.28,240.24 L297.6,243.12 L298.56,245.04 L299.2,248.24 L299.84,249.84 L300.16,253.04 L301.12,255.28 L301.12,257.84 L301.76,260.08 L302.72,262.64 L303.36,265.52 Z M238.72,178.8 L240.96,178.16 L243.52,178.16 L243.2,177.2 L243.2,174 L242.24,171.76 L242.24,169.84 L241.92,166.64 L240.32,161.52 L239.68,159.6 L239.36,156.4 L238.72,154.16 L238.4,151.6 L238.4,149.68 L237.44,146.48 L236.8,144.24 L235.84,139.12 L234.88,136.88 L234.56,134.64 L233.92,128.88 L233.28,126.64 L232.96,123.76 L232.32,121.52 L231.68,118.64 L230.72,116.08 L230.72,114.48 L230.08,111.6 L229.76,109.04 L229.44,106.16 L228.8,104.24 L228.48,101.36 L227.84,98.8 L226.88,99.12 L225.92,101.68 L225.6,103.92 L225.28,106.48 L224,109.36 L223.68,111.28 L223.68,114.48 L223.04,116.08 L222.72,119.28 L221.44,121.52 L221.44,124.08 L221.12,126.96 L220.48,129.52 L220.16,131.44 L218.88,136.88 L217.6,142 L217.6,144.24 L216.32,146.48 L215.36,151.6 L215.36,154.8 L214.08,157.04 L214.4,158.96 L213.12,164.72 L212.48,166.64 L211.52,169.2 L211.84,172.08 L210.88,174.64 L210.24,178.48 L210.88,178.8 L213.44,178.48 L215.36,178.8 L218.24,178.16 L220.8,178.48 L223.36,178.16 L225.92,178.16 L228.16,178.8 L230.72,178.8 L233.28,178.48 L235.84,178.48 L238.72,178.8 Z M360.32,270.32 L358.08,270.32 L355.52,270 L352.96,270.64 L350.72,270.64 L347.84,270.32 L345.6,270 L343.04,270 L339.84,270.64 L337.92,270 L335.36,270 L332.8,270.32 L330.24,270 L327.68,270.64 L325.12,270.64 L321.92,267.44 L322.56,265.2 L321.92,262.64 L322.56,260.08 L322.24,257.52 L322.56,255.28 L322.24,252.4 L322.24,246.96 L321.92,245.04 L322.56,242.48 L322.56,239.92 L321.92,237.04 L322.56,234.16 L321.92,229.68 L321.92,223.92 L322.56,221.68 L322.56,218.8 L322.24,216.24 L322.56,214 L322.56,211.12 L322.24,209.2 L321.92,206.64 L321.92,203.44 L322.56,201.52 L322.24,198.32 L322.56,196.4 L322.24,193.2 L321.92,190.64 L322.24,188.72 L322.56,185.84 L322.56,183.6 L321.92,178.48 L322.24,175.6 L322.24,173.36 L321.92,170.16 L322.24,167.92 L321.92,165.04 L322.24,163.12 L321.92,160.24 L322.24,157.36 L322.24,152.56 L321.92,150.32 L322.24,147.76 L322.56,144.56 L321.92,139.44 L321.92,129.2 L322.24,127.28 L321.92,124.08 L322.56,121.84 L321.92,118.96 L322.24,117.04 L321.92,114.48 L322.24,111.92 L321.92,109.36 L322.56,106.16 L321.92,104.24 L322.24,101.04 L321.92,98.8 L322.24,96.56 L322.24,93.68 L321.92,90.8 L322.56,88.88 L322.56,85.68 L322.24,83.12 L322.24,81.2 L322.56,78 L322.24,75.76 L322.56,72.88 L322.56,67.76 L322.24,65.84 L322.56,62.96 L321.92,60.72 L322.56,57.84 L321.92,55.28 L322.56,53.04 L321.92,50.48 L322.24,47.92 L322.24,45.04 L321.92,42.8 L322.24,40.24 L321.92,37.04 L322.56,35.12 L322.24,31.92 L322.24,29.36 L324.8,27.12 L327.36,27.44 L330.24,26.8 L332.48,26.8 L335.68,27.12 L337.92,26.8 L340.8,27.12 L343.04,26.8 L345.28,27.12 L348.16,27.44 L350.72,27.44 L352.96,27.12 L355.52,27.44 L358.4,26.8 L360.96,27.44 L363.84,27.44 L367.04,29.04 L369.6,36.72 L370.88,39.28 L372.16,43.76 L373.12,46.64 L373.76,48.88 L375.04,50.8 L376,53.68 L376.32,55.92 L377.6,58.48 L377.92,60.72 L378.88,62.64 L379.52,65.52 L381.12,68.08 L381.12,70.64 L382.08,72.56 L383.04,75.44 L384.32,77.36 L384.96,79.6 L386.88,84.72 L387.2,86.64 L388.8,89.52 L388.8,91.44 L390.4,94.64 L391.04,96.88 L391.36,99.12 L392.96,101.68 L393.92,104.24 L394.24,106.8 L395.2,109.04 L395.84,111.28 L396.48,113.2 L397.76,116.4 L398.72,118 L399.36,121.2 L400,123.12 L400.96,125.36 L401.6,127.92 L402.88,130.16 L403.52,132.72 L404.48,135.6 L405.76,137.2 L406.4,139.76 L407.04,142 L407.68,144.56 L408.96,147.44 L410.56,151.6 L411.2,154.8 L412.48,157.04 L412.8,159.28 L414.4,161.2 L415.04,164.08 L416,166.32 L416.64,168.56 L417.28,171.44 L417.92,173.36 L418.56,173.68 L419.2,171.12 L418.88,168.56 L419.2,166 L418.56,163.44 L418.88,160.88 L418.56,158 L419.2,155.12 L418.88,153.2 L419.2,150 L418.88,147.44 L419.2,144.88 L418.88,142.64 L419.2,140.4 L418.88,137.52 L419.2,134.96 L419.2,132.08 L418.56,129.52 L419.2,127.28 L418.88,124.72 L419.2,122.48 L418.88,119.28 L418.56,117.36 L418.56,111.6 L419.2,109.04 L419.2,103.92 L418.88,102 L418.56,98.48 L419.2,96.24 L418.88,94 L418.88,91.44 L419.2,88.56 L418.88,85.68 L418.88,78.32 L419.2,76.08 L419.2,70.96 L418.56,67.76 L418.56,62.96 L419.2,60.08 L419.2,54.96 L418.56,53.04 L419.2,49.84 L418.56,47.28 L418.88,45.04 L419.2,42.16 L418.88,40.24 L418.88,37.36 L418.56,34.48 L419.2,32.24 L419.2,30 L421.76,27.12 L424,27.44 L426.24,27.12 L429.44,26.8 L433.92,26.8 L436.8,27.44 L439.36,27.44 L441.92,26.8 L444.16,27.12 L446.72,27.12 L449.28,26.8 L452.48,27.44 L457.28,27.44 L459.2,29.68 L459.84,32.56 L459.52,34.8 L459.52,37.68 L459.84,39.92 L459.2,42.16 L459.84,44.72 L459.52,47.28 L459.84,50.48 L459.84,53.04 L459.2,54.96 L459.2,58.16 L459.84,60.72 L459.52,62.96 L459.2,65.84 L459.2,68.4 L459.84,70.64 L459.52,73.2 L459.52,75.44 L459.2,78 L459.84,80.56 L459.2,83.44 L459.52,86 L459.2,88.56 L459.84,90.8 L459.84,93.36 L459.2,95.92 L459.52,98.8 L459.52,101.04 L459.84,103.92 L459.52,106.48 L459.52,108.72 L459.84,111.28 L459.52,113.84 L459.84,116.4 L459.52,119.28 L459.84,121.52 L459.52,124.4 L459.84,126.96 L459.2,129.52 L459.52,131.76 L459.2,134.96 L459.2,137.2 L459.84,140.08 L459.84,147.44 L459.2,149.68 L459.84,152.24 L459.84,157.68 L459.2,159.92 L459.84,163.12 L459.52,165.04 L459.84,167.92 L459.52,170.16 L459.84,173.36 L459.84,175.92 L459.2,178.16 L459.52,180.72 L459.84,183.6 L459.2,186.16 L459.52,188.08 L459.84,190.96 L459.84,193.52 L459.2,196.4 L459.84,198.64 L459.2,201.2 L459.2,206 L459.84,208.56 L459.52,211.44 L459.52,214.32 L459.2,216.24 L459.52,219.44 L459.84,222 L459.52,224.56 L459.84,226.48 L459.52,229.68 L459.2,231.92 L459.52,234.8 L459.2,236.72 L459.2,239.6 L459.84,242.48 L459.2,245.04 L459.52,247.28 L459.52,250.16 L459.2,252.72 L459.52,254.96 L459.84,257.52 L459.84,260.4 L459.2,262.96 L459.84,265.52 L459.84,268.08 L456.64,270.64 L454.08,270.64 L449.6,270 L447.04,270 L444.48,270.64 L441.92,270 L438.72,270.64 L436.8,270.64 L434.24,270 L431.36,270.64 L429.12,270.32 L425.92,270 L424,270.64 L421.12,270 L418.24,270.32 L415.36,267.76 L414.4,264.88 L412.8,262.96 L412.16,260.4 L411.2,257.84 L411.2,255.6 L409.92,253.04 L408.96,250.8 L408.64,248.56 L407.36,246.32 L406.4,243.44 L405.76,240.88 L404.8,239.28 L403.84,236.72 L403.52,234.48 L402.24,231.28 L401.6,229.04 L400.32,226.8 L399.68,224.24 L398.4,222 L397.76,219.76 L397.12,217.2 L395.84,214.96 L395.2,212.4 L394.56,210.48 L393.28,207.6 L392.96,205.04 L392,203.12 L391.36,200.24 L390.72,197.68 L389.12,196.08 L388.48,192.88 L387.52,190.32 L387.2,188.4 L385.6,186.16 L384.96,183.28 L384,181.36 L383.36,178.48 L383.04,175.92 L381.44,174 L380.48,171.44 L380.16,169.2 L379.2,166.96 L377.92,164.08 L377.6,161.52 L376.32,159.28 L375.68,157.36 L374.72,155.12 L373.76,152.56 L373.44,149.68 L372.48,147.76 L371.84,145.52 L370.24,142.64 L369.92,140.08 L368.64,138.16 L368.32,135.92 L367.04,132.72 L366.72,130.48 L365.12,128.56 L365.12,126 L364.16,123.44 L363.52,123.44 L362.88,126.32 L362.88,131.76 L363.52,133.68 L363.52,136.88 L363.2,139.44 L363.2,141.36 L362.88,144.56 L362.88,149.04 L363.2,152.24 L363.2,154.16 L363.52,156.72 L363.2,159.6 L363.52,162.48 L362.88,164.72 L362.88,166.96 L363.52,170.16 L362.88,172.08 L363.2,174.64 L363.2,180.4 L362.88,182.96 L362.88,185.52 L363.2,187.44 L363.2,190.64 L362.88,192.56 L362.88,195.44 L363.2,198.64 L363.52,200.56 L362.88,203.12 L363.52,206.32 L362.88,208.24 L363.2,210.8 L362.88,213.36 L362.88,216.24 L363.52,218.8 L363.2,221.36 L363.52,224.24 L362.88,226.16 L363.2,229.04 L363.2,233.84 L362.88,236.4 L363.2,239.6 L362.88,241.52 L363.52,244.4 L363.2,246.64 L362.88,249.84 L363.52,251.76 L362.88,254.32 L363.2,256.88 L363.2,259.76 L363.52,262.32 L363.2,265.2 L363.52,267.12 L360.32,270.32 Z M489.92,26.48 L493.12,27.12 L495.68,26.8 L498.24,27.12 L500.48,26.8 L503.36,26.48 L505.6,26.8 L508.48,26.8 L510.4,27.12 L513.28,26.48 L518.4,27.12 L520.32,27.12 L523.2,26.48 L525.44,27.12 L528.64,26.48 L533.76,26.48 L536,27.12 L538.56,26.8 L541.12,27.12 L543.68,27.12 L545.92,26.48 L548.48,26.48 L550.72,26.8 L553.92,27.12 L556.48,26.8 L558.72,26.48 L561.28,27.12 L563.52,26.48 L566.08,26.8 L568.96,26.48 L571.2,27.12 L576,27.12 L578.88,26.8 L589.44,26.8 L591.36,26.48 L593.92,27.12 L596.48,26.48 L599.68,26.8 L601.92,26.48 L604.8,29.36 L604.48,31.92 L604.48,34.8 L604.16,37.68 L604.48,39.6 L604.48,42.8 L604.16,45.04 L604.16,47.92 L604.8,50.48 L604.16,52.72 L604.8,55.92 L604.48,58.48 L604.48,61.04 L604.8,63.92 L602.24,66.16 L599.36,66.48 L596.8,66.8 L593.92,66.8 L592,66.16 L589.12,66.48 L586.24,66.48 L584,66.16 L581.76,66.8 L579.2,66.48 L576.96,66.16 L574.4,66.8 L571.2,66.8 L568.96,66.48 L566.08,66.48 L563.52,66.8 L560.96,66.48 L556.16,66.48 L553.92,66.16 L551.04,66.16 L548.48,66.8 L545.92,66.16 L544,66.8 L541.12,66.48 L538.88,66.8 L535.68,66.16 L533.12,66.48 L531.2,66.8 L528.64,69.36 L528.32,71.28 L528.64,73.84 L528.64,76.72 L528.32,78.96 L528.96,84.72 L528.96,87.6 L528.32,89.52 L528.32,92.08 L528.96,94.96 L528.96,97.52 L528.32,100.4 L528.64,102.96 L528.64,104.88 L528.96,108.4 L528.96,110.64 L528.32,113.2 L528.64,115.44 L528.64,123.76 L528.32,125.68 L530.56,129.2 L533.76,128.88 L536,128.56 L538.24,129.2 L541.44,128.88 L543.36,128.88 L545.92,129.2 L548.48,129.2 L551.04,128.88 L554.24,129.2 L556.16,128.56 L559.04,128.56 L561.28,129.2 L564.48,128.88 L571.52,128.88 L574.4,129.2 L576.96,128.56 L579.52,128.56 L582.08,128.88 L584.32,131.12 L584.64,134 L584.32,136.24 L584.96,139.12 L584.32,142.32 L584.64,144.88 L584.32,147.44 L584.96,149.68 L584.32,152.56 L584.32,157.68 L584.96,160.56 L584.32,162.48 L584.64,165.04 L582.08,168.24 L579.52,167.6 L576.64,167.6 L574.08,168.24 L572.16,168.24 L568.96,167.92 L567.04,168.24 L563.84,168.24 L558.72,167.6 L556.8,167.92 L553.92,168.24 L551.68,168.24 L548.48,167.6 L546.24,167.6 L544,167.92 L541.12,168.24 L538.56,167.6 L535.68,167.6 L533.76,168.24 L531.2,167.6 L528.96,170.8 L528.96,172.72 L528.64,175.92 L528.32,178.16 L528.96,180.4 L528.32,183.6 L528.96,185.52 L528.64,188.08 L528.96,190.64 L528.96,196.4 L528.64,198.64 L528.32,201.2 L528.64,203.76 L528.96,206.64 L528.32,209.2 L528.32,214.32 L528.64,216.24 L528.64,218.8 L528.32,221.36 L528.64,224.56 L528.32,227.12 L528.96,229.68 L528.32,231.6 L528.32,237.04 L528.96,239.92 L528.32,241.84 L528.96,245.04 L528.96,247.6 L528.64,249.52 L528.64,252.72 L528.32,255.28 L528.96,257.2 L528.32,260.08 L528.96,262.64 L528.64,265.52 L528.32,268.08 L526.08,270.32 L523.84,269.68 L520.96,269.68 L518.08,270.32 L516.16,270.32 L513.28,270.64 L508.16,269.68 L505.92,270.32 L502.72,270.32 L500.16,269.68 L495.04,269.68 L492.48,270.32 L490.24,269.68 L488.32,267.76 L488,264.56 L488,259.44 L487.68,256.88 L487.68,254.96 L488.32,251.76 L488.32,249.2 L488,246.64 L487.68,244.72 L487.68,242.16 L488.32,236.4 L488.32,229.04 L487.68,226.8 L488.32,223.92 L488,221.36 L488,219.12 L488.32,216.24 L488.32,213.68 L488,211.44 L488,203.12 L487.68,200.88 L488.32,198.64 L487.68,195.76 L488,193.52 L487.68,190.64 L488,188.4 L487.68,185.52 L488.32,183.28 L487.68,180.72 L488,177.52 L488.32,174.96 L487.68,173.04 L488.32,170.48 L488.32,167.28 L487.68,165.36 L488,162.8 L488,159.6 L487.68,157.36 L488.32,154.48 L488.32,147.44 L487.68,144.88 L488,142.32 L487.68,139.76 L488,136.88 L487.68,134.32 L488,131.76 L488,128.88 L488.32,126.96 L488.32,124.08 L487.68,121.2 L488,118.64 L487.68,116.08 L488,113.84 L488,111.28 L488.32,108.4 L488.32,98.8 L487.68,95.6 L487.68,90.48 L488,87.92 L488,85.36 L487.68,82.8 L488.32,80.88 L488,77.68 L488,72.88 L487.68,70 L488.32,68.08 L488,64.88 L488.32,62.64 L487.68,60.4 L488.32,57.2 L487.68,55.28 L488,52.08 L488,47.28 L487.68,45.04 L488,41.84 L487.68,39.92 L488,36.72 L488,34.16 L487.68,32.24 L488,29.36 L489.92,26.48 Z M729.28,28.4 L732.16,31.92 L734.72,34.16 L736.64,36.4 L737.92,37.68 L740.16,39.28 L742.08,41.84 L743.36,42.8 L745.28,45.04 L747.2,48.88 L747.2,54.32 L746.56,57.2 L746.88,59.12 L746.88,64.24 L746.56,67.12 L747.2,69.68 L747.2,71.92 L746.88,75.12 L747.2,77.68 L746.88,79.6 L746.88,84.72 L746.56,87.92 L746.56,89.84 L746.88,92.4 L746.88,97.2 L746.56,99.76 L747.2,104.88 L747.2,107.44 L746.88,110.64 L746.88,115.12 L747.2,118.32 L747.2,120.24 L746.88,123.12 L746.88,128.24 L746.56,131.12 L746.56,133.04 L747.2,135.6 L746.56,138.16 L747.2,141.36 L746.56,143.92 L747.2,148.4 L746.88,150.96 L746.88,153.84 L746.56,156.08 L746.56,161.2 L747.2,164.08 L746.56,166.32 L747.2,168.56 L747.2,171.44 L746.88,174 L747.2,176.56 L746.56,179.12 L746.88,182 L746.56,184.24 L747.2,186.48 L747.2,189.04 L746.88,191.6 L746.56,194.48 L746.56,199.6 L747.2,201.84 L746.88,204.72 L747.2,206.64 L747.2,212.08 L746.56,214.32 L747.2,217.2 L747.2,219.76 L746.88,222 L747.2,225.2 L746.56,227.12 L746.88,230.32 L746.56,232.88 L746.56,240.56 L746.88,243.12 L746.56,245.68 L746.56,248.24 L745.28,252.08 L743.68,254.32 L741.76,255.6 L740.16,257.84 L738.24,259.44 L736,261.04 L734.4,262.96 L731.2,266.16 L728.64,268.4 L724.8,270.32 L721.92,270.32 L720,270 L717.44,270 L714.88,270.32 L709.76,269.68 L706.88,269.68 L704.64,270.32 L699.52,270.32 L696.64,269.68 L694.08,269.68 L691.84,270.32 L688.64,270 L686.72,269.68 L683.52,270 L681.6,269.68 L679.04,270 L675.84,270 L673.92,269.68 L668.8,269.68 L665.6,270.32 L663.04,270 L661.12,270 L658.24,270.32 L656,269.68 L652.8,269.68 L650.56,270 L648.32,269.68 L643.84,268.72 L641.6,266.48 L639.68,265.2 L637.76,262.64 L632.32,257.2 L631.04,255.6 L628.8,254 L626.88,252.4 L625.28,247.6 L625.92,245.36 L625.92,243.12 L625.6,240.56 L625.92,237.68 L625.28,232.56 L625.92,229.68 L625.6,227.44 L625.6,225.2 L625.92,222.64 L625.28,219.76 L625.92,217.2 L625.28,214.96 L625.92,212.08 L625.92,209.2 L625.6,206.64 L625.6,204.4 L625.28,202.16 L625.28,199.6 L625.92,197.36 L625.92,194.16 L625.28,191.92 L625.92,189.36 L625.6,187.12 L625.28,183.92 L625.92,181.36 L625.6,178.8 L625.6,174.32 L625.28,171.76 L625.28,169.2 L625.6,166.64 L625.28,163.76 L625.92,160.88 L625.6,158.64 L625.6,156.4 L625.92,153.2 L625.28,150.64 L625.92,148.08 L625.28,146.48 L625.6,143.92 L625.6,141.04 L625.92,138.8 L625.28,136.24 L625.28,133.36 L625.92,131.12 L625.92,126 L625.6,123.12 L625.92,120.56 L625.6,118 L625.6,115.44 L625.28,112.88 L625.6,110.64 L625.92,107.44 L625.6,104.88 L625.6,102.96 L625.28,100.08 L625.92,97.84 L625.92,92.4 L625.6,90.48 L625.6,87.92 L625.92,84.72 L625.28,82.8 L625.92,80.24 L625.28,77.36 L625.92,74.8 L625.6,72.56 L625.28,69.36 L625.28,67.44 L625.92,64.88 L625.6,62 L625.28,59.76 L625.92,56.56 L625.28,54.64 L625.92,51.44 L625.28,48.88 L627.2,45.04 L628.8,43.44 L630.4,41.2 L632.64,39.92 L634.24,37.36 L636.48,35.76 L638.08,33.84 L640,32.56 L641.92,30.32 L643.2,28.4 L647.68,27.12 L650.88,26.48 L653.12,26.48 L655.68,26.8 L657.92,27.12 L660.48,26.48 L666.24,26.48 L668.8,26.8 L671.04,26.48 L673.6,27.12 L676.16,26.48 L678.4,26.8 L681.6,27.12 L684.16,26.8 L686.4,27.12 L693.76,27.12 L696.32,26.8 L699.52,26.8 L701.76,27.12 L704.64,26.8 L706.88,27.12 L709.12,26.48 L712.32,26.8 L714.88,26.8 L717.44,27.12 L719.68,26.8 L721.92,26.8 L725.12,27.12 L729.28,28.4 Z M704.32,69.36 L703.36,67.76 L698.88,66.48 L683.2,66.48 L680.64,66.16 L678.4,66.48 L675.84,66.48 L673.28,66.8 L668.48,68.72 L666.24,73.52 L665.92,76.08 L666.24,78.64 L665.92,81.2 L665.92,83.44 L666.56,86 L666.56,88.88 L665.92,91.76 L665.92,94.32 L666.24,96.24 L665.92,98.8 L666.56,101.36 L666.24,104.56 L666.56,107.12 L666.56,109.04 L665.92,114.16 L665.92,122.16 L666.56,124.4 L665.92,126.96 L666.56,129.2 L666.56,132.08 L665.92,134.96 L666.56,137.2 L666.56,139.44 L666.24,142.32 L666.24,147.12 L666.56,149.68 L666.24,152.24 L666.24,160.24 L665.92,162.48 L665.92,165.68 L666.56,167.6 L666.56,170.48 L666.24,173.36 L665.92,175.28 L665.92,180.4 L666.56,182.64 L666.56,185.52 L665.92,188.08 L666.24,190.64 L666.56,192.88 L665.92,195.76 L665.92,201.2 L666.24,203.76 L666.56,206 L666.56,208.56 L665.92,213.68 L666.56,215.92 L666.24,218.8 L666.56,221.68 L666.24,223.92 L668.8,229.04 L673.28,231.28 L678.4,230.64 L680.96,231.28 L683.84,230.64 L686.08,230.96 L688.96,230.64 L691.2,230.96 L693.44,230.96 L696,230.64 L698.56,230.64 L702.72,229.04 L704.64,228.08 L705.92,223.6 L706.24,221.68 L706.56,219.12 L705.92,215.92 L705.92,208.88 L706.24,205.68 L706.56,203.76 L705.92,201.2 L705.92,198 L706.24,195.76 L706.24,193.2 L705.92,190.96 L706.56,188.4 L706.24,185.84 L706.24,182.64 L706.56,180.4 L705.92,178.16 L705.92,174.96 L706.56,173.36 L706.24,170.8 L706.56,168.24 L706.56,163.12 L705.92,159.92 L706.24,157.68 L705.92,155.12 L705.92,152.88 L706.56,149.68 L706.56,147.12 L705.92,145.2 L706.56,142.64 L705.92,139.44 L706.56,137.52 L706.24,134.32 L705.92,131.76 L706.56,129.2 L705.92,126.64 L705.92,124.72 L706.56,122.16 L705.92,119.28 L705.92,112.24 L706.56,109.36 L706.56,104.56 L705.92,101.36 L705.92,93.68 L706.24,91.44 L706.56,88.56 L705.92,86 L705.92,83.76 L706.24,81.52 L706.24,78.32 L706.56,76.08 L706.24,73.52 L704.32,69.36 Z M813.76,270.32 L810.88,270.64 L808,270 L805.76,270.32 L803.2,270.64 L800.32,270.64 L798.08,270 L795.2,270.64 L793.28,270.32 L790.72,270.32 L787.84,270.64 L784.96,270 L782.4,270.32 L777.28,270.32 L775.36,268.08 L774.72,264.88 L774.72,260.4 L775.36,257.52 L775.04,255.28 L775.04,252.72 L775.36,249.52 L774.72,246.96 L775.36,244.72 L775.36,239.28 L775.04,236.72 L774.72,234.48 L775.04,231.6 L774.72,229.68 L775.36,226.48 L774.72,224.56 L774.72,221.68 L775.36,219.12 L775.36,216.88 L774.72,214 L775.36,211.12 L775.36,208.88 L775.04,206.64 L775.36,203.44 L774.72,201.52 L775.36,195.76 L774.72,193.2 L775.04,190.96 L775.36,188.08 L775.36,172.72 L775.04,170.8 L774.72,167.6 L775.36,165.36 L775.36,162.8 L775.04,160.56 L774.72,158 L774.72,155.44 L775.04,152.56 L775.36,150 L775.04,147.76 L775.04,144.56 L775.36,142.64 L775.36,132.4 L774.72,129.84 L775.04,126.64 L775.36,124.72 L774.72,122.16 L775.36,119.6 L775.04,116.4 L774.72,114.16 L774.72,111.92 L775.36,106.8 L775.04,103.92 L775.04,101.36 L774.72,99.12 L774.72,95.92 L775.04,93.36 L774.72,91.44 L775.36,88.88 L774.72,86 L774.72,83.44 L775.04,80.56 L775.36,78.32 L775.04,75.44 L775.04,72.88 L775.36,70.32 L775.36,68.4 L774.72,65.52 L774.72,60.08 L775.36,58.16 L775.04,55.28 L775.04,49.84 L774.72,47.92 L775.36,45.36 L774.72,42.16 L775.36,39.6 L774.72,37.36 L775.36,35.12 L774.72,32.24 L774.72,29.68 L777.92,26.8 L780.16,27.12 L782.72,27.44 L785.28,27.12 L787.52,27.44 L790.72,27.12 L792.96,27.44 L795.52,27.12 L798.08,27.12 L800.96,26.8 L803.2,26.8 L805.76,27.44 L808,27.12 L810.88,27.44 L813.76,27.44 L815.68,27.12 L818.56,27.12 L821.12,27.44 L823.36,27.12 L825.92,26.8 L828.48,27.44 L831.36,27.44 L834.24,26.8 L836.8,27.12 L839.04,26.8 L841.92,27.44 L843.84,27.12 L847.04,27.12 L849.28,27.44 L852.16,26.8 L861.76,26.8 L864.96,27.44 L866.88,26.8 L869.44,26.8 L872,27.44 L875.2,27.12 L877.12,27.44 L881.6,28.72 L883.84,30.96 L885.76,32.56 L887.68,33.84 L889.6,36.08 L891.2,37.36 L893.12,39.28 L894.4,41.2 L898.24,45.04 L899.84,49.2 L899.84,52.08 L900.16,54.32 L899.84,57.2 L899.52,59.44 L900.16,62 L899.84,64.24 L899.52,66.8 L900.16,69.68 L899.52,72.56 L899.84,74.48 L900.16,77.36 L900.16,84.72 L899.52,87.28 L899.84,90.16 L900.16,92.4 L900.16,94.96 L899.84,97.84 L900.16,100.4 L900.16,102.64 L899.84,104.56 L899.52,107.44 L899.84,110.32 L900.16,112.88 L899.52,115.12 L899.52,117.68 L900.16,120.56 L899.52,122.8 L900.16,125.04 L899.52,127.92 L899.52,129.84 L900.16,132.72 L900.16,135.28 L899.52,137.84 L899.52,140.72 L900.16,143.28 L899.52,145.52 L900.16,147.76 L900.16,150.96 L898.24,157.68 L894.72,161.2 L890.88,164.4 L889.6,166.32 L887.68,167.92 L885.12,170.16 L883.52,171.76 L881.6,174 L880.64,177.84 L881.28,180.72 L881.92,182.64 L882.56,185.52 L883.2,187.44 L882.88,190.64 L883.52,193.2 L884.8,195.76 L884.48,198 L885.12,199.92 L886.4,205.68 L887.04,207.6 L887.36,210.16 L888,212.72 L888.32,215.6 L888.64,217.84 L889.92,220.08 L890.24,222.32 L890.56,225.2 L890.88,227.76 L891.52,230 L892.48,232.56 L892.48,235.12 L893.12,237.68 L893.44,239.92 L894.72,243.12 L894.72,245.36 L895.04,247.6 L895.36,250.48 L896.64,252.4 L896.64,255.6 L896.96,257.52 L897.6,260.08 L898.56,262.96 L898.56,264.88 L899.84,267.76 L897.28,269.68 L895.36,270.32 L875.2,270.32 L872.96,269.68 L869.76,269.68 L867.2,270 L864.96,270 L862.08,270.32 L859.84,267.76 L858.88,264.88 L858.56,262.32 L857.92,260.4 L857.6,257.52 L857.28,255.28 L856,252.4 L856,250.48 L855.68,247.92 L854.4,245.36 L854.4,242.48 L854.08,239.92 L853.44,238 L852.8,234.8 L851.84,233.2 L851.2,228.08 L850.24,225.2 L849.92,222.64 L849.92,220.08 L848.96,218.16 L848.96,215.28 L848.32,212.4 L847.68,210.8 L847.36,208.24 L846.08,205.68 L845.44,203.12 L845.76,199.92 L845.12,198 L844.48,195.76 L844.16,193.2 L843.52,190.64 L842.88,187.44 L842.24,185.52 L841.6,182.64 L841.6,180.4 L840.32,177.84 L837.44,175.28 L834.88,174.96 L833.28,175.28 L830.08,175.28 L827.84,175.6 L825.28,175.28 L823.36,175.6 L820.8,174.96 L817.92,175.6 L816,177.84 L815.68,180.4 L816.32,182.96 L816,185.2 L815.68,188.4 L816,190.64 L816,193.2 L815.68,196.08 L816,198.32 L815.68,200.88 L815.68,203.44 L816,205.68 L816.32,208.88 L816,210.8 L816,223.6 L816.32,226.8 L816.32,229.04 L816,231.28 L816.32,233.84 L815.68,236.72 L815.68,239.6 L816.32,242.16 L815.68,244.08 L816.32,246.96 L815.68,249.2 L816,251.76 L816,256.88 L816.32,259.76 L815.68,262.64 L816,264.56 L815.68,267.44 L813.76,270.32 Z M818.88,136.56 L821.44,135.92 L823.36,135.6 L826.24,135.92 L828.48,136.24 L831.68,135.92 L833.92,136.24 L836.48,135.6 L839.04,135.92 L842.24,135.6 L844.48,135.92 L849.6,135.92 L851.84,135.6 L856.32,134.64 L857.6,132.4 L859.2,128.56 L858.88,126.64 L858.88,120.88 L859.52,118.96 L859.52,113.52 L859.2,111.28 L859.2,106.48 L859.52,103.28 L859.52,101.04 L859.2,98.8 L859.52,96.24 L858.88,93.68 L859.2,91.44 L859.52,88.24 L858.88,86.64 L858.88,76.08 L859.52,73.84 L856.96,69.36 L851.84,66.8 L849.92,66.48 L846.72,66.8 L844.48,66.8 L841.6,66.48 L839.04,66.48 L837.12,67.12 L834.24,67.12 L831.04,66.48 L829.12,66.8 L826.56,67.12 L824,66.48 L821.12,67.12 L818.56,66.8 L815.68,69.68 L816.32,71.92 L816.32,77.36 L815.68,79.92 L816,81.84 L816,87.28 L816.32,89.52 L815.68,92.08 L816.32,95.28 L816,97.84 L815.68,99.76 L815.68,102.32 L816,105.52 L816,110.64 L816.32,112.88 L816.32,115.12 L816,117.68 L816.32,120.88 L816,123.44 L816,128.56 L815.68,130.48 L816.32,133.04 L818.88,136.56 Z M928.32,26.48 L931.2,26.8 L933.44,27.44 L936.32,27.44 L938.24,26.8 L941.44,27.44 L943.36,27.12 L946.56,26.8 L948.8,27.44 L951.68,26.8 L956.8,27.44 L958.72,27.44 L961.92,26.8 L964.16,27.12 L967.04,26.8 L968.96,27.12 L971.52,26.8 L974.72,26.8 L977.28,27.12 L980.16,27.44 L982.72,26.8 L1002.56,26.8 L1005.44,27.12 L1007.68,27.44 L1010.88,27.12 L1020.48,27.12 L1023.36,26.8 L1026.24,26.8 L1030.08,28.72 L1032,30.32 L1033.92,32.24 L1035.84,33.84 L1037.44,36.4 L1039.36,37.68 L1041.28,39.92 L1042.88,41.2 L1047.04,45.36 L1048.32,49.52 L1048,51.44 L1048,59.76 L1048.32,61.68 L1048.32,72.56 L1048.64,74.48 L1048,77.36 L1048,79.92 L1048.64,82.16 L1048.32,85.36 L1048,87.28 L1048.64,90.16 L1048.64,92.72 L1048,94.96 L1048.64,97.52 L1048,102.96 L1048.32,105.52 L1048.32,107.76 L1048.64,110.32 L1048.64,113.2 L1048,115.44 L1048.64,118.32 L1048.32,120.88 L1048.64,122.8 L1048,125.36 L1048.32,128.24 L1048,130.48 L1048,133.04 L1048.32,135.6 L1048.32,138.48 L1048,141.04 L1048.32,143.92 L1048.32,146.48 L1048.64,148.72 L1048.64,150.96 L1048.32,153.52 L1048.32,158.32 L1048.64,161.52 L1048.32,164.08 L1048,166 L1048.64,168.88 L1048.32,171.44 L1048,174.32 L1048.32,176.24 L1048.64,178.8 L1048.32,182 L1048,183.92 L1048.64,187.12 L1048.32,189.36 L1048.64,191.6 L1048,194.16 L1048.64,197.04 L1048.32,199.92 L1048.64,201.84 L1048,204.4 L1048,206.64 L1048.32,209.2 L1048.32,212.4 L1048.64,214.32 L1048.32,217.52 L1048,220.08 L1048.64,222.32 L1048,224.56 L1048.32,227.12 L1048.32,229.68 L1048.64,232.56 L1048.32,235.12 L1048.32,243.12 L1048,245.36 L1048.64,247.6 L1046.72,252.4 L1044.8,254 L1037.44,261.36 L1036.16,262.96 L1032.32,266.8 L1030.08,268.08 L1025.92,270.32 L1023.36,270.64 L1021.12,270.64 L1017.92,270.32 L1015.68,269.68 L1013.44,270.64 L1010.24,270.32 L1008.32,269.68 L1003.2,269.68 L1000,270.64 L998.08,269.68 L989.76,269.68 L987.84,270.32 L984.96,270.64 L982.72,270.64 L979.52,269.68 L976.96,269.68 L974.72,270.32 L971.84,269.68 L969.6,270.32 L966.4,270.64 L964.48,270.64 L961.28,270.32 L959.04,269.68 L956.8,269.68 L951.68,270.64 L949.12,270.32 L945.92,269.68 L944,269.68 L941.12,270.64 L930.56,270.64 L928.32,270.32 L926.08,267.76 L925.44,264.88 L926.08,262.32 L926.08,256.88 L925.44,254.64 L925.44,244.4 L926.08,242.16 L925.76,239.28 L926.08,236.72 L926.08,231.92 L925.44,229.04 L926.08,226.8 L926.08,224.24 L925.44,221.68 L925.44,215.92 L925.76,213.36 L926.08,211.12 L925.44,208.56 L925.76,205.68 L925.76,200.88 L926.08,198.32 L925.44,195.44 L925.44,193.52 L926.08,190.64 L925.44,187.76 L925.76,185.52 L925.76,182.96 L925.44,180.72 L925.44,167.92 L926.08,165.36 L925.76,162.8 L925.44,159.6 L925.76,157.36 L925.44,155.12 L925.44,144.56 L926.08,142.32 L926.08,134.64 L925.76,132.08 L925.76,126.32 L926.08,124.08 L925.44,121.84 L925.44,116.4 L926.08,113.52 L926.08,108.72 L925.76,105.84 L925.44,103.92 L925.76,101.04 L925.76,95.6 L926.08,93.04 L925.76,90.48 L926.08,88.24 L925.44,85.68 L926.08,83.44 L925.76,80.56 L925.76,78.32 L925.44,75.76 L925.44,70 L926.08,67.76 L926.08,64.88 L925.76,62.96 L925.44,60.08 L926.08,57.2 L925.44,54.64 L926.08,52.72 L925.44,50.16 L926.08,46.96 L925.76,45.04 L925.44,42.48 L926.08,39.6 L925.44,37.04 L925.76,34.8 L926.08,31.92 L925.76,29.68 L928.32,26.48 Z M969.28,230.64 L971.84,230.96 L974.4,230.96 L977.28,230.32 L979.52,230.96 L982.4,230.64 L984.32,230.32 L987.52,230.96 L989.44,230.64 L992,230.96 L997.12,230.96 L1000,230.32 L1004.16,229.04 L1005.76,227.76 L1007.36,223.28 L1007.04,221.04 L1007.04,217.84 L1006.72,215.92 L1006.72,212.72 L1007.04,210.48 L1007.36,207.92 L1006.72,205.68 L1006.72,202.8 L1007.04,199.92 L1006.72,198 L1006.72,192.56 L1007.36,190 L1007.04,187.12 L1007.36,185.2 L1007.04,182 L1006.72,180.08 L1007.36,177.2 L1007.04,174.32 L1007.04,170.16 L1007.36,167.6 L1007.36,159.28 L1007.04,157.04 L1007.36,154.16 L1007.04,151.92 L1007.04,146.8 L1006.72,143.92 L1006.72,142 L1007.36,139.12 L1006.72,136.56 L1007.36,134.32 L1007.36,131.76 L1007.04,128.88 L1007.04,126.64 L1007.36,123.76 L1007.04,121.84 L1007.36,118.64 L1006.72,116.72 L1007.04,113.52 L1006.72,111.6 L1006.72,106.48 L1007.36,103.28 L1006.72,100.72 L1007.36,98.16 L1007.36,96.24 L1007.04,93.68 L1007.36,90.48 L1007.36,87.92 L1006.72,85.68 L1006.72,82.8 L1007.04,80.56 L1006.72,78 L1007.36,75.76 L1007.36,72.88 L1006.08,68.4 L1003.84,67.44 L1000,65.52 L997.76,65.84 L995.2,65.84 L992.32,65.52 L989.44,65.84 L987.52,65.2 L984.96,65.52 L981.76,65.84 L979.2,65.52 L974.4,65.52 L971.52,65.2 L969.6,65.2 L966.72,68.4 L966.72,73.84 L966.4,76.4 L967.04,78.96 L966.72,80.88 L966.4,83.44 L966.4,94 L967.04,96.56 L966.72,99.44 L967.04,101.36 L966.4,104.56 L966.4,106.8 L966.72,109.68 L967.04,111.92 L966.72,114.8 L967.04,117.04 L966.72,119.92 L967.04,122.16 L966.4,125.36 L966.72,127.28 L967.04,129.84 L966.72,132.72 L967.04,135.6 L966.4,140.72 L966.4,145.84 L966.72,147.76 L967.04,150.64 L966.4,153.52 L967.04,156.08 L966.4,158.64 L966.72,160.56 L967.04,163.44 L967.04,168.24 L966.72,170.8 L967.04,173.68 L967.04,176.24 L966.72,179.44 L966.4,182 L966.72,184.24 L967.04,186.8 L966.4,189.04 L967.04,194.8 L966.4,197.04 L966.4,199.6 L967.04,202.48 L966.4,204.72 L966.72,207.6 L967.04,209.84 L967.04,212.4 L966.4,214.64 L967.04,217.2 L966.72,219.76 L967.04,222.32 L966.72,225.52 L966.72,228.08 L969.28,230.64 Z" id="Sanford-Copy" fill="#494A36"></path>
            <path d="M1204.49219,292.446289 C1188.16073,287.254206 1176.54951,279.088597 1169.6582,267.949219 C1162.76689,256.80984 1159.32129,243.216226 1159.32129,227.167969 L1159.32129,192.475586 C1159.32129,180.014586 1156.44209,170.338576 1150.68359,163.447266 C1144.9251,156.555955 1136.00429,153.110352 1123.9209,153.110352 L1123.9209,143.764648 C1136.00429,143.764648 1144.9251,140.366245 1150.68359,133.569336 C1156.44209,126.772427 1159.32129,117.143617 1159.32129,104.682617 L1159.32129,69.7070312 C1159.32129,53.5643724 1162.76689,39.8527582 1169.6582,28.5717773 C1176.54951,17.2907965 1188.16073,9.05438794 1204.49219,3.86230469 L1206.61621,10.234375 C1193.11679,14.5768446 1183.13398,21.9164522 1176.66748,32.253418 C1170.20098,42.5903837 1166.96777,55.0747966 1166.96777,69.7070312 L1166.96777,104.682617 C1166.96777,116.010799 1164.51337,125.545209 1159.60449,133.286133 C1154.69561,141.027057 1147.19081,146.077462 1137.08984,148.4375 C1147.19081,150.891939 1154.69561,156.036745 1159.60449,163.87207 C1164.51337,171.707396 1166.96777,181.241806 1166.96777,192.475586 L1166.96777,227.167969 C1166.96777,241.705802 1170.29538,253.977815 1176.95068,263.984375 C1183.60599,273.990935 1193.7304,281.306943 1207.32422,285.932617 L1204.49219,292.446289 Z M1337.59766,205.50293 C1332.59438,213.904664 1325.65597,220.583471 1316.78223,225.539551 C1307.90848,230.49563 1297.43007,232.973633 1285.34668,232.973633 C1267.31599,232.973633 1253.22678,226.082426 1243.07861,212.299805 C1232.93045,198.517184 1227.85645,179.825964 1227.85645,156.225586 L1227.85645,153.251953 C1227.85645,128.990764 1232.95405,109.709544 1243.14941,95.4077148 C1253.34478,81.1058855 1267.50479,73.9550781 1285.62988,73.9550781 C1297.71328,73.9550781 1308.09729,76.716281 1316.78223,82.2387695 C1325.46717,87.7612581 1332.40557,95.3368659 1337.59766,104.96582 L1337.59766,16.7480469 L1314.5166,16.7480469 L1314.5166,9.1015625 L1345.24414,9.1015625 L1345.24414,222.353516 L1368.3252,222.353516 L1368.3252,230 L1337.88086,230 L1337.59766,205.50293 Z M1235.78613,156.225586 C1235.78613,177.371525 1239.96334,194.174742 1248.31787,206.635742 C1256.67241,219.096742 1268.96802,225.327148 1285.20508,225.327148 C1298.51569,225.327148 1309.5841,222.306345 1318.41064,216.264648 C1327.23719,210.222952 1333.63279,202.151743 1337.59766,192.050781 L1337.59766,120.258789 C1333.916,109.308213 1327.96879,100.127804 1319.75586,92.7172852 C1311.54293,85.3067663 1300.12052,81.6015625 1285.48828,81.6015625 C1269.25122,81.6015625 1256.90841,88.2331694 1248.45947,101.496582 C1240.01054,114.759995 1235.78613,132.011613 1235.78613,153.251953 L1235.78613,156.225586 Z M1463.90625,232.973633 C1446.44197,232.973633 1431.36155,225.917226 1418.66455,211.804199 C1405.96755,197.691173 1399.61914,180.156355 1399.61914,159.199219 L1399.61914,150.136719 C1399.61914,128.141166 1405.75515,109.945547 1418.02734,95.5493164 C1430.29954,81.1530856 1445.45076,73.9550781 1463.48145,73.9550781 C1480.75692,73.9550781 1494.84614,79.619084 1505.74951,90.9472656 C1516.65289,102.275447 1522.10449,117.473863 1522.10449,136.542969 L1522.10449,148.295898 L1407.26562,148.295898 L1407.26562,159.199219 C1407.26562,177.701915 1412.69363,193.348732 1423.5498,206.140137 C1434.40598,218.931542 1447.85799,225.327148 1463.90625,225.327148 C1475.32883,225.327148 1484.88684,223.769547 1492.58057,220.654297 C1500.27429,217.539047 1506.8587,212.866242 1512.33398,206.635742 L1516.44043,212.583008 C1510.39873,219.285515 1503.05913,224.359521 1494.42139,227.805176 C1485.78365,231.250831 1475.61204,232.973633 1463.90625,232.973633 Z M1463.48145,81.6015625 C1448.2828,81.6015625 1435.63319,87.1475682 1425.53223,98.2397461 C1415.43126,109.331924 1409.72006,123.185138 1408.39844,139.799805 L1408.82324,140.649414 L1514.45801,140.649414 L1514.45801,135.976562 C1514.45801,120.400313 1509.738,107.443899 1500.29785,97.1069336 C1490.8577,86.7699678 1478.58569,81.6015625 1463.48145,81.6015625 Z M1592.48047,84.4335938 L1572.37305,84.4335938 L1616.69434,197.573242 L1623.91602,218.24707 L1624.76562,218.24707 L1632.12891,197.573242 L1676.30859,84.4335938 L1656.20117,84.4335938 L1656.20117,76.7871094 L1701.23047,76.7871094 L1701.23047,84.4335938 L1684.52148,84.4335938 L1627.88086,229.858398 L1628.02246,230 L1620.65918,230 L1564.16016,84.4335938 L1547.45117,84.4335938 L1547.45117,76.7871094 L1592.48047,76.7871094 L1592.48047,84.4335938 Z M1708.87695,285.932617 C1722.37637,281.306943 1732.45358,273.990935 1739.10889,263.984375 C1745.76419,253.977815 1749.0918,241.705802 1749.0918,227.167969 L1749.0918,192.475586 C1749.0918,181.241806 1751.5226,171.707396 1756.38428,163.87207 C1761.24596,156.036745 1768.77436,150.891939 1778.96973,148.4375 C1768.77436,146.077462 1761.24596,141.027057 1756.38428,133.286133 C1751.5226,125.545209 1749.0918,116.010799 1749.0918,104.682617 L1749.0918,69.7070312 C1749.0918,55.0747966 1745.85859,42.5903837 1739.39209,32.253418 C1732.92559,21.9164522 1722.98998,14.5768446 1709.58496,10.234375 L1711.56738,3.86230469 C1727.80444,9.05438794 1739.39206,17.2907965 1746.33057,28.5717773 C1753.26908,39.8527582 1756.73828,53.5643724 1756.73828,69.7070312 L1756.73828,104.682617 C1756.73828,117.143617 1759.61748,126.772427 1765.37598,133.569336 C1771.13447,140.366245 1780.05528,143.764648 1792.13867,143.764648 L1792.13867,153.110352 C1780.05528,153.110352 1771.13447,156.579555 1765.37598,163.518066 C1759.61748,170.456578 1756.73828,180.108988 1756.73828,192.475586 L1756.73828,227.167969 C1756.73828,243.310628 1753.29268,256.927842 1746.40137,268.02002 C1739.51006,279.112197 1727.89884,287.254206 1711.56738,292.446289 L1708.87695,285.932617 Z" id="{dev}-copy" fill="#000000"></path>
        </g>
    </g>
</svg>