<?xml version="1.0" encoding="UTF-8"?>
<svg width="1782px" height="290px" viewBox="0 0 1782 290" version="1.1" xmlns="http://www.w3.org/2000/svg" xmlns:xlink="http://www.w3.org/1999/xlink">
    <!-- Generator: Sketch 49 (51002) - http://www.bohemiancoding.com/sketch -->
    <title>Group</title>
    <desc>Created with Sketch.</desc>
    <defs></defs>
    <g id="Page-1" stroke="none" stroke-width="1" fill="none" fill-rule="evenodd">
        <g id="Group" transform="translate(-1.000000, -3.000000)">
            <path d="M121.84,96.88 L113.84,97.2 L111.28,96.88 L108.08,97.2 L106.16,96.88 L103.6,97.52 L101.04,96.88 L98.16,96.88 L95.92,97.52 L93.04,96.88 L90.8,97.52 L87.6,96.88 L85.68,97.52 L83.12,94.96 L83.12,86.96 L82.8,84.72 L82.8,82.16 L82.48,79.28 L82.8,76.4 L82.48,73.84 L80.88,70 L79.92,68.08 L75.44,66.8 L72.56,66.8 L70.64,66.48 L67.76,66.48 L64.88,66.8 L62.32,66.48 L59.76,67.12 L57.84,66.8 L54.96,66.8 L52.72,67.12 L50.16,66.8 L45.68,68.4 L43.76,70.32 L42.16,73.84 L42.48,76.4 L42.16,78.64 L42.16,86.96 L41.84,89.2 L42.16,91.44 L42.16,94 L42.48,96.88 L42.16,98.8 L42.48,101.36 L42.48,106.48 L42.16,109.68 L41.84,111.6 L41.84,114.8 L42.16,117.36 L42.16,119.92 L43.76,123.76 L45.68,125.68 L52.4,127.28 L54.64,127.28 L57.84,126.96 L60.4,126.64 L62.64,127.28 L64.88,126.64 L67.44,126.96 L70.64,126.64 L73.2,127.28 L75.76,127.28 L78.32,126.64 L80.88,126.64 L83.12,127.28 L85.68,126.64 L88.24,126.64 L91.44,126.96 L93.36,126.64 L95.92,126.64 L98.8,126.96 L101.04,127.28 L105.84,128.24 L108.08,130.48 L109.68,131.76 L110.96,133.68 L113.52,135.6 L114.48,137.2 L116.72,139.76 L118.96,141.36 L120.24,143.28 L122.16,144.56 L123.44,149.36 L124.08,151.92 L123.76,154.16 L123.76,159.28 L123.44,161.84 L123.44,164.4 L124.08,167.28 L123.44,169.2 L123.76,171.76 L123.76,174.32 L123.44,176.88 L123.44,179.76 L123.76,181.68 L123.76,189.36 L124.08,191.92 L123.76,194.48 L123.76,197.04 L123.44,199.28 L124.08,201.84 L123.44,205.04 L123.76,207.28 L123.44,209.84 L123.44,212.08 L123.76,214.96 L123.76,217.84 L123.44,220.08 L123.44,222.32 L124.08,224.88 L124.08,227.44 L123.44,230 L123.76,232.24 L124.08,235.44 L123.44,237.68 L124.08,239.92 L123.76,243.12 L123.44,245.36 L123.44,247.6 L122.48,251.76 L120.56,254.32 L118.96,255.28 L111.28,262.96 L109.36,264.56 L107.44,266.48 L105.52,268.72 L101.36,270 L98.8,269.68 L95.92,270.32 L91.44,269.68 L88.88,270.32 L78.64,270.32 L76.08,270 L73.2,269.68 L70.96,270 L65.52,270 L62.32,270.32 L60.08,270.32 L57.84,269.68 L54.96,269.68 L52.08,270.32 L50.16,269.68 L47.28,270 L45.04,269.68 L41.84,270.32 L36.72,269.68 L34.16,270.32 L31.6,269.68 L29.36,270.32 L26.8,269.68 L24.24,270.32 L19.76,268.08 L17.52,266.48 L16.56,264.88 L14.64,262.64 L12.08,261.04 L10.8,259.76 L9.2,257.84 L7.28,255.6 L3.76,252.08 L1.52,247.6 L1.84,245.04 L1.84,243.12 L1.52,240.56 L2.16,237.68 L2.16,235.44 L1.84,232.56 L1.84,227.76 L2.16,224.88 L1.84,222.96 L2.16,219.76 L1.52,215.28 L1.84,212.72 L1.52,209.84 L1.84,207.28 L1.52,205.04 L1.52,202.16 L4.08,199.6 L6.96,199.6 L8.88,199.92 L11.76,199.6 L14.32,199.92 L16.56,199.92 L19.76,199.6 L21.68,199.6 L24.56,199.92 L27.12,200.24 L29.36,199.6 L32.24,199.92 L35.12,199.6 L37.04,200.24 L39.6,200.24 L42.16,203.12 L42.8,205.04 L42.8,207.6 L42.16,210.48 L42.16,215.28 L42.48,218.48 L42.16,220.72 L42.16,222.96 L43.76,227.44 L45.36,228.72 L49.84,230.96 L52.72,230.96 L54.64,230.32 L57.84,230.96 L65.2,230.96 L67.44,230.32 L70.32,230.64 L72.56,230.32 L75.12,230.32 L79.6,229.36 L81.84,227.44 L82.8,223.92 L83.44,220.72 L82.8,218.8 L83.44,215.6 L83.44,210.8 L82.8,208.56 L83.12,205.68 L83.44,203.76 L82.8,200.88 L83.12,198.64 L83.12,191.28 L82.8,188.72 L83.44,185.52 L83.44,183.92 L82.8,181.36 L83.44,178.48 L83.12,176.24 L83.44,173.68 L81.84,169.52 L80.24,167.28 L75.76,165.68 L72.56,166 L70.64,165.68 L67.76,165.68 L64.88,166 L62.96,166 L59.76,166.32 L57.2,166.32 L55.28,165.68 L52.72,166.32 L50.16,166.32 L47.28,165.68 L44.4,166.32 L41.84,165.68 L39.92,165.68 L37.36,166.32 L34.8,166.32 L32.24,166 L29.36,166.32 L27.12,166.32 L24.24,165.68 L20.08,164.72 L17.52,162.8 L16.56,161.2 L14,158.64 L12.72,156.72 L8.56,153.84 L7.28,151.92 L5.04,150.32 L3.44,148.4 L1.84,144.24 L1.84,138.8 L2.16,136.24 L2.16,131.44 L1.84,128.24 L2.16,126 L1.52,123.44 L1.84,120.56 L1.52,118.64 L2.16,113.52 L1.84,110.32 L2.16,107.76 L1.84,105.2 L2.16,102.96 L2.16,98.16 L1.52,95.28 L2.16,93.04 L2.16,90.48 L1.52,84.72 L2.16,80.24 L2.16,77.68 L1.84,74.48 L1.84,72.56 L1.52,69.68 L2.16,67.44 L1.84,64.56 L2.16,61.68 L1.52,59.76 L2.16,56.88 L1.52,54.64 L1.84,51.44 L1.84,49.52 L3.12,44.72 L5.68,42.8 L7.28,41.52 L8.88,39.28 L11.12,37.36 L12.72,35.76 L14.64,34.16 L16.24,31.92 L17.84,30.32 L20.08,29.04 L24.24,27.44 L26.8,27.44 L29.36,27.12 L31.92,27.44 L34.8,27.12 L36.72,27.44 L39.92,26.8 L42.48,27.12 L44.4,27.44 L46.96,27.12 L49.52,27.12 L52.72,27.44 L54.64,26.8 L57.2,27.44 L62.96,26.8 L65.52,26.8 L67.76,27.44 L70.64,26.8 L73.2,27.44 L75.76,26.8 L78.64,27.44 L80.88,27.12 L83.76,27.44 L85.68,27.12 L88.56,26.8 L90.8,27.44 L93.68,27.12 L96.24,26.8 L98.8,27.12 L101.04,26.8 L105.84,28.72 L107.76,30.32 L109.04,31.92 L111.28,34.16 L112.88,36.4 L114.8,37.36 L116.72,39.92 L118.96,41.2 L120.56,43.44 L122.48,45.36 L124.08,48.88 L124.08,51.76 L124.4,54.64 L123.76,56.56 L123.76,59.12 L124.08,62 L124.08,63.92 L124.4,67.12 L124.08,69.36 L124.4,71.6 L123.76,77.36 L124.4,79.92 L123.76,81.52 L124.08,84.72 L123.76,86.96 L123.76,89.84 L124.4,91.76 L124.08,94.96 L121.84,96.88 Z M293.36,265.52 L293.68,267.44 L291.44,270.64 L288.88,270 L286.32,270.64 L284.08,270.32 L281.84,270.32 L278.64,270 L276.72,270.64 L270.96,270.64 L268.08,270 L265.52,270.64 L260.4,270 L258.48,270.32 L255.28,270 L252.08,267.76 L251.76,265.52 L251.44,262.96 L251.12,260.08 L250.16,257.52 L249.52,255.28 L249.52,252.08 L249.2,250.48 L247.92,247.6 L247.28,242.48 L246.64,239.6 L245.68,237.36 L245.36,234.48 L245.04,232.24 L244.72,230.32 L244.08,227.76 L243.12,224.56 L242.8,222.64 L242.48,219.44 L241.52,217.84 L238.96,217.52 L236.72,217.84 L228.4,217.84 L226.48,218.16 L223.6,217.84 L221.36,218.16 L218.16,217.52 L215.92,218.16 L210.8,217.52 L208.24,218.16 L205.36,217.84 L200.88,217.84 L198,217.52 L195.76,218.16 L192.88,217.84 L191.92,217.84 L191.28,219.44 L190.96,222.64 L190.96,224.88 L190.32,227.44 L189.04,229.68 L189.36,232.24 L188.72,235.12 L188.08,237.68 L187.12,239.92 L186.48,242.16 L186.8,244.72 L185.84,247.92 L185.52,250.48 L184.88,252.08 L183.92,255.28 L184.24,257.52 L182.64,262.32 L182.32,264.88 L181.36,267.76 L178.8,270 L173.04,270.64 L171.12,270.32 L168.56,270.64 L166,270 L162.8,270.32 L157.68,270.32 L155.44,270.64 L152.88,270 L150,270 L147.44,270.64 L142.32,270.64 L140.08,267.76 L140.72,265.2 L141.04,262.32 L142,260.08 L142.32,257.52 L143.28,255.6 L143.28,253.04 L143.92,250.16 L144.88,247.6 L146.16,243.12 L146.48,240.24 L147.12,238.32 L147.76,235.12 L148.4,233.2 L148.72,230.64 L150,228.08 L150,225.52 L150.64,223.28 L150.96,220.72 L151.6,217.84 L152.24,215.92 L153.52,212.72 L153.84,210.48 L153.84,208.24 L154.48,205.36 L155.76,202.8 L156.08,200.56 L156.4,198 L157.68,196.08 L158,193.52 L158,190.32 L159.92,185.52 L159.92,182.96 L160.88,181.04 L160.88,178.16 L161.84,175.92 L162.16,173.68 L162.8,170.8 L163.76,168.88 L164.4,166 L164.4,163.12 L165.68,160.56 L166,158.96 L166.96,156.4 L167.6,153.84 L167.92,151.28 L168.56,148.4 L169.84,143.28 L170.16,141.36 L170.48,139.12 L171.76,135.92 L171.76,133.36 L172.4,131.12 L173.04,128.56 L173.36,126.32 L174.32,124.08 L174.64,121.2 L175.28,118.32 L175.92,116.4 L176.24,113.52 L177.52,110.96 L177.52,108.4 L178.16,106.16 L179.12,103.6 L179.76,101.36 L179.76,98.8 L180.4,96.88 L181.68,93.68 L182,91.76 L182.64,88.88 L183.28,86.64 L183.92,84.08 L183.92,81.84 L185.84,76.4 L186.16,74.48 L186.48,71.28 L186.8,69.36 L187.76,66.48 L188.08,64.56 L188.72,61.36 L189.68,59.44 L189.68,56.56 L190.64,54.64 L191.28,52.08 L191.92,48.88 L192.88,46.96 L193.52,44.4 L193.52,41.84 L193.84,39.6 L194.8,37.04 L195.76,34.8 L196.4,31.92 L196.72,29.04 L199.92,26.8 L201.84,27.44 L205.04,27.12 L206.64,27.44 L209.52,26.8 L212.4,27.44 L214.32,27.44 L216.88,26.8 L219.76,27.12 L221.68,27.44 L224.88,27.12 L227.12,27.44 L229.04,27.44 L232.24,26.8 L234.16,26.8 L237.36,29.36 L237.68,31.92 L238.32,34.16 L239.28,36.72 L239.6,38.96 L239.92,41.84 L240.56,44.08 L241.84,46.96 L241.84,49.2 L242.8,52.08 L243.76,54 L244.4,56.88 L244.08,59.12 L245.36,62 L245.36,64.24 L246.64,68.72 L247.28,71.92 L247.92,74.48 L248.56,76.4 L249.2,78.96 L250.16,81.52 L250.16,83.76 L251.12,86.64 L251.12,89.2 L251.76,91.12 L252.72,94.32 L253.68,96.56 L254.32,98.8 L254.64,101.68 L254.96,104.24 L255.92,106.16 L256.24,108.4 L256.88,111.6 L257.52,114.16 L257.84,116.4 L258.48,118.96 L258.8,121.52 L259.44,123.44 L260.72,126 L261.04,128.88 L261.68,131.12 L261.68,133.36 L262.32,136.56 L263.6,138.48 L263.6,141.04 L264.24,143.92 L264.88,146.48 L265.84,149.04 L266.48,150.64 L266.48,153.2 L267.12,156.4 L268.4,160.88 L268.72,163.76 L269.68,166 L270.64,168.56 L271.28,170.48 L271.6,173.36 L271.92,175.92 L272.56,178.48 L273.52,181.04 L274.16,186.16 L275.44,188.08 L276.08,190.32 L276.08,192.88 L276.72,195.44 L277.04,198.64 L277.68,200.88 L279.6,205.36 L279.6,208.24 L279.92,210.8 L281.2,215.92 L282.48,217.84 L283.12,220.4 L283.44,222.96 L283.44,225.84 L284.72,227.76 L285.04,230 L285.68,233.2 L287.28,238 L287.28,240.24 L287.6,243.12 L288.56,245.04 L289.2,248.24 L289.84,249.84 L290.16,253.04 L291.12,255.28 L291.12,257.84 L291.76,260.08 L292.72,262.64 L293.36,265.52 Z M228.72,178.8 L230.96,178.16 L233.52,178.16 L233.2,177.2 L233.2,174 L232.24,171.76 L232.24,169.84 L231.92,166.64 L230.32,161.52 L229.68,159.6 L229.36,156.4 L228.72,154.16 L228.4,151.6 L228.4,149.68 L227.44,146.48 L226.8,144.24 L225.84,139.12 L224.88,136.88 L224.56,134.64 L223.92,128.88 L223.28,126.64 L222.96,123.76 L222.32,121.52 L221.68,118.64 L220.72,116.08 L220.72,114.48 L220.08,111.6 L219.76,109.04 L219.44,106.16 L218.8,104.24 L218.48,101.36 L217.84,98.8 L216.88,99.12 L215.92,101.68 L215.6,103.92 L215.28,106.48 L214,109.36 L213.68,111.28 L213.68,114.48 L213.04,116.08 L212.72,119.28 L211.44,121.52 L211.44,124.08 L211.12,126.96 L210.48,129.52 L210.16,131.44 L208.88,136.88 L207.6,142 L207.6,144.24 L206.32,146.48 L205.36,151.6 L205.36,154.8 L204.08,157.04 L204.4,158.96 L203.12,164.72 L202.48,166.64 L201.52,169.2 L201.84,172.08 L200.88,174.64 L200.24,178.48 L200.88,178.8 L203.44,178.48 L205.36,178.8 L208.24,178.16 L210.8,178.48 L213.36,178.16 L215.92,178.16 L218.16,178.8 L220.72,178.8 L223.28,178.48 L225.84,178.48 L228.72,178.8 Z M350.32,270.32 L348.08,270.32 L345.52,270 L342.96,270.64 L340.72,270.64 L337.84,270.32 L335.6,270 L333.04,270 L329.84,270.64 L327.92,270 L325.36,270 L322.8,270.32 L320.24,270 L317.68,270.64 L315.12,270.64 L311.92,267.44 L312.56,265.2 L311.92,262.64 L312.56,260.08 L312.24,257.52 L312.56,255.28 L312.24,252.4 L312.24,246.96 L311.92,245.04 L312.56,242.48 L312.56,239.92 L311.92,237.04 L312.56,234.16 L311.92,229.68 L311.92,223.92 L312.56,221.68 L312.56,218.8 L312.24,216.24 L312.56,214 L312.56,211.12 L312.24,209.2 L311.92,206.64 L311.92,203.44 L312.56,201.52 L312.24,198.32 L312.56,196.4 L312.24,193.2 L311.92,190.64 L312.24,188.72 L312.56,185.84 L312.56,183.6 L311.92,178.48 L312.24,175.6 L312.24,173.36 L311.92,170.16 L312.24,167.92 L311.92,165.04 L312.24,163.12 L311.92,160.24 L312.24,157.36 L312.24,152.56 L311.92,150.32 L312.24,147.76 L312.56,144.56 L311.92,139.44 L311.92,129.2 L312.24,127.28 L311.92,124.08 L312.56,121.84 L311.92,118.96 L312.24,117.04 L311.92,114.48 L312.24,111.92 L311.92,109.36 L312.56,106.16 L311.92,104.24 L312.24,101.04 L311.92,98.8 L312.24,96.56 L312.24,93.68 L311.92,90.8 L312.56,88.88 L312.56,85.68 L312.24,83.12 L312.24,81.2 L312.56,78 L312.24,75.76 L312.56,72.88 L312.56,67.76 L312.24,65.84 L312.56,62.96 L311.92,60.72 L312.56,57.84 L311.92,55.28 L312.56,53.04 L311.92,50.48 L312.24,47.92 L312.24,45.04 L311.92,42.8 L312.24,40.24 L311.92,37.04 L312.56,35.12 L312.24,31.92 L312.24,29.36 L314.8,27.12 L317.36,27.44 L320.24,26.8 L322.48,26.8 L325.68,27.12 L327.92,26.8 L330.8,27.12 L333.04,26.8 L335.28,27.12 L338.16,27.44 L340.72,27.44 L342.96,27.12 L345.52,27.44 L348.4,26.8 L350.96,27.44 L353.84,27.44 L357.04,29.04 L359.6,36.72 L360.88,39.28 L362.16,43.76 L363.12,46.64 L363.76,48.88 L365.04,50.8 L366,53.68 L366.32,55.92 L367.6,58.48 L367.92,60.72 L368.88,62.64 L369.52,65.52 L371.12,68.08 L371.12,70.64 L372.08,72.56 L373.04,75.44 L374.32,77.36 L374.96,79.6 L376.88,84.72 L377.2,86.64 L378.8,89.52 L378.8,91.44 L380.4,94.64 L381.04,96.88 L381.36,99.12 L382.96,101.68 L383.92,104.24 L384.24,106.8 L385.2,109.04 L385.84,111.28 L386.48,113.2 L387.76,116.4 L388.72,118 L389.36,121.2 L390,123.12 L390.96,125.36 L391.6,127.92 L392.88,130.16 L393.52,132.72 L394.48,135.6 L395.76,137.2 L396.4,139.76 L397.04,142 L397.68,144.56 L398.96,147.44 L400.56,151.6 L401.2,154.8 L402.48,157.04 L402.8,159.28 L404.4,161.2 L405.04,164.08 L406,166.32 L406.64,168.56 L407.28,171.44 L407.92,173.36 L408.56,173.68 L409.2,171.12 L408.88,168.56 L409.2,166 L408.56,163.44 L408.88,160.88 L408.56,158 L409.2,155.12 L408.88,153.2 L409.2,150 L408.88,147.44 L409.2,144.88 L408.88,142.64 L409.2,140.4 L408.88,137.52 L409.2,134.96 L409.2,132.08 L408.56,129.52 L409.2,127.28 L408.88,124.72 L409.2,122.48 L408.88,119.28 L408.56,117.36 L408.56,111.6 L409.2,109.04 L409.2,103.92 L408.88,102 L408.56,98.48 L409.2,96.24 L408.88,94 L408.88,91.44 L409.2,88.56 L408.88,85.68 L408.88,78.32 L409.2,76.08 L409.2,70.96 L408.56,67.76 L408.56,62.96 L409.2,60.08 L409.2,54.96 L408.56,53.04 L409.2,49.84 L408.56,47.28 L408.88,45.04 L409.2,42.16 L408.88,40.24 L408.88,37.36 L408.56,34.48 L409.2,32.24 L409.2,30 L411.76,27.12 L414,27.44 L416.24,27.12 L419.44,26.8 L423.92,26.8 L426.8,27.44 L429.36,27.44 L431.92,26.8 L434.16,27.12 L436.72,27.12 L439.28,26.8 L442.48,27.44 L447.28,27.44 L449.2,29.68 L449.84,32.56 L449.52,34.8 L449.52,37.68 L449.84,39.92 L449.2,42.16 L449.84,44.72 L449.52,47.28 L449.84,50.48 L449.84,53.04 L449.2,54.96 L449.2,58.16 L449.84,60.72 L449.52,62.96 L449.2,65.84 L449.2,68.4 L449.84,70.64 L449.52,73.2 L449.52,75.44 L449.2,78 L449.84,80.56 L449.2,83.44 L449.52,86 L449.2,88.56 L449.84,90.8 L449.84,93.36 L449.2,95.92 L449.52,98.8 L449.52,101.04 L449.84,103.92 L449.52,106.48 L449.52,108.72 L449.84,111.28 L449.52,113.84 L449.84,116.4 L449.52,119.28 L449.84,121.52 L449.52,124.4 L449.84,126.96 L449.2,129.52 L449.52,131.76 L449.2,134.96 L449.2,137.2 L449.84,140.08 L449.84,147.44 L449.2,149.68 L449.84,152.24 L449.84,157.68 L449.2,159.92 L449.84,163.12 L449.52,165.04 L449.84,167.92 L449.52,170.16 L449.84,173.36 L449.84,175.92 L449.2,178.16 L449.52,180.72 L449.84,183.6 L449.2,186.16 L449.52,188.08 L449.84,190.96 L449.84,193.52 L449.2,196.4 L449.84,198.64 L449.2,201.2 L449.2,206 L449.84,208.56 L449.52,211.44 L449.52,214.32 L449.2,216.24 L449.52,219.44 L449.84,222 L449.52,224.56 L449.84,226.48 L449.52,229.68 L449.2,231.92 L449.52,234.8 L449.2,236.72 L449.2,239.6 L449.84,242.48 L449.2,245.04 L449.52,247.28 L449.52,250.16 L449.2,252.72 L449.52,254.96 L449.84,257.52 L449.84,260.4 L449.2,262.96 L449.84,265.52 L449.84,268.08 L446.64,270.64 L444.08,270.64 L439.6,270 L437.04,270 L434.48,270.64 L431.92,270 L428.72,270.64 L426.8,270.64 L424.24,270 L421.36,270.64 L419.12,270.32 L415.92,270 L414,270.64 L411.12,270 L408.24,270.32 L405.36,267.76 L404.4,264.88 L402.8,262.96 L402.16,260.4 L401.2,257.84 L401.2,255.6 L399.92,253.04 L398.96,250.8 L398.64,248.56 L397.36,246.32 L396.4,243.44 L395.76,240.88 L394.8,239.28 L393.84,236.72 L393.52,234.48 L392.24,231.28 L391.6,229.04 L390.32,226.8 L389.68,224.24 L388.4,222 L387.76,219.76 L387.12,217.2 L385.84,214.96 L385.2,212.4 L384.56,210.48 L383.28,207.6 L382.96,205.04 L382,203.12 L381.36,200.24 L380.72,197.68 L379.12,196.08 L378.48,192.88 L377.52,190.32 L377.2,188.4 L375.6,186.16 L374.96,183.28 L374,181.36 L373.36,178.48 L373.04,175.92 L371.44,174 L370.48,171.44 L370.16,169.2 L369.2,166.96 L367.92,164.08 L367.6,161.52 L366.32,159.28 L365.68,157.36 L364.72,155.12 L363.76,152.56 L363.44,149.68 L362.48,147.76 L361.84,145.52 L360.24,142.64 L359.92,140.08 L358.64,138.16 L358.32,135.92 L357.04,132.72 L356.72,130.48 L355.12,128.56 L355.12,126 L354.16,123.44 L353.52,123.44 L352.88,126.32 L352.88,131.76 L353.52,133.68 L353.52,136.88 L353.2,139.44 L353.2,141.36 L352.88,144.56 L352.88,149.04 L353.2,152.24 L353.2,154.16 L353.52,156.72 L353.2,159.6 L353.52,162.48 L352.88,164.72 L352.88,166.96 L353.52,170.16 L352.88,172.08 L353.2,174.64 L353.2,180.4 L352.88,182.96 L352.88,185.52 L353.2,187.44 L353.2,190.64 L352.88,192.56 L352.88,195.44 L353.2,198.64 L353.52,200.56 L352.88,203.12 L353.52,206.32 L352.88,208.24 L353.2,210.8 L352.88,213.36 L352.88,216.24 L353.52,218.8 L353.2,221.36 L353.52,224.24 L352.88,226.16 L353.2,229.04 L353.2,233.84 L352.88,236.4 L353.2,239.6 L352.88,241.52 L353.52,244.4 L353.2,246.64 L352.88,249.84 L353.52,251.76 L352.88,254.32 L353.2,256.88 L353.2,259.76 L353.52,262.32 L353.2,265.2 L353.52,267.12 L350.32,270.32 Z M479.92,26.48 L483.12,27.12 L485.68,26.8 L488.24,27.12 L490.48,26.8 L493.36,26.48 L495.6,26.8 L498.48,26.8 L500.4,27.12 L503.28,26.48 L508.4,27.12 L510.32,27.12 L513.2,26.48 L515.44,27.12 L518.64,26.48 L523.76,26.48 L526,27.12 L528.56,26.8 L531.12,27.12 L533.68,27.12 L535.92,26.48 L538.48,26.48 L540.72,26.8 L543.92,27.12 L546.48,26.8 L548.72,26.48 L551.28,27.12 L553.52,26.48 L556.08,26.8 L558.96,26.48 L561.2,27.12 L566,27.12 L568.88,26.8 L579.44,26.8 L581.36,26.48 L583.92,27.12 L586.48,26.48 L589.68,26.8 L591.92,26.48 L594.8,29.36 L594.48,31.92 L594.48,34.8 L594.16,37.68 L594.48,39.6 L594.48,42.8 L594.16,45.04 L594.16,47.92 L594.8,50.48 L594.16,52.72 L594.8,55.92 L594.48,58.48 L594.48,61.04 L594.8,63.92 L592.24,66.16 L589.36,66.48 L586.8,66.8 L583.92,66.8 L582,66.16 L579.12,66.48 L576.24,66.48 L574,66.16 L571.76,66.8 L569.2,66.48 L566.96,66.16 L564.4,66.8 L561.2,66.8 L558.96,66.48 L556.08,66.48 L553.52,66.8 L550.96,66.48 L546.16,66.48 L543.92,66.16 L541.04,66.16 L538.48,66.8 L535.92,66.16 L534,66.8 L531.12,66.48 L528.88,66.8 L525.68,66.16 L523.12,66.48 L521.2,66.8 L518.64,69.36 L518.32,71.28 L518.64,73.84 L518.64,76.72 L518.32,78.96 L518.96,84.72 L518.96,87.6 L518.32,89.52 L518.32,92.08 L518.96,94.96 L518.96,97.52 L518.32,100.4 L518.64,102.96 L518.64,104.88 L518.96,108.4 L518.96,110.64 L518.32,113.2 L518.64,115.44 L518.64,123.76 L518.32,125.68 L520.56,129.2 L523.76,128.88 L526,128.56 L528.24,129.2 L531.44,128.88 L533.36,128.88 L535.92,129.2 L538.48,129.2 L541.04,128.88 L544.24,129.2 L546.16,128.56 L549.04,128.56 L551.28,129.2 L554.48,128.88 L561.52,128.88 L564.4,129.2 L566.96,128.56 L569.52,128.56 L572.08,128.88 L574.32,131.12 L574.64,134 L574.32,136.24 L574.96,139.12 L574.32,142.32 L574.64,144.88 L574.32,147.44 L574.96,149.68 L574.32,152.56 L574.32,157.68 L574.96,160.56 L574.32,162.48 L574.64,165.04 L572.08,168.24 L569.52,167.6 L566.64,167.6 L564.08,168.24 L562.16,168.24 L558.96,167.92 L557.04,168.24 L553.84,168.24 L548.72,167.6 L546.8,167.92 L543.92,168.24 L541.68,168.24 L538.48,167.6 L536.24,167.6 L534,167.92 L531.12,168.24 L528.56,167.6 L525.68,167.6 L523.76,168.24 L521.2,167.6 L518.96,170.8 L518.96,172.72 L518.64,175.92 L518.32,178.16 L518.96,180.4 L518.32,183.6 L518.96,185.52 L518.64,188.08 L518.96,190.64 L518.96,196.4 L518.64,198.64 L518.32,201.2 L518.64,203.76 L518.96,206.64 L518.32,209.2 L518.32,214.32 L518.64,216.24 L518.64,218.8 L518.32,221.36 L518.64,224.56 L518.32,227.12 L518.96,229.68 L518.32,231.6 L518.32,237.04 L518.96,239.92 L518.32,241.84 L518.96,245.04 L518.96,247.6 L518.64,249.52 L518.64,252.72 L518.32,255.28 L518.96,257.2 L518.32,260.08 L518.96,262.64 L518.64,265.52 L518.32,268.08 L516.08,270.32 L513.84,269.68 L510.96,269.68 L508.08,270.32 L506.16,270.32 L503.28,270.64 L498.16,269.68 L495.92,270.32 L492.72,270.32 L490.16,269.68 L485.04,269.68 L482.48,270.32 L480.24,269.68 L478.32,267.76 L478,264.56 L478,259.44 L477.68,256.88 L477.68,254.96 L478.32,251.76 L478.32,249.2 L478,246.64 L477.68,244.72 L477.68,242.16 L478.32,236.4 L478.32,229.04 L477.68,226.8 L478.32,223.92 L478,221.36 L478,219.12 L478.32,216.24 L478.32,213.68 L478,211.44 L478,203.12 L477.68,200.88 L478.32,198.64 L477.68,195.76 L478,193.52 L477.68,190.64 L478,188.4 L477.68,185.52 L478.32,183.28 L477.68,180.72 L478,177.52 L478.32,174.96 L477.68,173.04 L478.32,170.48 L478.32,167.28 L477.68,165.36 L478,162.8 L478,159.6 L477.68,157.36 L478.32,154.48 L478.32,147.44 L477.68,144.88 L478,142.32 L477.68,139.76 L478,136.88 L477.68,134.32 L478,131.76 L478,128.88 L478.32,126.96 L478.32,124.08 L477.68,121.2 L478,118.64 L477.68,116.08 L478,113.84 L478,111.28 L478.32,108.4 L478.32,98.8 L477.68,95.6 L477.68,90.48 L478,87.92 L478,85.36 L477.68,82.8 L478.32,80.88 L478,77.68 L478,72.88 L477.68,70 L478.32,68.08 L478,64.88 L478.32,62.64 L477.68,60.4 L478.32,57.2 L477.68,55.28 L478,52.08 L478,47.28 L477.68,45.04 L478,41.84 L477.68,39.92 L478,36.72 L478,34.16 L477.68,32.24 L478,29.36 L479.92,26.48 Z M719.28,28.4 L722.16,31.92 L724.72,34.16 L726.64,36.4 L727.92,37.68 L730.16,39.28 L732.08,41.84 L733.36,42.8 L735.28,45.04 L737.2,48.88 L737.2,54.32 L736.56,57.2 L736.88,59.12 L736.88,64.24 L736.56,67.12 L737.2,69.68 L737.2,71.92 L736.88,75.12 L737.2,77.68 L736.88,79.6 L736.88,84.72 L736.56,87.92 L736.56,89.84 L736.88,92.4 L736.88,97.2 L736.56,99.76 L737.2,104.88 L737.2,107.44 L736.88,110.64 L736.88,115.12 L737.2,118.32 L737.2,120.24 L736.88,123.12 L736.88,128.24 L736.56,131.12 L736.56,133.04 L737.2,135.6 L736.56,138.16 L737.2,141.36 L736.56,143.92 L737.2,148.4 L736.88,150.96 L736.88,153.84 L736.56,156.08 L736.56,161.2 L737.2,164.08 L736.56,166.32 L737.2,168.56 L737.2,171.44 L736.88,174 L737.2,176.56 L736.56,179.12 L736.88,182 L736.56,184.24 L737.2,186.48 L737.2,189.04 L736.88,191.6 L736.56,194.48 L736.56,199.6 L737.2,201.84 L736.88,204.72 L737.2,206.64 L737.2,212.08 L736.56,214.32 L737.2,217.2 L737.2,219.76 L736.88,222 L737.2,225.2 L736.56,227.12 L736.88,230.32 L736.56,232.88 L736.56,240.56 L736.88,243.12 L736.56,245.68 L736.56,248.24 L735.28,252.08 L733.68,254.32 L731.76,255.6 L730.16,257.84 L728.24,259.44 L726,261.04 L724.4,262.96 L721.2,266.16 L718.64,268.4 L714.8,270.32 L711.92,270.32 L710,270 L707.44,270 L704.88,270.32 L699.76,269.68 L696.88,269.68 L694.64,270.32 L689.52,270.32 L686.64,269.68 L684.08,269.68 L681.84,270.32 L678.64,270 L676.72,269.68 L673.52,270 L671.6,269.68 L669.04,270 L665.84,270 L663.92,269.68 L658.8,269.68 L655.6,270.32 L653.04,270 L651.12,270 L648.24,270.32 L646,269.68 L642.8,269.68 L640.56,270 L638.32,269.68 L633.84,268.72 L631.6,266.48 L629.68,265.2 L627.76,262.64 L622.32,257.2 L621.04,255.6 L618.8,254 L616.88,252.4 L615.28,247.6 L615.92,245.36 L615.92,243.12 L615.6,240.56 L615.92,237.68 L615.28,232.56 L615.92,229.68 L615.6,227.44 L615.6,225.2 L615.92,222.64 L615.28,219.76 L615.92,217.2 L615.28,214.96 L615.92,212.08 L615.92,209.2 L615.6,206.64 L615.6,204.4 L615.28,202.16 L615.28,199.6 L615.92,197.36 L615.92,194.16 L615.28,191.92 L615.92,189.36 L615.6,187.12 L615.28,183.92 L615.92,181.36 L615.6,178.8 L615.6,174.32 L615.28,171.76 L615.28,169.2 L615.6,166.64 L615.28,163.76 L615.92,160.88 L615.6,158.64 L615.6,156.4 L615.92,153.2 L615.28,150.64 L615.92,148.08 L615.28,146.48 L615.6,143.92 L615.6,141.04 L615.92,138.8 L615.28,136.24 L615.28,133.36 L615.92,131.12 L615.92,126 L615.6,123.12 L615.92,120.56 L615.6,118 L615.6,115.44 L615.28,112.88 L615.6,110.64 L615.92,107.44 L615.6,104.88 L615.6,102.96 L615.28,100.08 L615.92,97.84 L615.92,92.4 L615.6,90.48 L615.6,87.92 L615.92,84.72 L615.28,82.8 L615.92,80.24 L615.28,77.36 L615.92,74.8 L615.6,72.56 L615.28,69.36 L615.28,67.44 L615.92,64.88 L615.6,62 L615.28,59.76 L615.92,56.56 L615.28,54.64 L615.92,51.44 L615.28,48.88 L617.2,45.04 L618.8,43.44 L620.4,41.2 L622.64,39.92 L624.24,37.36 L626.48,35.76 L628.08,33.84 L630,32.56 L631.92,30.32 L633.2,28.4 L637.68,27.12 L640.88,26.48 L643.12,26.48 L645.68,26.8 L647.92,27.12 L650.48,26.48 L656.24,26.48 L658.8,26.8 L661.04,26.48 L663.6,27.12 L666.16,26.48 L668.4,26.8 L671.6,27.12 L674.16,26.8 L676.4,27.12 L683.76,27.12 L686.32,26.8 L689.52,26.8 L691.76,27.12 L694.64,26.8 L696.88,27.12 L699.12,26.48 L702.32,26.8 L704.88,26.8 L707.44,27.12 L709.68,26.8 L711.92,26.8 L715.12,27.12 L719.28,28.4 Z M694.32,69.36 L693.36,67.76 L688.88,66.48 L673.2,66.48 L670.64,66.16 L668.4,66.48 L665.84,66.48 L663.28,66.8 L658.48,68.72 L656.24,73.52 L655.92,76.08 L656.24,78.64 L655.92,81.2 L655.92,83.44 L656.56,86 L656.56,88.88 L655.92,91.76 L655.92,94.32 L656.24,96.24 L655.92,98.8 L656.56,101.36 L656.24,104.56 L656.56,107.12 L656.56,109.04 L655.92,114.16 L655.92,122.16 L656.56,124.4 L655.92,126.96 L656.56,129.2 L656.56,132.08 L655.92,134.96 L656.56,137.2 L656.56,139.44 L656.24,142.32 L656.24,147.12 L656.56,149.68 L656.24,152.24 L656.24,160.24 L655.92,162.48 L655.92,165.68 L656.56,167.6 L656.56,170.48 L656.24,173.36 L655.92,175.28 L655.92,180.4 L656.56,182.64 L656.56,185.52 L655.92,188.08 L656.24,190.64 L656.56,192.88 L655.92,195.76 L655.92,201.2 L656.24,203.76 L656.56,206 L656.56,208.56 L655.92,213.68 L656.56,215.92 L656.24,218.8 L656.56,221.68 L656.24,223.92 L658.8,229.04 L663.28,231.28 L668.4,230.64 L670.96,231.28 L673.84,230.64 L676.08,230.96 L678.96,230.64 L681.2,230.96 L683.44,230.96 L686,230.64 L688.56,230.64 L692.72,229.04 L694.64,228.08 L695.92,223.6 L696.24,221.68 L696.56,219.12 L695.92,215.92 L695.92,208.88 L696.24,205.68 L696.56,203.76 L695.92,201.2 L695.92,198 L696.24,195.76 L696.24,193.2 L695.92,190.96 L696.56,188.4 L696.24,185.84 L696.24,182.64 L696.56,180.4 L695.92,178.16 L695.92,174.96 L696.56,173.36 L696.24,170.8 L696.56,168.24 L696.56,163.12 L695.92,159.92 L696.24,157.68 L695.92,155.12 L695.92,152.88 L696.56,149.68 L696.56,147.12 L695.92,145.2 L696.56,142.64 L695.92,139.44 L696.56,137.52 L696.24,134.32 L695.92,131.76 L696.56,129.2 L695.92,126.64 L695.92,124.72 L696.56,122.16 L695.92,119.28 L695.92,112.24 L696.56,109.36 L696.56,104.56 L695.92,101.36 L695.92,93.68 L696.24,91.44 L696.56,88.56 L695.92,86 L695.92,83.76 L696.24,81.52 L696.24,78.32 L696.56,76.08 L696.24,73.52 L694.32,69.36 Z M803.76,270.32 L800.88,270.64 L798,270 L795.76,270.32 L793.2,270.64 L790.32,270.64 L788.08,270 L785.2,270.64 L783.28,270.32 L780.72,270.32 L777.84,270.64 L774.96,270 L772.4,270.32 L767.28,270.32 L765.36,268.08 L764.72,264.88 L764.72,260.4 L765.36,257.52 L765.04,255.28 L765.04,252.72 L765.36,249.52 L764.72,246.96 L765.36,244.72 L765.36,239.28 L765.04,236.72 L764.72,234.48 L765.04,231.6 L764.72,229.68 L765.36,226.48 L764.72,224.56 L764.72,221.68 L765.36,219.12 L765.36,216.88 L764.72,214 L765.36,211.12 L765.36,208.88 L765.04,206.64 L765.36,203.44 L764.72,201.52 L765.36,195.76 L764.72,193.2 L765.04,190.96 L765.36,188.08 L765.36,172.72 L765.04,170.8 L764.72,167.6 L765.36,165.36 L765.36,162.8 L765.04,160.56 L764.72,158 L764.72,155.44 L765.04,152.56 L765.36,150 L765.04,147.76 L765.04,144.56 L765.36,142.64 L765.36,132.4 L764.72,129.84 L765.04,126.64 L765.36,124.72 L764.72,122.16 L765.36,119.6 L765.04,116.4 L764.72,114.16 L764.72,111.92 L765.36,106.8 L765.04,103.92 L765.04,101.36 L764.72,99.12 L764.72,95.92 L765.04,93.36 L764.72,91.44 L765.36,88.88 L764.72,86 L764.72,83.44 L765.04,80.56 L765.36,78.32 L765.04,75.44 L765.04,72.88 L765.36,70.32 L765.36,68.4 L764.72,65.52 L764.72,60.08 L765.36,58.16 L765.04,55.28 L765.04,49.84 L764.72,47.92 L765.36,45.36 L764.72,42.16 L765.36,39.6 L764.72,37.36 L765.36,35.12 L764.72,32.24 L764.72,29.68 L767.92,26.8 L770.16,27.12 L772.72,27.44 L775.28,27.12 L777.52,27.44 L780.72,27.12 L782.96,27.44 L785.52,27.12 L788.08,27.12 L790.96,26.8 L793.2,26.8 L795.76,27.44 L798,27.12 L800.88,27.44 L803.76,27.44 L805.68,27.12 L808.56,27.12 L811.12,27.44 L813.36,27.12 L815.92,26.8 L818.48,27.44 L821.36,27.44 L824.24,26.8 L826.8,27.12 L829.04,26.8 L831.92,27.44 L833.84,27.12 L837.04,27.12 L839.28,27.44 L842.16,26.8 L851.76,26.8 L854.96,27.44 L856.88,26.8 L859.44,26.8 L862,27.44 L865.2,27.12 L867.12,27.44 L871.6,28.72 L873.84,30.96 L875.76,32.56 L877.68,33.84 L879.6,36.08 L881.2,37.36 L883.12,39.28 L884.4,41.2 L888.24,45.04 L889.84,49.2 L889.84,52.08 L890.16,54.32 L889.84,57.2 L889.52,59.44 L890.16,62 L889.84,64.24 L889.52,66.8 L890.16,69.68 L889.52,72.56 L889.84,74.48 L890.16,77.36 L890.16,84.72 L889.52,87.28 L889.84,90.16 L890.16,92.4 L890.16,94.96 L889.84,97.84 L890.16,100.4 L890.16,102.64 L889.84,104.56 L889.52,107.44 L889.84,110.32 L890.16,112.88 L889.52,115.12 L889.52,117.68 L890.16,120.56 L889.52,122.8 L890.16,125.04 L889.52,127.92 L889.52,129.84 L890.16,132.72 L890.16,135.28 L889.52,137.84 L889.52,140.72 L890.16,143.28 L889.52,145.52 L890.16,147.76 L890.16,150.96 L888.24,157.68 L884.72,161.2 L880.88,164.4 L879.6,166.32 L877.68,167.92 L875.12,170.16 L873.52,171.76 L871.6,174 L870.64,177.84 L871.28,180.72 L871.92,182.64 L872.56,185.52 L873.2,187.44 L872.88,190.64 L873.52,193.2 L874.8,195.76 L874.48,198 L875.12,199.92 L876.4,205.68 L877.04,207.6 L877.36,210.16 L878,212.72 L878.32,215.6 L878.64,217.84 L879.92,220.08 L880.24,222.32 L880.56,225.2 L880.88,227.76 L881.52,230 L882.48,232.56 L882.48,235.12 L883.12,237.68 L883.44,239.92 L884.72,243.12 L884.72,245.36 L885.04,247.6 L885.36,250.48 L886.64,252.4 L886.64,255.6 L886.96,257.52 L887.6,260.08 L888.56,262.96 L888.56,264.88 L889.84,267.76 L887.28,269.68 L885.36,270.32 L865.2,270.32 L862.96,269.68 L859.76,269.68 L857.2,270 L854.96,270 L852.08,270.32 L849.84,267.76 L848.88,264.88 L848.56,262.32 L847.92,260.4 L847.6,257.52 L847.28,255.28 L846,252.4 L846,250.48 L845.68,247.92 L844.4,245.36 L844.4,242.48 L844.08,239.92 L843.44,238 L842.8,234.8 L841.84,233.2 L841.2,228.08 L840.24,225.2 L839.92,222.64 L839.92,220.08 L838.96,218.16 L838.96,215.28 L838.32,212.4 L837.68,210.8 L837.36,208.24 L836.08,205.68 L835.44,203.12 L835.76,199.92 L835.12,198 L834.48,195.76 L834.16,193.2 L833.52,190.64 L832.88,187.44 L832.24,185.52 L831.6,182.64 L831.6,180.4 L830.32,177.84 L827.44,175.28 L824.88,174.96 L823.28,175.28 L820.08,175.28 L817.84,175.6 L815.28,175.28 L813.36,175.6 L810.8,174.96 L807.92,175.6 L806,177.84 L805.68,180.4 L806.32,182.96 L806,185.2 L805.68,188.4 L806,190.64 L806,193.2 L805.68,196.08 L806,198.32 L805.68,200.88 L805.68,203.44 L806,205.68 L806.32,208.88 L806,210.8 L806,223.6 L806.32,226.8 L806.32,229.04 L806,231.28 L806.32,233.84 L805.68,236.72 L805.68,239.6 L806.32,242.16 L805.68,244.08 L806.32,246.96 L805.68,249.2 L806,251.76 L806,256.88 L806.32,259.76 L805.68,262.64 L806,264.56 L805.68,267.44 L803.76,270.32 Z M808.88,136.56 L811.44,135.92 L813.36,135.6 L816.24,135.92 L818.48,136.24 L821.68,135.92 L823.92,136.24 L826.48,135.6 L829.04,135.92 L832.24,135.6 L834.48,135.92 L839.6,135.92 L841.84,135.6 L846.32,134.64 L847.6,132.4 L849.2,128.56 L848.88,126.64 L848.88,120.88 L849.52,118.96 L849.52,113.52 L849.2,111.28 L849.2,106.48 L849.52,103.28 L849.52,101.04 L849.2,98.8 L849.52,96.24 L848.88,93.68 L849.2,91.44 L849.52,88.24 L848.88,86.64 L848.88,76.08 L849.52,73.84 L846.96,69.36 L841.84,66.8 L839.92,66.48 L836.72,66.8 L834.48,66.8 L831.6,66.48 L829.04,66.48 L827.12,67.12 L824.24,67.12 L821.04,66.48 L819.12,66.8 L816.56,67.12 L814,66.48 L811.12,67.12 L808.56,66.8 L805.68,69.68 L806.32,71.92 L806.32,77.36 L805.68,79.92 L806,81.84 L806,87.28 L806.32,89.52 L805.68,92.08 L806.32,95.28 L806,97.84 L805.68,99.76 L805.68,102.32 L806,105.52 L806,110.64 L806.32,112.88 L806.32,115.12 L806,117.68 L806.32,120.88 L806,123.44 L806,128.56 L805.68,130.48 L806.32,133.04 L808.88,136.56 Z M918.32,26.48 L921.2,26.8 L923.44,27.44 L926.32,27.44 L928.24,26.8 L931.44,27.44 L933.36,27.12 L936.56,26.8 L938.8,27.44 L941.68,26.8 L946.8,27.44 L948.72,27.44 L951.92,26.8 L954.16,27.12 L957.04,26.8 L958.96,27.12 L961.52,26.8 L964.72,26.8 L967.28,27.12 L970.16,27.44 L972.72,26.8 L992.56,26.8 L995.44,27.12 L997.68,27.44 L1000.88,27.12 L1010.48,27.12 L1013.36,26.8 L1016.24,26.8 L1020.08,28.72 L1022,30.32 L1023.92,32.24 L1025.84,33.84 L1027.44,36.4 L1029.36,37.68 L1031.28,39.92 L1032.88,41.2 L1037.04,45.36 L1038.32,49.52 L1038,51.44 L1038,59.76 L1038.32,61.68 L1038.32,72.56 L1038.64,74.48 L1038,77.36 L1038,79.92 L1038.64,82.16 L1038.32,85.36 L1038,87.28 L1038.64,90.16 L1038.64,92.72 L1038,94.96 L1038.64,97.52 L1038,102.96 L1038.32,105.52 L1038.32,107.76 L1038.64,110.32 L1038.64,113.2 L1038,115.44 L1038.64,118.32 L1038.32,120.88 L1038.64,122.8 L1038,125.36 L1038.32,128.24 L1038,130.48 L1038,133.04 L1038.32,135.6 L1038.32,138.48 L1038,141.04 L1038.32,143.92 L1038.32,146.48 L1038.64,148.72 L1038.64,150.96 L1038.32,153.52 L1038.32,158.32 L1038.64,161.52 L1038.32,164.08 L1038,166 L1038.64,168.88 L1038.32,171.44 L1038,174.32 L1038.32,176.24 L1038.64,178.8 L1038.32,182 L1038,183.92 L1038.64,187.12 L1038.32,189.36 L1038.64,191.6 L1038,194.16 L1038.64,197.04 L1038.32,199.92 L1038.64,201.84 L1038,204.4 L1038,206.64 L1038.32,209.2 L1038.32,212.4 L1038.64,214.32 L1038.32,217.52 L1038,220.08 L1038.64,222.32 L1038,224.56 L1038.32,227.12 L1038.32,229.68 L1038.64,232.56 L1038.32,235.12 L1038.32,243.12 L1038,245.36 L1038.64,247.6 L1036.72,252.4 L1034.8,254 L1027.44,261.36 L1026.16,262.96 L1022.32,266.8 L1020.08,268.08 L1015.92,270.32 L1013.36,270.64 L1011.12,270.64 L1007.92,270.32 L1005.68,269.68 L1003.44,270.64 L1000.24,270.32 L998.32,269.68 L993.2,269.68 L990,270.64 L988.08,269.68 L979.76,269.68 L977.84,270.32 L974.96,270.64 L972.72,270.64 L969.52,269.68 L966.96,269.68 L964.72,270.32 L961.84,269.68 L959.6,270.32 L956.4,270.64 L954.48,270.64 L951.28,270.32 L949.04,269.68 L946.8,269.68 L941.68,270.64 L939.12,270.32 L935.92,269.68 L934,269.68 L931.12,270.64 L920.56,270.64 L918.32,270.32 L916.08,267.76 L915.44,264.88 L916.08,262.32 L916.08,256.88 L915.44,254.64 L915.44,244.4 L916.08,242.16 L915.76,239.28 L916.08,236.72 L916.08,231.92 L915.44,229.04 L916.08,226.8 L916.08,224.24 L915.44,221.68 L915.44,215.92 L915.76,213.36 L916.08,211.12 L915.44,208.56 L915.76,205.68 L915.76,200.88 L916.08,198.32 L915.44,195.44 L915.44,193.52 L916.08,190.64 L915.44,187.76 L915.76,185.52 L915.76,182.96 L915.44,180.72 L915.44,167.92 L916.08,165.36 L915.76,162.8 L915.44,159.6 L915.76,157.36 L915.44,155.12 L915.44,144.56 L916.08,142.32 L916.08,134.64 L915.76,132.08 L915.76,126.32 L916.08,124.08 L915.44,121.84 L915.44,116.4 L916.08,113.52 L916.08,108.72 L915.76,105.84 L915.44,103.92 L915.76,101.04 L915.76,95.6 L916.08,93.04 L915.76,90.48 L916.08,88.24 L915.44,85.68 L916.08,83.44 L915.76,80.56 L915.76,78.32 L915.44,75.76 L915.44,70 L916.08,67.76 L916.08,64.88 L915.76,62.96 L915.44,60.08 L916.08,57.2 L915.44,54.64 L916.08,52.72 L915.44,50.16 L916.08,46.96 L915.76,45.04 L915.44,42.48 L916.08,39.6 L915.44,37.04 L915.76,34.8 L916.08,31.92 L915.76,29.68 L918.32,26.48 Z M959.28,230.64 L961.84,230.96 L964.4,230.96 L967.28,230.32 L969.52,230.96 L972.4,230.64 L974.32,230.32 L977.52,230.96 L979.44,230.64 L982,230.96 L987.12,230.96 L990,230.32 L994.16,229.04 L995.76,227.76 L997.36,223.28 L997.04,221.04 L997.04,217.84 L996.72,215.92 L996.72,212.72 L997.04,210.48 L997.36,207.92 L996.72,205.68 L996.72,202.8 L997.04,199.92 L996.72,198 L996.72,192.56 L997.36,190 L997.04,187.12 L997.36,185.2 L997.04,182 L996.72,180.08 L997.36,177.2 L997.04,174.32 L997.04,170.16 L997.36,167.6 L997.36,159.28 L997.04,157.04 L997.36,154.16 L997.04,151.92 L997.04,146.8 L996.72,143.92 L996.72,142 L997.36,139.12 L996.72,136.56 L997.36,134.32 L997.36,131.76 L997.04,128.88 L997.04,126.64 L997.36,123.76 L997.04,121.84 L997.36,118.64 L996.72,116.72 L997.04,113.52 L996.72,111.6 L996.72,106.48 L997.36,103.28 L996.72,100.72 L997.36,98.16 L997.36,96.24 L997.04,93.68 L997.36,90.48 L997.36,87.92 L996.72,85.68 L996.72,82.8 L997.04,80.56 L996.72,78 L997.36,75.76 L997.36,72.88 L996.08,68.4 L993.84,67.44 L990,65.52 L987.76,65.84 L985.2,65.84 L982.32,65.52 L979.44,65.84 L977.52,65.2 L974.96,65.52 L971.76,65.84 L969.2,65.52 L964.4,65.52 L961.52,65.2 L959.6,65.2 L956.72,68.4 L956.72,73.84 L956.4,76.4 L957.04,78.96 L956.72,80.88 L956.4,83.44 L956.4,94 L957.04,96.56 L956.72,99.44 L957.04,101.36 L956.4,104.56 L956.4,106.8 L956.72,109.68 L957.04,111.92 L956.72,114.8 L957.04,117.04 L956.72,119.92 L957.04,122.16 L956.4,125.36 L956.72,127.28 L957.04,129.84 L956.72,132.72 L957.04,135.6 L956.4,140.72 L956.4,145.84 L956.72,147.76 L957.04,150.64 L956.4,153.52 L957.04,156.08 L956.4,158.64 L956.72,160.56 L957.04,163.44 L957.04,168.24 L956.72,170.8 L957.04,173.68 L957.04,176.24 L956.72,179.44 L956.4,182 L956.72,184.24 L957.04,186.8 L956.4,189.04 L957.04,194.8 L956.4,197.04 L956.4,199.6 L957.04,202.48 L956.4,204.72 L956.72,207.6 L957.04,209.84 L957.04,212.4 L956.4,214.64 L957.04,217.2 L956.72,219.76 L957.04,222.32 L956.72,225.52 L956.72,228.08 L959.28,230.64 Z" id="Sanford" fill="#000000"></path>
            <path d="M113.6,279.68 L133.76,259.52 L134.4,260.48 L114.56,280.32 L113.6,279.68 Z M105.6,279.68 L133.76,251.52 L134.4,252.16 L106.24,280.32 L105.6,279.68 Z M97.28,279.68 L133.76,243.2 L134.4,244.16 L98.24,280.32 L97.28,279.68 Z M89.28,279.68 L133.76,235.2 L134.4,235.84 L89.92,280.32 L89.28,279.68 Z M80.96,279.68 L133.76,226.88 L134.4,227.84 L81.92,280.32 L80.96,279.68 Z M72.96,279.68 L133.76,218.88 L134.4,219.84 L73.92,280.32 L72.96,279.68 Z M64.64,279.68 L133.76,210.56 L134.4,211.52 L65.6,280.32 L64.64,279.68 Z M56.64,279.68 L133.76,202.56 L134.4,203.52 L57.6,280.32 L56.64,279.68 Z M48.32,279.68 L87.68,240.32 L88.64,240.96 L49.28,280.32 L48.32,279.68 Z M92.8,235.2 L133.76,194.24 L134.4,195.2 L93.44,236.16 L92.8,235.2 Z M40.32,279.68 L79.68,240.32 L80.64,240.96 L41.28,280.32 L40.32,279.68 Z M92.8,227.2 L133.76,186.24 L134.4,187.2 L93.44,228.16 L92.8,227.2 Z M32,279.68 L71.36,240.32 L72.32,240.96 L32.96,280.32 L32,279.68 Z M92.8,218.88 L133.76,177.92 L134.4,178.88 L93.44,219.84 L92.8,218.88 Z M27.52,275.84 L63.36,240.32 L64.32,240.96 L28.48,276.8 L27.52,275.84 Z M92.8,210.88 L133.76,169.92 L134.4,170.88 L93.44,211.84 L92.8,210.88 Z M23.68,272 L56,239.36 L56.96,240.32 L24.32,272.64 L23.68,272 Z M92.8,202.56 L133.76,161.6 L134.4,162.56 L93.44,203.52 L92.8,202.56 Z M19.52,267.84 L52.16,235.2 L52.8,236.16 L20.48,268.8 L19.52,267.84 Z M92.8,194.56 L132.48,154.88 L133.44,155.84 L93.44,195.52 L92.8,194.56 Z M15.36,263.68 L52.16,227.2 L52.8,227.84 L16.32,264.64 L15.36,263.68 Z M92.8,186.56 L128.32,150.72 L129.28,151.68 L93.44,187.2 L92.8,186.56 Z M11.52,259.52 L52.16,218.88 L52.8,219.84 L12.16,260.48 L11.52,259.52 Z M91.52,179.2 L124.16,146.56 L125.12,147.52 L92.48,180.16 L91.52,179.2 Z M11.52,251.52 L52.16,210.88 L52.8,211.84 L12.16,252.48 L11.52,251.52 Z M87.36,175.68 L120.32,142.72 L120.96,143.36 L88.32,176.32 L87.36,175.68 Z M11.52,243.2 L45.12,209.6 L46.08,210.24 L12.16,244.16 L11.52,243.2 Z M79.04,175.68 L116.16,138.56 L117.12,139.52 L80,176.32 L79.04,175.68 Z M11.52,235.2 L37.12,209.6 L38.08,210.24 L12.16,236.16 L11.52,235.2 Z M71.04,175.68 L110.4,136.32 L111.36,136.96 L72,176.32 L71.04,175.68 Z M11.52,226.88 L28.8,209.6 L29.76,210.24 L12.16,227.84 L11.52,226.88 Z M62.72,175.68 L102.08,136.32 L103.04,136.96 L63.68,176.32 L62.72,175.68 Z M131.84,106.56 L133.76,104.64 L134.4,105.6 L132.8,107.2 L131.84,106.56 Z M11.52,218.88 L20.8,209.6 L21.76,210.24 L12.16,219.84 L11.52,218.88 Z M54.72,175.68 L94.08,136.32 L95.04,136.96 L55.68,176.32 L54.72,175.68 Z M123.84,106.56 L133.76,96.64 L134.4,97.6 L124.8,107.2 L123.84,106.56 Z M11.52,210.56 L12.48,209.6 L13.44,210.24 L12.16,211.52 L11.52,210.56 Z M46.4,175.68 L85.76,136.32 L86.72,136.96 L47.36,176.32 L46.4,175.68 Z M115.52,106.56 L133.76,88.32 L134.4,89.28 L116.48,107.2 L115.52,106.56 Z M38.4,175.68 L77.76,136.32 L78.72,136.96 L39.36,176.32 L38.4,175.68 Z M107.52,106.56 L133.76,80.32 L134.4,81.28 L108.48,107.2 L107.52,106.56 Z M30.72,175.04 L69.44,136.32 L70.4,136.96 L31.68,176 L30.72,175.04 Z M99.2,106.56 L133.76,72 L134.4,72.96 L100.16,107.2 L99.2,106.56 Z M26.56,170.88 L61.44,136.32 L62.4,136.96 L27.52,171.84 L26.56,170.88 Z M92.8,104.96 L133.76,64 L134.4,64.96 L93.44,105.92 L92.8,104.96 Z M22.72,167.04 L55.04,134.4 L56,135.36 L23.36,167.68 L22.72,167.04 Z M92.8,96.96 L133.44,56 L134.4,56.96 L93.44,97.6 L92.8,96.96 Z M18.56,162.88 L52.16,129.28 L52.8,130.24 L19.52,163.84 L18.56,162.88 Z M92.8,88.64 L129.28,51.84 L130.24,52.8 L93.44,89.6 L92.8,88.64 Z M14.4,158.72 L52.16,121.28 L52.8,121.92 L15.36,159.68 L14.4,158.72 Z M92.48,80.64 L125.44,48 L126.08,48.64 L93.44,81.6 L92.48,80.64 Z M11.52,153.6 L52.16,112.96 L52.8,113.92 L12.16,154.56 L11.52,153.6 Z M88.32,76.48 L121.28,43.84 L122.24,44.8 L89.28,77.44 L88.32,76.48 Z M11.52,145.6 L52.16,104.96 L52.8,105.92 L12.16,146.56 L11.52,145.6 Z M80.96,76.16 L117.12,39.68 L118.08,40.64 L81.92,76.8 L80.96,76.16 Z M11.52,137.28 L52.16,96.64 L52.8,97.6 L12.16,138.24 L11.52,137.28 Z M72.64,76.16 L112.32,36.48 L113.28,37.12 L73.6,76.8 L72.64,76.16 Z M11.52,129.28 L52.16,88.64 L52.8,89.6 L12.16,130.24 L11.52,129.28 Z M64.64,76.16 L104.32,36.48 L105.28,37.12 L65.6,76.8 L64.64,76.16 Z M11.52,120.96 L96,36.48 L96.96,37.12 L12.16,121.92 L11.52,120.96 Z M11.52,112.96 L88,36.48 L88.96,37.12 L12.16,113.92 L11.52,112.96 Z M11.52,104.64 L79.68,36.48 L80.64,37.12 L12.16,105.6 L11.52,104.64 Z M11.52,96.64 L71.68,36.48 L72.64,37.12 L12.16,97.6 L11.52,96.64 Z M11.52,88.64 L63.68,36.48 L64.32,37.12 L12.16,89.28 L11.52,88.64 Z M11.52,80.32 L55.36,36.48 L56.32,37.12 L12.16,81.28 L11.52,80.32 Z M11.52,72.32 L47.36,36.48 L48,37.12 L12.16,72.96 L11.52,72.32 Z M11.52,64 L39.04,36.48 L40,37.12 L12.16,64.96 L11.52,64 Z M300.16,279.68 L303.36,276.48 L304.32,277.12 L301.12,280.32 L300.16,279.68 Z M292.16,279.68 L301.76,269.76 L302.72,270.72 L293.12,280.32 L292.16,279.68 Z M283.84,279.68 L300.16,263.04 L301.12,264 L284.8,280.32 L283.84,279.68 Z M275.84,279.68 L298.88,256.64 L299.52,257.6 L276.8,280.32 L275.84,279.68 Z M267.52,279.68 L297.28,249.92 L298.24,250.88 L268.48,280.32 L267.52,279.68 Z M262.08,277.12 L295.68,243.52 L296.64,244.48 L263.04,277.76 L262.08,277.12 Z M260.8,270.4 L294.08,236.8 L295.04,237.76 L261.44,271.04 L260.8,270.4 Z M259.2,263.36 L292.48,230.4 L293.44,231.04 L260.16,264.32 L259.2,263.36 Z M257.92,256.64 L290.88,223.68 L291.84,224.64 L258.88,257.6 L257.92,256.64 Z M256.64,249.92 L289.28,216.96 L290.24,217.92 L257.28,250.88 L256.64,249.92 Z M255.04,243.2 L287.68,210.56 L288.64,211.52 L256,244.16 L255.04,243.2 Z M253.76,236.48 L286.4,203.84 L287.04,204.8 L254.72,237.44 L253.76,236.48 Z M252.16,229.76 L284.8,197.44 L285.76,198.08 L253.12,230.72 L252.16,229.76 Z M246.72,227.2 L283.2,190.72 L284.16,191.68 L247.68,227.84 L246.72,227.2 Z M186.24,279.68 L192,273.6 L192.96,274.56 L187.2,280.32 L186.24,279.68 Z M238.72,227.2 L281.6,184 L282.56,184.96 L239.68,227.84 L238.72,227.2 Z M177.92,279.68 L194.24,263.36 L195.2,264.32 L178.88,280.32 L177.92,279.68 Z M230.4,227.2 L280,177.6 L280.96,178.56 L231.36,227.84 L230.4,227.2 Z M169.92,279.68 L196.48,253.12 L197.12,254.08 L170.88,280.32 L169.92,279.68 Z M222.4,227.2 L278.4,170.88 L279.36,171.84 L223.36,227.84 L222.4,227.2 Z M161.6,279.68 L198.4,242.88 L199.36,243.84 L162.56,280.32 L161.6,279.68 Z M214.08,227.2 L276.8,164.48 L277.76,165.44 L215.04,227.84 L214.08,227.2 Z M153.6,279.68 L200.64,232.64 L201.6,233.6 L154.56,280.32 L153.6,279.68 Z M206.08,227.2 L275.2,157.76 L276.16,158.72 L207.04,227.84 L206.08,227.2 Z M150.4,274.56 L237.44,187.84 L238.08,188.48 L151.36,275.52 L150.4,274.56 Z M242.56,182.4 L273.92,151.36 L274.56,152 L243.52,183.36 L242.56,182.4 Z M152.96,264 L229.12,187.84 L230.08,188.48 L153.92,264.64 L152.96,264 Z M241.28,175.68 L272.32,144.64 L273.28,145.6 L241.92,176.64 L241.28,175.68 Z M155.52,253.12 L221.12,187.84 L222.08,188.48 L156.48,254.08 L155.52,253.12 Z M239.68,168.96 L270.72,137.92 L271.68,138.88 L240.64,169.92 L239.68,168.96 Z M158.08,242.56 L212.8,187.84 L213.76,188.48 L159.04,243.52 L158.08,242.56 Z M238.4,162.24 L269.12,131.52 L270.08,132.48 L239.36,163.2 L238.4,162.24 Z M160.64,231.68 L211.2,181.12 L212.16,182.08 L161.6,232.64 L160.64,231.68 Z M237.12,155.52 L267.52,124.8 L268.48,125.76 L237.76,156.48 L237.12,155.52 Z M163.2,221.12 L213.44,170.88 L214.08,171.84 L164.16,222.08 L163.2,221.12 Z M235.52,148.8 L265.92,118.4 L266.88,119.04 L236.48,149.44 L235.52,148.8 Z M165.76,210.56 L215.36,160.64 L216.32,161.6 L166.72,211.52 L165.76,210.56 Z M234.24,142.08 L264.32,111.68 L265.28,112.64 L235.2,142.72 L234.24,142.08 Z M168.32,199.68 L217.6,150.4 L218.56,151.36 L168.96,200.64 L168.32,199.68 Z M232.96,135.04 L262.72,104.96 L263.68,105.92 L233.6,136 L232.96,135.04 Z M170.88,189.12 L219.52,140.16 L220.48,141.12 L171.52,190.08 L170.88,189.12 Z M231.36,128.32 L261.44,98.56 L262.08,99.52 L232.32,129.28 L231.36,128.32 Z M173.12,178.56 L221.76,129.92 L222.72,130.88 L174.08,179.2 L173.12,178.56 Z M230.08,121.6 L259.84,91.84 L260.8,92.8 L231.04,122.56 L230.08,121.6 Z M175.68,167.68 L224,119.68 L224.64,120.64 L176.64,168.64 L175.68,167.68 Z M228.48,114.88 L258.24,85.44 L259.2,86.4 L229.44,115.84 L228.48,114.88 Z M178.24,157.12 L225.92,109.44 L226.88,110.4 L179.2,158.08 L178.24,157.12 Z M227.2,108.16 L256.64,78.72 L257.6,79.68 L228.16,109.12 L227.2,108.16 Z M180.8,146.56 L255.04,72.32 L256,72.96 L181.76,147.2 L180.8,146.56 Z M183.36,135.68 L253.44,65.6 L254.4,66.56 L184.32,136.64 L183.36,135.68 Z M185.92,125.12 L251.84,58.88 L252.8,59.84 L186.88,126.08 L185.92,125.12 Z M188.48,114.56 L250.24,52.48 L251.2,53.44 L189.44,115.2 L188.48,114.56 Z M191.04,103.68 L248.96,45.76 L249.6,46.72 L192,104.64 L191.04,103.68 Z M193.6,93.12 L247.36,39.36 L248.32,40.32 L194.24,94.08 L193.6,93.12 Z M196.16,82.24 L241.92,36.48 L242.88,37.12 L196.8,83.2 L196.16,82.24 Z M198.4,71.68 L233.92,36.48 L234.88,37.12 L199.36,72.64 L198.4,71.68 Z M200.96,61.12 L225.6,36.48 L226.56,37.12 L201.92,62.08 L200.96,61.12 Z M203.52,50.24 L217.6,36.48 L218.56,37.12 L204.48,51.2 L203.52,50.24 Z M206.08,39.68 L209.6,36.48 L210.24,37.12 L207.04,40.64 L206.08,39.68 Z M454.72,279.68 L459.52,274.88 L460.16,275.84 L455.68,280.32 L454.72,279.68 Z M446.4,279.68 L459.52,266.56 L460.16,267.52 L447.36,280.32 L446.4,279.68 Z M438.4,279.68 L459.52,258.56 L460.16,259.52 L439.36,280.32 L438.4,279.68 Z M430.08,279.68 L459.52,250.24 L460.16,251.2 L431.04,280.32 L430.08,279.68 Z M422.08,279.68 L459.52,242.24 L460.16,243.2 L423.04,280.32 L422.08,279.68 Z M415.04,278.4 L459.52,234.24 L460.16,234.88 L416,279.36 L415.04,278.4 Z M413.12,272.32 L459.52,225.92 L460.16,226.88 L413.76,273.28 L413.12,272.32 Z M410.88,266.24 L459.52,217.92 L460.16,218.56 L411.84,267.2 L410.88,266.24 Z M408.64,260.16 L459.52,209.6 L460.16,210.56 L409.6,261.12 L408.64,260.16 Z M406.72,254.4 L459.52,201.6 L460.16,202.56 L407.36,255.04 L406.72,254.4 Z M404.48,248.32 L459.52,193.28 L460.16,194.24 L405.44,249.28 L404.48,248.32 Z M402.24,242.24 L459.52,185.28 L460.16,186.24 L403.2,243.2 L402.24,242.24 Z M356.8,279.68 L362.88,273.6 L363.52,274.56 L357.76,280.32 L356.8,279.68 Z M400.32,236.16 L459.52,176.96 L460.16,177.92 L400.96,237.12 L400.32,236.16 Z M348.8,279.68 L362.88,265.6 L363.52,266.56 L349.76,280.32 L348.8,279.68 Z M398.08,230.08 L459.52,168.96 L460.16,169.92 L399.04,231.04 L398.08,230.08 Z M340.48,279.68 L362.88,257.28 L363.52,258.24 L341.44,280.32 L340.48,279.68 Z M395.84,224.32 L459.52,160.64 L460.16,161.6 L396.8,224.96 L395.84,224.32 Z M332.48,279.68 L362.88,249.28 L363.52,250.24 L333.44,280.32 L332.48,279.68 Z M393.92,218.24 L459.52,152.64 L460.16,153.6 L394.88,219.2 L393.92,218.24 Z M324.16,279.68 L362.88,240.96 L363.52,241.92 L325.12,280.32 L324.16,279.68 Z M391.68,212.16 L418.56,185.28 L419.52,186.24 L392.64,213.12 L391.68,212.16 Z M418.88,184.96 L459.52,144.32 L460.16,145.28 L419.52,185.92 L418.88,184.96 Z M322.24,273.6 L362.88,232.96 L363.52,233.92 L322.88,274.56 L322.24,273.6 Z M389.44,206.08 L416.64,179.2 L417.28,180.16 L390.4,207.04 L389.44,206.08 Z M418.88,176.96 L459.52,136.32 L460.16,137.28 L419.52,177.92 L418.88,176.96 Z M322.24,265.6 L362.88,224.96 L363.52,225.6 L322.88,266.24 L322.24,265.6 Z M387.52,200 L414.4,173.12 L415.36,174.08 L388.48,200.96 L387.52,200 Z M418.88,168.96 L459.52,128.32 L460.16,128.96 L419.52,169.6 L418.88,168.96 Z M322.24,257.28 L362.88,216.64 L363.52,217.6 L322.88,258.24 L322.24,257.28 Z M385.28,194.24 L412.16,167.04 L413.12,168 L386.24,194.88 L385.28,194.24 Z M418.88,160.64 L459.52,120 L460.16,120.96 L419.52,161.6 L418.88,160.64 Z M322.24,249.28 L362.88,208.64 L363.52,209.6 L322.88,250.24 L322.24,249.28 Z M383.04,188.16 L410.24,161.28 L411.2,161.92 L384,189.12 L383.04,188.16 Z M418.88,152.64 L459.52,112 L460.16,112.96 L419.52,153.6 L418.88,152.64 Z M322.24,240.96 L362.88,200.32 L363.52,201.28 L322.88,241.92 L322.24,240.96 Z M381.12,182.08 L408,155.2 L408.96,156.16 L382.08,183.04 L381.12,182.08 Z M418.88,144.32 L459.52,103.68 L460.16,104.64 L419.52,145.28 L418.88,144.32 Z M322.24,232.96 L362.88,192.32 L363.52,193.28 L322.88,233.92 L322.24,232.96 Z M378.88,176 L405.76,149.12 L406.72,150.08 L379.84,176.96 L378.88,176 Z M418.88,136.32 L459.52,95.68 L460.16,96.64 L419.52,137.28 L418.88,136.32 Z M322.24,224.64 L362.88,184 L363.52,184.96 L322.88,225.6 L322.24,224.64 Z M376.64,169.92 L403.84,143.04 L404.8,144 L377.6,170.88 L376.64,169.92 Z M418.88,128 L459.52,87.36 L460.16,88.32 L419.52,128.96 L418.88,128 Z M322.24,216.64 L362.88,176 L363.52,176.96 L322.88,217.6 L322.24,216.64 Z M374.72,164.16 L401.6,136.96 L402.56,137.92 L375.68,164.8 L374.72,164.16 Z M418.88,120 L459.52,79.36 L460.16,80.32 L419.52,120.96 L418.88,120 Z M322.24,208.32 L362.88,167.68 L363.52,168.64 L322.88,209.28 L322.24,208.32 Z M372.48,158.08 L399.36,131.2 L400.32,131.84 L373.44,159.04 L372.48,158.08 Z M418.88,111.68 L459.52,71.04 L460.16,72 L419.52,112.64 L418.88,111.68 Z M322.24,200.32 L362.88,159.68 L363.52,160.64 L322.88,201.28 L322.24,200.32 Z M370.24,152 L397.44,125.12 L398.4,126.08 L371.2,152.96 L370.24,152 Z M418.88,103.68 L459.52,63.04 L460.16,64 L419.52,104.64 L418.88,103.68 Z M322.24,192 L362.88,151.36 L363.52,152.32 L322.88,192.96 L322.24,192 Z M368.32,145.92 L395.2,119.04 L396.16,120 L369.28,146.88 L368.32,145.92 Z M418.88,95.36 L459.52,54.72 L460.16,55.68 L419.52,96.32 L418.88,95.36 Z M322.24,184 L362.88,143.36 L363.52,144.32 L322.88,184.96 L322.24,184 Z M366.08,139.84 L392.96,112.96 L393.92,113.92 L367.04,140.8 L366.08,139.84 Z M418.88,87.36 L459.52,46.72 L460.16,47.68 L419.52,88.32 L418.88,87.36 Z M322.24,176 L362.88,135.36 L363.52,136 L322.88,176.64 L322.24,176 Z M364.16,134.08 L391.04,106.88 L392,107.84 L364.8,134.72 L364.16,134.08 Z M418.88,79.36 L459.52,38.72 L460.16,39.36 L419.52,80 L418.88,79.36 Z M322.24,167.68 L388.8,101.12 L389.76,101.76 L322.88,168.64 L322.24,167.68 Z M418.88,71.04 L453.44,36.48 L454.4,37.12 L419.52,72 L418.88,71.04 Z M322.24,159.68 L386.56,95.04 L387.52,96 L322.88,160.32 L322.24,159.68 Z M418.88,63.04 L445.44,36.48 L446.08,37.12 L419.52,63.68 L418.88,63.04 Z M322.24,151.36 L384.64,88.96 L385.6,89.92 L322.88,152.32 L322.24,151.36 Z M418.88,54.72 L437.12,36.48 L438.08,37.12 L419.52,55.68 L418.88,54.72 Z M322.24,143.36 L382.4,82.88 L383.36,83.84 L322.88,144.32 L322.24,143.36 Z M418.88,46.72 L429.12,36.48 L430.08,37.12 L419.52,47.68 L418.88,46.72 Z M322.24,135.04 L380.16,76.8 L381.12,77.76 L322.88,136 L322.24,135.04 Z M418.88,38.4 L420.8,36.48 L421.76,37.12 L419.52,39.36 L418.88,38.4 Z M322.24,127.04 L378.24,71.04 L379.2,71.68 L322.88,128 L322.24,127.04 Z M322.24,118.72 L376,64.96 L376.96,65.92 L322.88,119.68 L322.24,118.72 Z M322.24,110.72 L374.08,58.88 L374.72,59.84 L322.88,111.68 L322.24,110.72 Z M322.24,102.4 L371.84,52.8 L372.8,53.76 L322.88,103.36 L322.24,102.4 Z M322.24,94.4 L369.6,46.72 L370.56,47.68 L322.88,95.36 L322.24,94.4 Z M322.24,86.4 L367.68,40.96 L368.32,41.6 L322.88,87.04 L322.24,86.4 Z M322.24,78.08 L363.84,36.48 L364.8,37.12 L322.88,79.04 L322.24,78.08 Z M322.24,70.08 L355.84,36.48 L356.48,37.12 L322.88,70.72 L322.24,70.08 Z M322.24,61.76 L347.52,36.48 L348.48,37.12 L322.88,62.72 L322.24,61.76 Z M322.24,53.76 L339.52,36.48 L340.48,37.12 L322.88,54.72 L322.24,53.76 Z M322.24,45.44 L331.2,36.48 L332.16,37.12 L322.88,46.4 L322.24,45.44 Z M322.24,37.44 L323.2,36.48 L324.16,37.12 L322.88,38.4 L322.24,37.44 Z M522.24,279.68 L528.32,273.6 L528.96,274.56 L523.2,280.32 L522.24,279.68 Z M514.24,279.68 L528.32,265.6 L528.96,266.56 L515.2,280.32 L514.24,279.68 Z M505.92,279.68 L528.32,257.28 L528.96,258.24 L506.88,280.32 L505.92,279.68 Z M497.92,279.68 L528.32,249.28 L528.96,250.24 L498.88,280.32 L497.92,279.68 Z M489.6,279.68 L528.32,240.96 L528.96,241.92 L490.56,280.32 L489.6,279.68 Z M487.68,273.6 L528.32,232.96 L528.96,233.92 L488.32,274.56 L487.68,273.6 Z M583.68,177.6 L584.32,176.96 L584.96,177.92 L584.64,178.24 L583.68,177.6 Z M487.68,265.6 L528.32,224.96 L528.96,225.6 L488.32,266.24 L487.68,265.6 Z M575.68,177.6 L584.32,168.96 L584.96,169.6 L576.32,178.24 L575.68,177.6 Z M487.68,257.28 L528.32,216.64 L528.96,217.6 L488.32,258.24 L487.68,257.28 Z M567.36,177.6 L584.32,160.64 L584.96,161.6 L568.32,178.24 L567.36,177.6 Z M487.68,249.28 L528.32,208.64 L528.96,209.6 L488.32,250.24 L487.68,249.28 Z M559.36,177.6 L584.32,152.64 L584.96,153.6 L560.32,178.24 L559.36,177.6 Z M487.68,240.96 L528.32,200.32 L528.96,201.28 L488.32,241.92 L487.68,240.96 Z M551.04,177.6 L584.32,144.32 L584.96,145.28 L552,178.24 L551.04,177.6 Z M487.68,232.96 L528.32,192.32 L528.96,193.28 L488.32,233.92 L487.68,232.96 Z M543.04,177.6 L582.4,138.24 L583.36,138.88 L544,178.24 L543.04,177.6 Z M487.68,224.64 L528.32,184 L528.96,184.96 L488.32,225.6 L487.68,224.64 Z M534.72,177.6 L574.08,138.24 L575.04,138.88 L535.68,178.24 L534.72,177.6 Z M487.68,216.64 L566.08,138.24 L567.04,138.88 L488.32,217.6 L487.68,216.64 Z M487.68,208.32 L557.76,138.24 L558.72,138.88 L488.32,209.28 L487.68,208.32 Z M487.68,200.32 L549.76,138.24 L550.72,138.88 L488.32,201.28 L487.68,200.32 Z M487.68,192 L541.44,138.24 L542.4,138.88 L488.32,192.96 L487.68,192 Z M487.68,184 L533.44,138.24 L534.4,138.88 L488.32,184.96 L487.68,184 Z M595.84,75.84 L604.16,67.52 L604.8,68.48 L596.8,76.48 L595.84,75.84 Z M487.68,176 L528.32,135.36 L528.96,136 L488.32,176.64 L487.68,176 Z M587.84,75.84 L604.16,59.52 L604.8,60.16 L588.48,76.48 L587.84,75.84 Z M487.68,167.68 L528.32,127.04 L528.96,128 L488.32,168.64 L487.68,167.68 Z M579.52,75.84 L604.16,51.2 L604.8,52.16 L580.48,76.48 L579.52,75.84 Z M487.68,159.68 L528.32,119.04 L528.96,119.68 L488.32,160.32 L487.68,159.68 Z M571.52,75.84 L604.16,43.2 L604.8,43.84 L572.16,76.48 L571.52,75.84 Z M487.68,151.36 L528.32,110.72 L528.96,111.68 L488.32,152.32 L487.68,151.36 Z M563.2,75.84 L602.56,36.48 L603.52,37.12 L564.16,76.48 L563.2,75.84 Z M487.68,143.36 L528.32,102.72 L528.96,103.68 L488.32,144.32 L487.68,143.36 Z M555.2,75.84 L594.56,36.48 L595.52,37.12 L556.16,76.48 L555.2,75.84 Z M487.68,135.04 L528.32,94.4 L528.96,95.36 L488.32,136 L487.68,135.04 Z M546.88,75.84 L586.24,36.48 L587.2,37.12 L547.84,76.48 L546.88,75.84 Z M487.68,127.04 L528.32,86.4 L528.96,87.36 L488.32,128 L487.68,127.04 Z M538.88,75.84 L578.24,36.48 L579.2,37.12 L539.84,76.48 L538.88,75.84 Z M487.68,118.72 L528.32,78.08 L528.96,79.04 L488.32,119.68 L487.68,118.72 Z M530.56,75.84 L569.92,36.48 L570.88,37.12 L531.52,76.48 L530.56,75.84 Z M487.68,110.72 L561.92,36.48 L562.88,37.12 L488.32,111.68 L487.68,110.72 Z M487.68,102.4 L553.6,36.48 L554.56,37.12 L488.32,103.36 L487.68,102.4 Z M487.68,94.4 L545.6,36.48 L546.56,37.12 L488.32,95.36 L487.68,94.4 Z M487.68,86.4 L537.6,36.48 L538.24,37.12 L488.32,87.04 L487.68,86.4 Z M487.68,78.08 L529.28,36.48 L530.24,37.12 L488.32,79.04 L487.68,78.08 Z M487.68,70.08 L521.28,36.48 L521.92,37.12 L488.32,70.72 L487.68,70.08 Z M487.68,61.76 L512.96,36.48 L513.92,37.12 L488.32,62.72 L487.68,61.76 Z M487.68,53.76 L504.96,36.48 L505.92,37.12 L488.32,54.72 L487.68,53.76 Z M487.68,45.44 L496.64,36.48 L497.6,37.12 L488.32,46.4 L487.68,45.44 Z M487.68,37.44 L488.64,36.48 L489.6,37.12 L488.32,38.4 L487.68,37.44 Z M725.12,279.68 L746.88,257.92 L747.52,258.88 L726.08,280.32 L725.12,279.68 Z M717.12,279.68 L746.88,249.92 L747.52,250.56 L717.76,280.32 L717.12,279.68 Z M708.8,279.68 L746.88,241.6 L747.52,242.56 L709.76,280.32 L708.8,279.68 Z M700.8,279.68 L746.88,233.6 L747.52,234.24 L701.44,280.32 L700.8,279.68 Z M692.48,279.68 L746.88,225.28 L747.52,226.24 L693.44,280.32 L692.48,279.68 Z M684.48,279.68 L746.88,217.28 L747.52,218.24 L685.44,280.32 L684.48,279.68 Z M676.16,279.68 L746.88,208.96 L747.52,209.92 L677.12,280.32 L676.16,279.68 Z M668.16,279.68 L746.88,200.96 L747.52,201.92 L669.12,280.32 L668.16,279.68 Z M659.84,279.68 L699.2,240.32 L700.16,240.96 L660.8,280.32 L659.84,279.68 Z M705.92,233.6 L746.88,192.64 L747.52,193.6 L706.56,234.56 L705.92,233.6 Z M651.84,279.68 L691.2,240.32 L692.16,240.96 L652.8,280.32 L651.84,279.68 Z M705.92,225.6 L746.88,184.64 L747.52,185.6 L706.56,226.56 L705.92,225.6 Z M644.16,278.72 L682.88,240.32 L683.84,240.96 L645.12,279.68 L644.16,278.72 Z M705.92,217.28 L746.88,176.32 L747.52,177.28 L706.56,218.24 L705.92,217.28 Z M640.32,274.88 L674.88,240.32 L675.84,240.96 L641.28,275.84 L640.32,274.88 Z M705.92,209.28 L746.88,168.32 L747.52,169.28 L706.56,210.24 L705.92,209.28 Z M636.16,270.72 L668.48,238.4 L669.44,239.36 L637.12,271.68 L636.16,270.72 Z M705.92,200.96 L746.88,160 L747.52,160.96 L706.56,201.92 L705.92,200.96 Z M632,266.56 L665.92,232.96 L666.56,233.92 L632.96,267.52 L632,266.56 Z M705.92,192.96 L746.88,152 L747.52,152.96 L706.56,193.92 L705.92,192.96 Z M628.16,262.72 L665.92,224.96 L666.56,225.6 L628.8,263.36 L628.16,262.72 Z M705.92,184.96 L746.88,144 L747.52,144.64 L706.56,185.6 L705.92,184.96 Z M625.28,257.28 L665.92,216.64 L666.56,217.6 L625.92,258.24 L625.28,257.28 Z M705.92,176.64 L746.88,135.68 L747.52,136.64 L706.56,177.6 L705.92,176.64 Z M625.28,249.28 L665.92,208.64 L666.56,209.6 L625.92,250.24 L625.28,249.28 Z M705.92,168.64 L746.88,127.68 L747.52,128.64 L706.56,169.6 L705.92,168.64 Z M625.28,240.96 L665.92,200.32 L666.56,201.28 L625.92,241.92 L625.28,240.96 Z M705.92,160.32 L746.88,119.36 L747.52,120.32 L706.56,161.28 L705.92,160.32 Z M625.28,232.96 L665.92,192.32 L666.56,193.28 L625.92,233.92 L625.28,232.96 Z M705.92,152.32 L746.88,111.36 L747.52,112.32 L706.56,153.28 L705.92,152.32 Z M625.28,224.64 L665.92,184 L666.56,184.96 L625.92,225.6 L625.28,224.64 Z M705.92,144 L746.88,103.04 L747.52,104 L706.56,144.96 L705.92,144 Z M625.28,216.64 L665.92,176 L666.56,176.96 L625.92,217.6 L625.28,216.64 Z M705.92,136 L746.88,95.04 L747.52,96 L706.56,136.96 L705.92,136 Z M625.28,208.32 L665.92,167.68 L666.56,168.64 L625.92,209.28 L625.28,208.32 Z M705.92,127.68 L746.88,86.72 L747.52,87.68 L706.56,128.64 L705.92,127.68 Z M625.28,200.32 L665.92,159.68 L666.56,160.64 L625.92,201.28 L625.28,200.32 Z M705.92,119.68 L746.88,78.72 L747.52,79.68 L706.56,120.64 L705.92,119.68 Z M625.28,192 L665.92,151.36 L666.56,152.32 L625.92,192.96 L625.28,192 Z M705.92,111.36 L746.88,70.4 L747.52,71.36 L706.56,112.32 L705.92,111.36 Z M625.28,184 L665.92,143.36 L666.56,144.32 L625.92,184.96 L625.28,184 Z M705.92,103.36 L746.88,62.4 L747.52,63.36 L706.56,104.32 L705.92,103.36 Z M625.28,176 L665.92,135.36 L666.56,136 L625.92,176.64 L625.28,176 Z M705.92,95.36 L745.92,55.36 L746.56,56 L706.56,96 L705.92,95.36 Z M625.28,167.68 L665.92,127.04 L666.56,128 L625.92,168.64 L625.28,167.68 Z M705.92,87.04 L741.76,51.2 L742.72,52.16 L706.56,88 L705.92,87.04 Z M625.28,159.68 L665.92,119.04 L666.56,119.68 L625.92,160.32 L625.28,159.68 Z M704.96,79.68 L737.6,47.04 L738.56,48 L705.92,80.64 L704.96,79.68 Z M625.28,151.36 L665.92,110.72 L666.56,111.68 L625.92,152.32 L625.28,151.36 Z M700.48,76.16 L733.44,42.88 L734.4,43.84 L701.44,76.8 L700.48,76.16 Z M625.28,143.36 L665.92,102.72 L666.56,103.68 L625.92,144.32 L625.28,143.36 Z M692.48,76.16 L729.6,39.04 L730.24,39.68 L693.44,76.8 L692.48,76.16 Z M625.28,135.04 L665.92,94.4 L666.56,95.36 L625.92,136 L625.28,135.04 Z M684.16,76.16 L723.84,36.48 L724.8,37.12 L685.12,76.8 L684.16,76.16 Z M625.28,127.04 L665.92,86.4 L666.56,87.36 L625.92,128 L625.28,127.04 Z M676.16,76.16 L715.84,36.48 L716.8,37.12 L677.12,76.8 L676.16,76.16 Z M625.28,118.72 L707.52,36.48 L708.48,37.12 L625.92,119.68 L625.28,118.72 Z M625.28,110.72 L699.52,36.48 L700.48,37.12 L625.92,111.68 L625.28,110.72 Z M625.28,102.4 L691.2,36.48 L692.16,37.12 L625.92,103.36 L625.28,102.4 Z M625.28,94.4 L683.2,36.48 L684.16,37.12 L625.92,95.36 L625.28,94.4 Z M625.28,86.4 L675.2,36.48 L675.84,37.12 L625.92,87.04 L625.28,86.4 Z M625.28,78.08 L666.88,36.48 L667.84,37.12 L625.92,79.04 L625.28,78.08 Z M625.28,70.08 L658.88,36.48 L659.52,37.12 L625.92,70.72 L625.28,70.08 Z M625.28,61.76 L650.56,36.48 L651.52,37.12 L625.92,62.72 L625.28,61.76 Z M899.2,279.68 L899.52,279.36 L900.48,280 L900.16,280.32 L899.2,279.68 Z M891.2,279.68 L898.24,272.64 L899.2,273.28 L892.16,280.32 L891.2,279.68 Z M882.88,279.68 L896.96,265.6 L897.6,266.56 L883.84,280.32 L882.88,279.68 Z M874.88,279.68 L895.36,258.88 L896.32,259.84 L875.84,280.32 L874.88,279.68 Z M866.88,279.68 L894.08,252.16 L895.04,253.12 L867.52,280.32 L866.88,279.68 Z M859.52,278.72 L892.48,245.44 L893.44,246.4 L860.48,279.36 L859.52,278.72 Z M858.24,272 L891.2,238.72 L892.16,239.68 L858.88,272.64 L858.24,272 Z M856.64,265.28 L889.92,232 L890.56,232.96 L857.6,265.92 L856.64,265.28 Z M855.36,258.56 L888.32,225.28 L889.28,226.24 L856.32,259.2 L855.36,258.56 Z M853.76,251.52 L887.04,218.56 L888,219.52 L854.72,252.48 L853.76,251.52 Z M852.48,244.8 L885.44,211.84 L886.4,212.8 L853.44,245.76 L852.48,244.8 Z M809.6,279.68 L815.68,273.6 L816.32,274.56 L810.56,280.32 L809.6,279.68 Z M851.2,238.08 L884.16,205.12 L885.12,206.08 L851.84,239.04 L851.2,238.08 Z M801.6,279.68 L815.68,265.6 L816.32,266.56 L802.56,280.32 L801.6,279.68 Z M849.6,231.36 L882.56,198.4 L883.52,199.36 L850.56,232.32 L849.6,231.36 Z M793.28,279.68 L815.68,257.28 L816.32,258.24 L794.24,280.32 L793.28,279.68 Z M848.32,224.64 L881.28,191.68 L882.24,192.64 L849.28,225.6 L848.32,224.64 Z M785.28,279.68 L815.68,249.28 L816.32,250.24 L786.24,280.32 L785.28,279.68 Z M846.72,217.92 L880,184.96 L880.64,185.92 L847.68,218.88 L846.72,217.92 Z M776.96,279.68 L815.68,240.96 L816.32,241.92 L777.92,280.32 L776.96,279.68 Z M845.44,211.2 L899.84,156.8 L900.48,157.76 L846.4,212.16 L845.44,211.2 Z M775.04,273.6 L815.68,232.96 L816.32,233.92 L775.68,274.56 L775.04,273.6 Z M843.84,204.48 L899.84,148.8 L900.48,149.76 L844.8,205.44 L843.84,204.48 Z M775.04,265.6 L815.68,224.96 L816.32,225.6 L775.68,266.24 L775.04,265.6 Z M842.56,197.76 L899.84,140.8 L900.48,141.44 L843.52,198.72 L842.56,197.76 Z M775.04,257.28 L815.68,216.64 L816.32,217.6 L775.68,258.24 L775.04,257.28 Z M841.28,191.04 L899.84,132.48 L900.48,133.44 L841.92,192 L841.28,191.04 Z M775.04,249.28 L815.68,208.64 L816.32,209.6 L775.68,250.24 L775.04,249.28 Z M839.36,184.96 L899.84,124.48 L900.48,125.44 L840.32,185.6 L839.36,184.96 Z M775.04,240.96 L815.68,200.32 L816.32,201.28 L775.68,241.92 L775.04,240.96 Z M831.04,184.96 L899.84,116.16 L900.48,117.12 L832,185.6 L831.04,184.96 Z M775.04,232.96 L815.68,192.32 L816.32,193.28 L775.68,233.92 L775.04,232.96 Z M823.04,184.96 L899.84,108.16 L900.48,109.12 L824,185.6 L823.04,184.96 Z M775.04,224.64 L854.08,145.6 L855.04,146.24 L775.68,225.6 L775.04,224.64 Z M859.2,140.48 L899.84,99.84 L900.48,100.8 L859.84,141.44 L859.2,140.48 Z M775.04,216.64 L846.08,145.6 L847.04,146.24 L775.68,217.6 L775.04,216.64 Z M859.2,132.48 L899.84,91.84 L900.48,92.8 L859.84,133.44 L859.2,132.48 Z M775.04,208.32 L837.76,145.6 L838.72,146.24 L775.68,209.28 L775.04,208.32 Z M859.2,124.16 L899.84,83.52 L900.48,84.48 L859.84,125.12 L859.2,124.16 Z M775.04,200.32 L829.76,145.6 L830.72,146.24 L775.68,201.28 L775.04,200.32 Z M859.2,116.16 L899.84,75.52 L900.48,76.48 L859.84,117.12 L859.2,116.16 Z M775.04,192 L821.44,145.6 L822.4,146.24 L775.68,192.96 L775.04,192 Z M859.2,107.84 L899.84,67.2 L900.48,68.16 L859.84,108.8 L859.2,107.84 Z M775.04,184 L815.68,143.36 L816.32,144.32 L775.68,184.96 L775.04,184 Z M859.2,99.84 L899.84,59.2 L900.48,60.16 L859.84,100.8 L859.2,99.84 Z M775.04,176 L815.68,135.36 L816.32,136 L775.68,176.64 L775.04,176 Z M859.2,91.84 L897.28,53.76 L897.92,54.4 L859.84,92.48 L859.2,91.84 Z M775.04,167.68 L815.68,127.04 L816.32,128 L775.68,168.64 L775.04,167.68 Z M859.2,83.52 L893.12,49.6 L894.08,50.56 L859.84,84.48 L859.2,83.52 Z M775.04,159.68 L815.68,119.04 L816.32,119.68 L775.68,160.32 L775.04,159.68 Z M856.64,78.08 L888.96,45.44 L889.92,46.4 L857.28,78.72 L856.64,78.08 Z M775.04,151.36 L815.68,110.72 L816.32,111.68 L775.68,152.32 L775.04,151.36 Z M850.24,76.16 L884.8,41.28 L885.76,42.24 L851.2,76.8 L850.24,76.16 Z M775.04,143.36 L815.68,102.72 L816.32,103.68 L775.68,144.32 L775.04,143.36 Z M842.24,76.16 L880.96,37.44 L881.6,38.08 L843.2,76.8 L842.24,76.16 Z M775.04,135.04 L815.68,94.4 L816.32,95.36 L775.68,136 L775.04,135.04 Z M833.92,76.16 L873.6,36.48 L874.56,37.12 L834.88,76.8 L833.92,76.16 Z M775.04,127.04 L815.68,86.4 L816.32,87.36 L775.68,128 L775.04,127.04 Z M825.92,76.16 L865.6,36.48 L866.56,37.12 L826.88,76.8 L825.92,76.16 Z M775.04,118.72 L815.68,78.08 L816.32,79.04 L775.68,119.68 L775.04,118.72 Z M817.6,76.16 L857.28,36.48 L858.24,37.12 L818.56,76.8 L817.6,76.16 Z M775.04,110.72 L849.28,36.48 L850.24,37.12 L775.68,111.68 L775.04,110.72 Z M775.04,102.4 L840.96,36.48 L841.92,37.12 L775.68,103.36 L775.04,102.4 Z M775.04,94.4 L832.96,36.48 L833.92,37.12 L775.68,95.36 L775.04,94.4 Z M775.04,86.4 L824.96,36.48 L825.6,37.12 L775.68,87.04 L775.04,86.4 Z M775.04,78.08 L816.64,36.48 L817.6,37.12 L775.68,79.04 L775.04,78.08 Z M775.04,70.08 L808.64,36.48 L809.28,37.12 L775.68,70.72 L775.04,70.08 Z M775.04,61.76 L800.32,36.48 L801.28,37.12 L775.68,62.72 L775.04,61.76 Z M775.04,53.76 L792.32,36.48 L793.28,37.12 L775.68,54.72 L775.04,53.76 Z M775.04,45.44 L784,36.48 L784.96,37.12 L775.68,46.4 L775.04,45.44 Z M775.04,37.44 L776,36.48 L776.96,37.12 L775.68,38.4 L775.04,37.44 Z M1025.28,279.68 L1048.32,256.64 L1048.96,257.6 L1026.24,280.32 L1025.28,279.68 Z M1017.28,279.68 L1048.32,248.64 L1048.96,249.28 L1017.92,280.32 L1017.28,279.68 Z M1008.96,279.68 L1048.32,240.32 L1048.96,241.28 L1009.92,280.32 L1008.96,279.68 Z M1000.96,279.68 L1048.32,232.32 L1048.96,232.96 L1001.6,280.32 L1000.96,279.68 Z M992.64,279.68 L1048.32,224 L1048.96,224.96 L993.6,280.32 L992.64,279.68 Z M984.64,279.68 L1048.32,216 L1048.96,216.96 L985.6,280.32 L984.64,279.68 Z M976.32,279.68 L1048.32,207.68 L1048.96,208.64 L977.28,280.32 L976.32,279.68 Z M968.32,279.68 L1048.32,199.68 L1048.96,200.64 L969.28,280.32 L968.32,279.68 Z M960,279.68 L999.68,240 L1000.64,240.64 L960.96,280.32 L960,279.68 Z M1007.04,232.64 L1048.32,191.36 L1048.96,192.32 L1007.68,233.6 L1007.04,232.64 Z M952,279.68 L991.68,240 L992.64,240.64 L952.96,280.32 L952,279.68 Z M1007.04,224.64 L1048.32,183.36 L1048.96,184.32 L1007.68,225.6 L1007.04,224.64 Z M943.68,279.68 L983.36,240 L984.32,240.64 L944.64,280.32 L943.68,279.68 Z M1007.04,216.32 L1048.32,175.04 L1048.96,176 L1007.68,217.28 L1007.04,216.32 Z M935.68,279.68 L975.36,240 L976.32,240.64 L936.64,280.32 L935.68,279.68 Z M1007.04,208.32 L1048.32,167.04 L1048.96,168 L1007.68,209.28 L1007.04,208.32 Z M927.36,279.68 L967.04,240 L968,240.64 L928.32,280.32 L927.36,279.68 Z M1007.04,200 L1048.32,158.72 L1048.96,159.68 L1007.68,200.96 L1007.04,200 Z M925.44,273.6 L966.4,232.64 L967.04,233.6 L926.08,274.56 L925.44,273.6 Z M1007.04,192 L1048.32,150.72 L1048.96,151.68 L1007.68,192.96 L1007.04,192 Z M925.44,265.6 L966.4,224.64 L967.04,225.28 L926.08,266.24 L925.44,265.6 Z M1007.04,184 L1048.32,142.72 L1048.96,143.36 L1007.68,184.64 L1007.04,184 Z M925.44,257.28 L966.4,216.32 L967.04,217.28 L926.08,258.24 L925.44,257.28 Z M1007.04,175.68 L1048.32,134.4 L1048.96,135.36 L1007.68,176.64 L1007.04,175.68 Z M925.44,249.28 L966.4,208.32 L967.04,209.28 L926.08,250.24 L925.44,249.28 Z M1007.04,167.68 L1048.32,126.4 L1048.96,127.36 L1007.68,168.64 L1007.04,167.68 Z M925.44,240.96 L966.4,200 L967.04,200.96 L926.08,241.92 L925.44,240.96 Z M1007.04,159.36 L1048.32,118.08 L1048.96,119.04 L1007.68,160.32 L1007.04,159.36 Z M925.44,232.96 L966.4,192 L967.04,192.96 L926.08,233.92 L925.44,232.96 Z M1007.04,151.36 L1048.32,110.08 L1048.96,111.04 L1007.68,152.32 L1007.04,151.36 Z M925.44,224.64 L966.4,183.68 L967.04,184.64 L926.08,225.6 L925.44,224.64 Z M1007.04,143.04 L1048.32,101.76 L1048.96,102.72 L1007.68,144 L1007.04,143.04 Z M925.44,216.64 L966.4,175.68 L967.04,176.64 L926.08,217.6 L925.44,216.64 Z M1007.04,135.04 L1048.32,93.76 L1048.96,94.72 L1007.68,136 L1007.04,135.04 Z M925.44,208.32 L966.4,167.36 L967.04,168.32 L926.08,209.28 L925.44,208.32 Z M1007.04,126.72 L1048.32,85.44 L1048.96,86.4 L1007.68,127.68 L1007.04,126.72 Z M925.44,200.32 L966.4,159.36 L967.04,160.32 L926.08,201.28 L925.44,200.32 Z M1007.04,118.72 L1048.32,77.44 L1048.96,78.4 L1007.68,119.68 L1007.04,118.72 Z M925.44,192 L966.4,151.04 L967.04,152 L926.08,192.96 L925.44,192 Z M1007.04,110.4 L1048.32,69.12 L1048.96,70.08 L1007.68,111.36 L1007.04,110.4 Z M925.44,184 L966.4,143.04 L967.04,144 L926.08,184.96 L925.44,184 Z M1007.04,102.4 L1048.32,61.12 L1048.96,62.08 L1007.68,103.36 L1007.04,102.4 Z M925.44,176 L966.4,135.04 L967.04,135.68 L926.08,176.64 L925.44,176 Z M1007.04,94.4 L1046.72,54.72 L1047.36,55.36 L1007.68,95.04 L1007.04,94.4 Z M925.44,167.68 L966.4,126.72 L967.04,127.68 L926.08,168.64 L925.44,167.68 Z M1007.04,86.08 L1042.56,50.56 L1043.52,51.52 L1007.68,87.04 L1007.04,86.08 Z M925.44,159.68 L966.4,118.72 L967.04,119.36 L926.08,160.32 L925.44,159.68 Z M1006.08,79.04 L1038.4,46.4 L1039.36,47.36 L1007.04,79.68 L1006.08,79.04 Z M925.44,151.36 L966.4,110.4 L967.04,111.36 L926.08,152.32 L925.44,151.36 Z M1001.6,75.2 L1034.24,42.24 L1035.2,43.2 L1002.56,75.84 L1001.6,75.2 Z M925.44,143.36 L966.4,102.4 L967.04,103.36 L926.08,144.32 L925.44,143.36 Z M993.6,75.2 L1030.4,38.4 L1031.04,39.04 L994.56,75.84 L993.6,75.2 Z M925.44,135.04 L966.4,94.08 L967.04,95.04 L926.08,136 L925.44,135.04 Z M985.28,75.2 L1024,36.48 L1024.96,37.12 L986.24,75.84 L985.28,75.2 Z M925.44,127.04 L966.4,86.08 L967.04,87.04 L926.08,128 L925.44,127.04 Z M977.28,75.2 L1016,36.48 L1016.96,37.12 L978.24,75.84 L977.28,75.2 Z M925.44,118.72 L966.4,77.76 L967.04,78.72 L926.08,119.68 L925.44,118.72 Z M968.96,75.2 L1007.68,36.48 L1008.64,37.12 L969.92,75.84 L968.96,75.2 Z M925.44,110.72 L999.68,36.48 L1000.64,37.12 L926.08,111.68 L925.44,110.72 Z M925.44,102.4 L991.36,36.48 L992.32,37.12 L926.08,103.36 L925.44,102.4 Z M925.44,94.4 L983.36,36.48 L984.32,37.12 L926.08,95.36 L925.44,94.4 Z M925.44,86.4 L975.36,36.48 L976,37.12 L926.08,87.04 L925.44,86.4 Z M925.44,78.08 L967.04,36.48 L968,37.12 L926.08,79.04 L925.44,78.08 Z M925.44,70.08 L959.04,36.48 L959.68,37.12 L926.08,70.72 L925.44,70.08 Z M925.44,61.76 L950.72,36.48 L951.68,37.12 L926.08,62.72 L925.44,61.76 Z M925.44,53.76 L942.72,36.48 L943.68,37.12 L926.08,54.72 L925.44,53.76 Z M925.44,45.44 L934.4,36.48 L935.36,37.12 L926.08,46.4 L925.44,45.44 Z M925.44,37.44 L926.4,36.48 L927.36,37.12 L926.08,38.4 L925.44,37.44 Z" id="Sanford" fill="#494A36"></path>
            <path d="M1194.49219,292.446289 C1178.16073,287.254206 1166.54951,279.088597 1159.6582,267.949219 C1152.76689,256.80984 1149.32129,243.216226 1149.32129,227.167969 L1149.32129,192.475586 C1149.32129,180.014586 1146.44209,170.338576 1140.68359,163.447266 C1134.9251,156.555955 1126.00429,153.110352 1113.9209,153.110352 L1113.9209,143.764648 C1126.00429,143.764648 1134.9251,140.366245 1140.68359,133.569336 C1146.44209,126.772427 1149.32129,117.143617 1149.32129,104.682617 L1149.32129,69.7070312 C1149.32129,53.5643724 1152.76689,39.8527582 1159.6582,28.5717773 C1166.54951,17.2907965 1178.16073,9.05438794 1194.49219,3.86230469 L1196.61621,10.234375 C1183.11679,14.5768446 1173.13398,21.9164522 1166.66748,32.253418 C1160.20098,42.5903837 1156.96777,55.0747966 1156.96777,69.7070312 L1156.96777,104.682617 C1156.96777,116.010799 1154.51337,125.545209 1149.60449,133.286133 C1144.69561,141.027057 1137.19081,146.077462 1127.08984,148.4375 C1137.19081,150.891939 1144.69561,156.036745 1149.60449,163.87207 C1154.51337,171.707396 1156.96777,181.241806 1156.96777,192.475586 L1156.96777,227.167969 C1156.96777,241.705802 1160.29538,253.977815 1166.95068,263.984375 C1173.60599,273.990935 1183.7304,281.306943 1197.32422,285.932617 L1194.49219,292.446289 Z M1327.59766,205.50293 C1322.59438,213.904664 1315.65597,220.583471 1306.78223,225.539551 C1297.90848,230.49563 1287.43007,232.973633 1275.34668,232.973633 C1257.31599,232.973633 1243.22678,226.082426 1233.07861,212.299805 C1222.93045,198.517184 1217.85645,179.825964 1217.85645,156.225586 L1217.85645,153.251953 C1217.85645,128.990764 1222.95405,109.709544 1233.14941,95.4077148 C1243.34478,81.1058855 1257.50479,73.9550781 1275.62988,73.9550781 C1287.71328,73.9550781 1298.09729,76.716281 1306.78223,82.2387695 C1315.46717,87.7612581 1322.40557,95.3368659 1327.59766,104.96582 L1327.59766,16.7480469 L1304.5166,16.7480469 L1304.5166,9.1015625 L1335.24414,9.1015625 L1335.24414,222.353516 L1358.3252,222.353516 L1358.3252,230 L1327.88086,230 L1327.59766,205.50293 Z M1225.78613,156.225586 C1225.78613,177.371525 1229.96334,194.174742 1238.31787,206.635742 C1246.67241,219.096742 1258.96802,225.327148 1275.20508,225.327148 C1288.51569,225.327148 1299.5841,222.306345 1308.41064,216.264648 C1317.23719,210.222952 1323.63279,202.151743 1327.59766,192.050781 L1327.59766,120.258789 C1323.916,109.308213 1317.96879,100.127804 1309.75586,92.7172852 C1301.54293,85.3067663 1290.12052,81.6015625 1275.48828,81.6015625 C1259.25122,81.6015625 1246.90841,88.2331694 1238.45947,101.496582 C1230.01054,114.759995 1225.78613,132.011613 1225.78613,153.251953 L1225.78613,156.225586 Z M1453.90625,232.973633 C1436.44197,232.973633 1421.36155,225.917226 1408.66455,211.804199 C1395.96755,197.691173 1389.61914,180.156355 1389.61914,159.199219 L1389.61914,150.136719 C1389.61914,128.141166 1395.75515,109.945547 1408.02734,95.5493164 C1420.29954,81.1530856 1435.45076,73.9550781 1453.48145,73.9550781 C1470.75692,73.9550781 1484.84614,79.619084 1495.74951,90.9472656 C1506.65289,102.275447 1512.10449,117.473863 1512.10449,136.542969 L1512.10449,148.295898 L1397.26562,148.295898 L1397.26562,159.199219 C1397.26562,177.701915 1402.69363,193.348732 1413.5498,206.140137 C1424.40598,218.931542 1437.85799,225.327148 1453.90625,225.327148 C1465.32883,225.327148 1474.88684,223.769547 1482.58057,220.654297 C1490.27429,217.539047 1496.8587,212.866242 1502.33398,206.635742 L1506.44043,212.583008 C1500.39873,219.285515 1493.05913,224.359521 1484.42139,227.805176 C1475.78365,231.250831 1465.61204,232.973633 1453.90625,232.973633 Z M1453.48145,81.6015625 C1438.2828,81.6015625 1425.63319,87.1475682 1415.53223,98.2397461 C1405.43126,109.331924 1399.72006,123.185138 1398.39844,139.799805 L1398.82324,140.649414 L1504.45801,140.649414 L1504.45801,135.976562 C1504.45801,120.400313 1499.738,107.443899 1490.29785,97.1069336 C1480.8577,86.7699678 1468.58569,81.6015625 1453.48145,81.6015625 Z M1582.48047,84.4335938 L1562.37305,84.4335938 L1606.69434,197.573242 L1613.91602,218.24707 L1614.76562,218.24707 L1622.12891,197.573242 L1666.30859,84.4335938 L1646.20117,84.4335938 L1646.20117,76.7871094 L1691.23047,76.7871094 L1691.23047,84.4335938 L1674.52148,84.4335938 L1617.88086,229.858398 L1618.02246,230 L1610.65918,230 L1554.16016,84.4335938 L1537.45117,84.4335938 L1537.45117,76.7871094 L1582.48047,76.7871094 L1582.48047,84.4335938 Z M1698.87695,285.932617 C1712.37637,281.306943 1722.45358,273.990935 1729.10889,263.984375 C1735.76419,253.977815 1739.0918,241.705802 1739.0918,227.167969 L1739.0918,192.475586 C1739.0918,181.241806 1741.5226,171.707396 1746.38428,163.87207 C1751.24596,156.036745 1758.77436,150.891939 1768.96973,148.4375 C1758.77436,146.077462 1751.24596,141.027057 1746.38428,133.286133 C1741.5226,125.545209 1739.0918,116.010799 1739.0918,104.682617 L1739.0918,69.7070312 C1739.0918,55.0747966 1735.85859,42.5903837 1729.39209,32.253418 C1722.92559,21.9164522 1712.98998,14.5768446 1699.58496,10.234375 L1701.56738,3.86230469 C1717.80444,9.05438794 1729.39206,17.2907965 1736.33057,28.5717773 C1743.26908,39.8527582 1746.73828,53.5643724 1746.73828,69.7070312 L1746.73828,104.682617 C1746.73828,117.143617 1749.61748,126.772427 1755.37598,133.569336 C1761.13447,140.366245 1770.05528,143.764648 1782.13867,143.764648 L1782.13867,153.110352 C1770.05528,153.110352 1761.13447,156.579555 1755.37598,163.518066 C1749.61748,170.456578 1746.73828,180.108988 1746.73828,192.475586 L1746.73828,227.167969 C1746.73828,243.310628 1743.29268,256.927842 1736.40137,268.02002 C1729.51006,279.112197 1717.89884,287.254206 1701.56738,292.446289 L1698.87695,285.932617 Z" id="{dev}" fill="#494A36"></path>
        </g>
    </g>
</svg>