<?xml version="1.0" encoding="UTF-8"?>
<svg width="1850px" height="757px" viewBox="0 0 1850 757" version="1.1" xmlns="http://www.w3.org/2000/svg" xmlns:xlink="http://www.w3.org/1999/xlink">
    <!-- Generator: Sketch 49 (51002) - http://www.bohemiancoding.com/sketch -->
    <title>Group</title>
    <desc>Created with Sketch.</desc>
    <defs></defs>
    <g id="Page-1" stroke="none" stroke-width="1" fill="none" fill-rule="evenodd">
        <g id="Group" transform="translate(0.000000, -76.000000)">
            <path d="M31.8317952,102.711137 C45.4514374,93.5362009 61.2088102,87.287847 79.1043866,83.9658875 C96.9999629,80.6439279 114.261809,81.1975796 130.890441,85.6268589 C147.519074,90.0561382 159.634039,98.4400055 167.2357,110.778712 C171.353266,117.422631 173.491201,121.693658 173.649569,123.591921 C173.807937,125.490183 172.303464,128.179348 169.136106,131.659496 C165.335275,136.088775 160.584309,138.540661 154.883063,139.015227 C149.181818,139.489792 143.639023,137.987024 138.254513,134.506876 C131.919796,130.077596 123.130508,126.518407 111.886385,123.829202 C100.642261,121.139997 88.8440274,120.981811 76.4913287,123.354639 C64.13863,125.727467 55.58689,131.659449 50.835852,141.150762 C47.3517575,148.427435 46.9558436,155.150347 49.6480985,161.319701 C52.3403533,167.489054 57.4872339,171.206429 65.0888946,172.471937 C68.5729892,173.421069 79.8961264,176.584792 99.0586462,181.963203 C118.221166,187.341613 130.0194,190.030778 134.453702,190.030778 C140.471684,190.030778 149.340155,194.301805 161.059382,202.843987 C172.778609,211.386168 179.746693,218.504546 181.963844,224.199334 C186.08141,234.639778 188.377711,241.758156 188.852815,245.554681 C189.327919,249.351206 188.615274,254.57135 186.714858,261.215269 C183.864236,271.022959 178.163076,280.830502 169.611207,290.638192 C161.059339,300.445882 151.557405,308.038818 141.105122,313.417229 C133.820197,317.213754 126.852113,319.66564 120.200659,320.772959 C113.549206,321.880279 103.413811,322.433931 89.7941685,322.433931 C74.590847,322.433931 64.2179031,321.801186 58.6750255,320.535678 C53.1321478,319.270169 46.4016117,316.264632 38.4832151,311.518976 C18.8455915,299.180269 6.65144365,283.203465 1.90040568,263.588085 C-9.50202842e-06,256.627789 1.74201162,250.458528 7.12652131,245.080118 C18.5290124,233.690542 29.6146014,234.323287 40.3836208,246.978371 C56.220414,265.960997 66.4349924,277.429494 71.0276624,281.384208 C75.6203324,285.338922 81.4006753,287.316249 88.3688643,287.316249 C99.4546195,287.316249 112.123864,283.203408 126.376978,274.977604 C140.630092,266.751799 147.756542,259.317049 147.756542,252.67313 C147.756542,248.560228 143.163941,242.944619 133.978601,235.826134 C124.793261,228.707649 117.350079,225.14846 111.648834,225.14846 C104.047173,225.14846 89.9526386,221.589271 69.3648074,214.470787 C48.7769763,207.352302 34.6824417,201.262134 27.080781,196.200101 C19.7958561,191.138067 13.4612338,184.652434 8.07672415,176.743007 C2.69221446,168.833579 0,162.18976 0,156.811349 C0,149.851053 3.6424078,140.28079 10.9273327,128.100272 C18.2122576,115.919753 25.180342,107.456793 31.8317952,102.711137 Z M357.826386,101.287447 C362.577424,94.0107736 366.378197,89.5024676 369.22882,87.7623936 C372.079443,86.0223196 376.988775,85.1522956 383.956964,85.1522956 C393.142304,85.1522956 399.714475,86.4968781 403.673673,89.1860834 C407.632871,91.8752887 409.612441,96.3835947 409.612441,102.711137 C409.612441,105.55853 410.562634,108.801347 412.463049,112.439684 C414.363464,116.07802 418.164238,124.936446 423.865483,139.015227 C429.566729,153.094008 435.742986,171.364511 442.394439,193.827285 C448.41242,213.759042 454.271946,231.3968 459.973191,246.741089 C465.674437,262.085378 470.02949,272.762945 473.03848,278.77411 C476.047471,284.785275 478.422954,290.163605 480.165002,294.909261 C481.907049,299.654918 482.619694,303.05592 482.302958,305.112371 C481.986222,307.168823 480.719298,310.095267 478.502147,313.891792 C474.384581,320.852088 468.366689,324.648556 460.448293,325.28131 C455.380519,325.914065 451.658928,325.044041 449.283409,322.671212 C446.90789,320.298384 442.869569,312.942727 437.168323,300.60402 C428.933191,283.519657 424.815686,272.604811 424.815686,267.859155 C424.815686,260.898859 421.331644,256.469646 414.363455,254.571383 C407.395266,252.673121 391.875441,252.198562 367.803516,253.147693 C348.482628,253.780448 334.86319,254.887751 326.944794,256.469636 C319.026397,258.051522 312.770957,260.898873 308.178287,265.011775 C303.585617,269.124677 298.280371,276.559428 292.26239,287.316249 C282.126842,305.349743 273.495919,317.05552 266.369362,322.433931 C259.242805,327.812341 252.670635,327.495969 246.652653,321.484804 C241.901615,316.739148 240.793057,310.174422 243.326943,301.790429 C245.86083,293.406436 253.145646,278.932401 265.181609,258.367889 L281.810159,228.944967 C284.977517,222.933802 292.103967,210.516187 303.189722,191.69175 C314.275478,172.867313 322.510487,157.918719 327.894996,146.845521 C331.062355,140.834356 334.229666,135.930585 337.397025,132.134059 C340.564383,128.337534 343.01905,125.727462 344.761097,124.303765 C346.503144,122.880069 347.374155,121.535486 347.374155,120.269978 C347.374155,118.055338 350.858197,111.727891 357.826386,101.287447 Z M394.409195,199.996607 C393.775724,193.985442 392.192068,186.946157 389.658181,178.878542 C387.124294,170.810926 384.590445,164.167106 382.056558,158.946884 C379.522671,153.726662 377.939016,151.11659 377.305544,151.11659 C376.038601,151.11659 373.583935,153.331197 369.941472,157.760476 C366.29901,162.189755 363.210881,166.618968 360.676994,171.048248 L346.423952,196.200101 C340.089234,206.640545 338.109665,212.888899 340.485184,214.94535 C342.860703,217.001801 353.075281,217.555453 371.129226,216.606322 L395.8345,215.657195 L394.409195,199.996607 Z M641.514679,269.757408 C641.514679,267.859145 638.901647,263.983584 633.675506,258.130608 C628.449364,252.277631 625.836332,247.927512 625.836332,245.080118 C625.836332,241.916347 623.302483,236.61711 618.23471,229.182248 C613.166936,221.747386 610.474721,216.764522 610.157985,214.233505 C610.157985,210.43698 606.753126,203.555881 599.943305,193.590003 C593.133484,183.624124 588.778431,179.274005 586.878016,180.539513 C584.344129,182.121398 583.077204,202.843787 583.077204,242.707301 C583.077204,260.740796 582.918839,274.582086 582.602103,284.231588 C582.285367,293.881089 581.414357,301.790398 579.989045,307.959751 C578.563734,314.129104 576.663347,318.083759 574.287828,319.823833 C571.912309,321.563907 568.665815,322.433931 564.548249,322.433931 C556.313116,322.433931 551.087053,320.219324 548.869902,315.790045 C545.702543,309.462503 544.277253,285.101832 544.593989,242.707301 L544.593989,241.283612 C544.910725,184.968489 546.019284,145.342852 547.919699,122.405512 C549.820114,99.4681729 552.987426,86.2596273 557.421728,82.7794793 C565.65686,76.7683145 573.179224,76.2146628 579.989045,81.1185078 C586.798866,86.0223528 594.32123,97.016292 602.556363,114.100655 L618.709811,147.794647 C623.460849,157.28596 625.836332,163.771593 625.836332,167.251741 C625.836332,169.782758 628.449364,174.844716 633.675506,182.437766 C638.901647,190.030816 641.514679,195.25096 641.514679,198.098354 C641.831415,202.211256 647.136661,209.804193 657.430577,220.877391 C667.724492,231.950589 674.455028,236.854361 677.622387,235.588852 C679.839538,234.956098 681.106463,227.679534 681.423198,213.758942 C681.739934,199.83835 681.502386,184.573384 680.710546,167.963586 C679.918707,151.353789 679.839524,134.902427 680.472996,118.609006 C681.106467,102.315586 683.006854,91.7962051 686.174213,87.0505487 C689.658307,81.355761 693.854994,78.2711306 698.7644,77.7965649 C703.673806,77.3219993 708.187225,79.2993265 712.304791,83.7286058 C715.155414,86.8923768 717.0558,95.9880818 718.006008,111.015994 C718.956215,126.043906 719.589678,157.602048 719.906414,205.691366 L721.331718,320.535678 L706.603574,321.484804 C700.268856,322.117558 694.96361,321.247534 690.687676,318.874706 C686.411742,316.501878 678.414281,309.778966 666.695054,298.705767 C649.908054,282.570535 641.514679,272.921179 641.514679,269.757408 Z M859.761269,84.2031691 C874.331118,82.6212836 898.87778,81.9094458 933.401989,82.0676344 C967.926198,82.2258229 989.780645,82.9376607 998.965985,84.2031691 C1005.93417,85.4686775 1010.68514,86.81326 1013.21903,88.2369569 C1015.75291,89.6606538 1017.1782,92.2707257 1017.49494,96.0672508 C1018.76188,103.343924 1017.17823,108.484975 1012.74393,111.490557 C1008.30962,114.49614 1000.70808,115.998908 989.939058,115.998908 C974.735736,115.998908 952.485376,117.58077 923.187308,120.744541 C893.889241,123.908312 878.290234,126.281104 876.389818,127.86299 C874.489403,130.07763 872.747382,137.037821 871.163703,148.743774 C869.580023,162.980743 871.163679,171.60189 875.914717,174.607472 C880.665755,177.613054 893.176634,178.324892 913.447729,176.743007 C933.402089,175.161121 946.783978,175.477494 953.593799,177.692133 C960.40362,179.906773 963.80848,185.126917 963.80848,193.352721 C963.80848,201.894903 961.195448,207.352326 955.969306,209.725154 C950.743165,212.097982 938.786565,213.284379 920.099149,213.284379 C897.610903,213.284379 882.882906,214.708054 875.914717,217.555448 L865.462486,221.351954 L868.313094,265.960902 C869.580038,285.892659 869.975952,298.863925 869.500848,304.87509 C869.025744,310.886255 867.20454,315.63184 864.037181,319.111988 C859.602879,323.857644 853.901719,326.230437 846.93353,326.230437 C839.965341,326.230437 834.105816,323.699458 829.354778,318.637425 C826.187419,314.840899 824.366215,307.564335 823.891111,296.807514 C823.416008,286.050693 823.811921,257.418995 825.078865,210.911562 C826.345808,165.669638 827.53355,136.958847 828.642126,124.778329 C829.750701,112.597811 832.047002,103.660292 835.531096,97.9655039 C839.015191,92.9034704 842.261685,89.5024676 845.270675,87.7623936 C848.279666,86.0223196 853.109815,84.8359233 859.761269,84.2031691 Z M1148.82298,87.0505487 C1156.74137,82.6212694 1167.03513,80.8021284 1179.70457,81.5930711 C1192.374,82.3840138 1204.09305,85.4686442 1214.86207,90.8470549 C1229.43192,98.1237281 1243.84319,110.936808 1258.0963,129.28668 C1272.34942,147.636551 1281.37625,165.037031 1285.17708,181.48864 C1291.19506,206.166053 1288.66122,231.396748 1277.57546,257.181481 C1266.4897,282.966214 1250.49478,301.55309 1229.59022,312.942665 C1221.98856,317.055568 1214.94129,319.66564 1208.4482,320.772959 C1201.95512,321.880279 1191.26544,322.433931 1176.37886,322.433931 C1149.45631,322.433931 1127.83941,318.479276 1111.52751,310.569849 C1095.21562,302.660422 1080.09171,288.740038 1066.15533,268.808281 C1060.77082,261.215231 1057.44514,254.808691 1056.1782,249.588469 C1054.91125,244.368247 1054.27779,235.114355 1054.27779,221.826517 C1054.27779,205.691286 1056.41573,191.849995 1060.69166,180.302231 C1064.9676,168.754467 1073.44015,153.647688 1086.10959,134.981439 C1092.12757,126.12288 1100.60013,116.868989 1111.52751,107.219488 C1122.4549,97.5699863 1129.97726,92.745308 1134.09483,92.745308 C1137.57893,92.4289309 1142.48826,90.5306968 1148.82298,87.0505487 Z M1212.96167,145.421831 C1204.72653,136.246895 1198.55028,130.394007 1194.43271,127.86299 C1190.31515,125.331973 1185.40581,124.066484 1179.70457,124.066484 C1161.33389,124.382861 1144.38877,133.083101 1128.86872,150.167464 C1118.41643,161.557039 1111.36916,170.731837 1107.7267,177.692133 C1104.08424,184.652429 1100.99611,194.776345 1098.46222,208.064183 C1096.24507,218.18825 1095.2157,225.385721 1095.37407,229.656811 C1095.53243,233.927902 1096.87854,238.436208 1099.41243,243.181865 C1103.84673,251.407669 1108.91443,257.735116 1114.61567,262.164395 C1120.31692,266.593675 1128.71029,270.548329 1139.79605,274.028477 C1161.33409,280.356019 1181.44651,281.226043 1200.13393,276.638575 C1218.82134,272.051107 1231.01549,263.113588 1236.71674,249.82575 C1243.68493,232.741387 1245.11022,215.024536 1240.99265,196.674664 C1236.87508,178.324793 1227.53152,161.240686 1212.96167,145.421831 Z M1399.25417,77.08472 C1419.20853,75.8192116 1439.16259,75.6610255 1459.11695,76.6101568 C1479.07131,77.559288 1492.21565,79.299336 1498.55037,81.8303527 C1505.83529,84.6777466 1513.43684,90.5306351 1521.35523,99.3891937 C1526.42301,105.083981 1529.6695,109.987753 1531.09481,114.100655 C1532.52012,118.213557 1533.23277,124.541004 1533.23277,133.083186 C1533.23277,144.789138 1530.69892,154.913054 1525.63115,163.455235 C1520.56337,171.997417 1511.06144,182.279518 1497.12506,194.301848 C1489.20667,201.262144 1484.85161,205.77045 1484.05977,207.826901 C1483.26793,209.883352 1484.29731,213.758913 1487.14793,219.453701 L1499.50057,243.656428 C1503.93487,252.19861 1510.90296,260.266104 1520.40503,267.859155 C1528.32343,274.503074 1536.47925,278.299542 1544.87275,279.248673 C1553.26625,280.197804 1563.79756,278.774129 1576.467,274.977604 C1583.43519,272.762964 1588.10697,271.813847 1590.48249,272.130224 C1592.85801,272.446601 1595.31268,274.344835 1597.84656,277.824983 C1607.98211,291.745576 1603.23114,303.609539 1583.59352,313.417229 C1564.58937,323.224919 1545.18959,325.123153 1525.3936,319.111988 C1505.5976,313.100823 1487.78148,299.971371 1471.94469,279.723236 C1460.85893,265.486267 1450.24844,252.673187 1440.11289,241.283612 C1433.1447,234.006938 1427.99782,229.498632 1424.67209,227.758558 C1421.34637,226.018484 1416.35785,225.464833 1409.7064,226.097587 L1394.97826,227.046713 L1394.97826,269.757408 C1394.97826,298.231346 1393.8697,314.129057 1391.65255,317.451016 C1389.4354,320.772976 1383.25914,322.433931 1373.12359,322.433931 C1363.93825,322.433931 1358.07873,320.061138 1355.54484,315.315482 C1351.42727,307.722431 1349.84362,280.198037 1350.79382,232.741473 C1350.79382,224.832045 1350.95219,214.075385 1351.26893,200.47117 C1352.21913,143.206916 1353.96115,109.513261 1356.49504,99.3891937 C1359.34566,88.6323725 1365.04682,82.1467393 1373.59869,79.9320997 C1377.39952,78.9829684 1385.95126,78.0338513 1399.25417,77.08472 Z M1484.29732,118.371725 C1479.86302,113.942445 1475.50797,111.174187 1471.23203,110.066867 C1466.9561,108.959547 1457.37498,108.405896 1442.4884,108.405896 C1427.28508,108.405896 1417.5456,108.959547 1413.26966,110.066867 C1408.99373,111.174187 1404.32194,114.258818 1399.25417,119.320851 C1387.85168,131.343181 1385.63456,146.370867 1392.60275,164.404362 C1395.45337,172.313789 1400.04597,177.217561 1406.38069,179.115823 C1412.71541,181.014086 1423.3259,180.539527 1438.21249,177.692133 C1453.41581,175.161117 1464.58058,171.9183 1471.70714,167.963586 C1478.83369,164.008873 1484.37649,158.235077 1488.33569,150.642027 C1492.29488,143.048977 1494.0369,137.354274 1493.5618,133.557749 C1493.0867,129.761224 1489.99857,124.699266 1484.29732,118.371725 Z M1681.04206,96.5418141 C1687.06004,91.1634035 1692.2861,87.9205869 1696.7204,86.8132671 C1701.15471,85.7059472 1711.13174,85.1522956 1726.65179,85.1522956 C1740.58817,85.1522956 1750.72357,85.7850403 1757.05828,87.0505487 C1763.393,88.3160571 1770.67782,91.0052221 1778.91295,95.1181243 C1814.07063,113.467996 1836.7169,147.63621 1846.85245,197.623791 C1848.1194,203.318578 1848.99041,208.855095 1849.46551,214.233505 C1849.94061,219.611916 1850.09898,224.436594 1849.94061,228.707685 C1849.78224,232.978776 1849.22796,237.170709 1848.27776,241.283612 C1847.32755,245.396514 1846.45654,248.87661 1845.6647,251.724004 C1844.87286,254.571397 1843.52675,257.656028 1841.62634,260.977987 C1839.72592,264.299947 1838.30063,266.751833 1837.35042,268.333718 C1836.40022,269.915603 1834.73738,271.972024 1832.36186,274.50304 C1829.98634,277.034057 1828.40268,278.774105 1827.61084,279.723236 C1826.81901,280.672368 1825.23535,282.175136 1822.85983,284.231588 C1820.48431,286.288039 1819.1382,287.316249 1818.82147,287.316249 C1809.63613,296.174807 1801.55949,302.581348 1794.5913,306.536061 C1787.62311,310.490775 1778.4379,314.20815 1767.03541,317.688298 C1748.348,323.383086 1727.68129,326.467716 1705.03468,326.942282 C1682.38806,327.416848 1669.63964,324.964962 1666.78901,319.586551 C1664.57186,314.840895 1664.25513,278.299888 1665.83881,209.962436 L1668.21432,107.456769 L1681.04206,96.5418141 Z M1776.53744,143.998141 C1770.20272,138.936108 1764.89748,135.614198 1760.62154,134.032312 C1756.34561,132.450427 1749.77344,131.659496 1740.90484,131.659496 C1727.28519,131.659496 1720.00038,133.241358 1719.05017,136.405129 C1718.4167,138.619768 1716.59549,157.127551 1713.5865,191.929031 C1710.57751,226.730512 1708.59794,252.0403 1707.64774,267.859155 C1707.64774,272.288434 1708.43956,275.056692 1710.02324,276.164012 C1711.60692,277.271332 1715.72443,278.141356 1722.37588,278.77411 C1732.51143,279.723241 1746.60596,277.350449 1764.65991,271.655661 C1776.37913,267.859136 1784.21823,264.616319 1788.17743,261.927114 C1792.13663,259.237909 1795.69985,254.571416 1798.86721,247.927497 C1807.10234,232.108643 1809.00273,213.759046 1804.56843,192.878158 C1800.13412,171.99727 1790.79056,155.704094 1776.53744,143.998141 Z" id="SANFORD" fill="#000000"></path>
            <path d="M1124.13811,1010.34796 C1123.30174,1007.6702 1123.02757,1005.55059 1123.31558,1003.98908 C1123.60359,1002.42756 1124.86521,999.193486 1127.10049,994.28675 C1129.10767,989.880701 1130.76779,986.767543 1132.08088,984.947182 C1133.39397,983.126821 1135.29471,981.211263 1137.78315,979.200452 C1148.65736,970.729827 1162.7386,968.494523 1180.02729,972.494473 C1182.01306,972.914672 1183.89168,973.437236 1185.66322,974.062182 C1187.43476,974.687127 1188.98534,975.332405 1190.315,975.998035 C1191.64466,976.663666 1192.89224,977.443057 1194.05776,978.336232 C1195.22329,979.229408 1196.19984,980.006343 1196.98744,980.667061 C1197.77504,981.327779 1198.55794,982.197922 1199.33616,983.277517 C1200.11437,984.357112 1200.6855,985.161097 1201.04956,985.689495 C1201.41362,986.217893 1201.82531,987.039984 1202.28464,988.155792 C1202.74397,989.2716 1203.06688,990.023061 1203.25339,990.410196 C1203.43989,990.797331 1203.68767,991.514594 1203.99673,992.562007 C1204.30578,993.609419 1204.4375,994.183186 1204.39188,994.283323 C1205.87409,998.46403 1206.73952,1001.94083 1206.98822,1004.71382 C1207.23691,1007.4868 1207.09115,1010.92651 1206.55091,1015.03302 C1205.66275,1021.76188 1203.663,1028.74032 1200.55159,1035.96855 C1197.44019,1043.19677 1194.82769,1046.87387 1192.71402,1046.99996 C1190.89195,1047.01696 1179.27536,1041.85071 1157.86391,1031.50104 L1125.7469,1015.97661 L1124.13811,1010.34796 Z M1152.91923,986.996204 C1150.40394,988.269399 1148.58794,989.467914 1147.47119,990.591784 C1146.35443,991.715654 1145.15742,993.679484 1143.88012,996.483334 C1141.91855,1000.78925 1141.37026,1003.32035 1142.23524,1004.07674 C1142.84528,1004.59619 1148.4436,1007.83937 1159.03037,1013.80636 C1169.61713,1019.77335 1177.34655,1024.04692 1182.21885,1026.62719 C1183.62141,1027.26555 1184.61204,1027.41418 1185.19077,1027.07308 C1185.7695,1026.73199 1186.63803,1025.55561 1187.79637,1023.54392 C1189.55669,1020.47631 1190.8353,1015.67828 1191.63222,1009.1497 C1192.11789,1004.89745 1192.22005,1001.95172 1191.93872,1000.31242 C1191.65739,998.673129 1190.6929,996.874051 1189.04524,994.915136 C1185.22215,990.031704 1179.68533,986.786293 1172.43459,985.178806 C1165.18386,983.571319 1158.6788,984.177112 1152.91923,986.996204 Z M1170.12391,879.199416 C1166.7831,876.839673 1164.81795,874.758245 1164.22841,872.955069 C1163.63886,871.151893 1164.9715,861.935577 1168.22636,845.305842 C1170.6065,833.550894 1172.18798,826.433648 1172.97086,823.95389 C1173.75374,821.474131 1174.80408,820.030787 1176.12192,819.623813 C1177.89316,819.196301 1179.59244,819.540058 1181.21982,820.655094 C1182.84719,821.77013 1184.0038,823.407347 1184.68968,825.566793 C1185.03262,826.646515 1185.03389,828.44292 1184.6935,830.956062 C1184.35311,833.469203 1183.81588,837.093142 1183.0818,841.82799 C1182.34771,846.562837 1181.89974,851.271296 1181.73788,855.953509 L1181.03266,866.924619 L1197.05463,870.165787 L1200.42443,855.187164 C1201.99405,848.544516 1203.12083,844.366284 1203.80481,842.652344 C1204.48878,840.938403 1205.48967,839.877962 1206.8075,839.470989 C1208.57875,839.043476 1210.00895,839.052151 1211.09815,839.497012 C1212.18735,839.941874 1212.97822,841.028003 1213.47079,842.75543 C1213.96337,844.482858 1214.16854,846.797612 1214.08632,849.699763 C1214.00409,852.601913 1213.66627,856.350386 1213.07283,860.945294 L1211.62007,873.112303 L1232.82087,877.401122 L1237.04033,859.058182 C1239.74543,846.807669 1242.00669,839.799873 1243.82418,838.034586 C1245.40405,836.333489 1246.73889,835.565123 1247.82873,835.729462 C1248.91858,835.893802 1250.24891,837.08906 1251.81976,839.315271 C1253.04639,841.022803 1253.5489,843.117061 1253.32732,845.598107 C1253.10574,848.079152 1251.78307,855.304884 1249.35926,867.275519 C1247.24116,877.736344 1245.71973,884.557025 1244.79491,887.737767 C1243.8701,890.918508 1242.86696,892.960762 1241.78545,893.864588 C1240.48817,894.724762 1238.03204,894.929519 1234.41699,894.478865 C1230.80194,894.02821 1221.7118,892.329643 1207.1463,889.383112 C1192.90447,886.50206 1183.73405,884.506605 1179.63478,883.396689 C1175.5355,882.286774 1172.36524,880.887696 1170.12391,879.199416 Z M1206.47775,728.735962 C1205.48729,728.758301 1202.76334,730.030356 1198.30583,732.552165 C1193.84832,735.073974 1189.30152,737.295106 1184.66527,739.215627 C1180.02903,741.136148 1176.59678,741.516211 1174.36842,740.35583 C1172.58524,739.405524 1171.68001,738.325376 1171.65269,737.115353 C1171.62041,735.685326 1172.99954,733.370552 1175.79013,730.17096 C1178.58071,726.971368 1180.85142,725.131739 1182.60232,724.652018 C1185.99159,723.585056 1194.49855,719.981446 1208.12346,713.841082 C1221.74836,707.700717 1228.98478,703.90565 1229.83291,702.455766 C1230.36331,701.56334 1229.81077,700.255124 1228.17528,698.531081 C1226.5398,696.807038 1224.78043,695.691125 1222.89713,695.183309 C1219.90585,694.370308 1207.45108,688.928271 1185.53242,678.857036 C1178.96982,675.923419 1174.83898,673.402743 1173.13977,671.294934 C1171.44057,669.187124 1171.49413,666.682133 1173.30045,663.779884 C1174.25616,662.217517 1175.14297,661.262037 1175.96091,660.913415 C1176.77885,660.564794 1178.29329,660.585666 1180.50426,660.976034 C1183.81824,661.451583 1188.20248,663.00355 1193.65712,665.631981 L1237.06517,686.279286 C1240.40647,687.964858 1242.68237,688.79398 1243.89294,688.766677 C1245.10351,688.739375 1247.39059,690.063499 1250.75423,692.739089 C1253.44514,694.879561 1255.11184,696.767959 1255.75438,698.404339 C1256.39691,700.040718 1255.77882,701.925617 1253.90009,704.059092 C1252.02136,706.192567 1248.9621,708.462692 1244.72221,710.869535 C1240.48232,713.276379 1234.33152,716.386623 1226.2696,720.200362 C1214.06544,725.868453 1207.46822,728.713624 1206.47775,728.735962 Z M1157.77679,583.756627 C1153.72894,583.165857 1151.03361,582.200227 1149.69072,580.859709 C1148.34784,579.51919 1145.35842,570.699533 1140.72239,554.400473 C1137.51613,542.843315 1135.69999,535.78225 1135.27393,533.217064 C1134.84786,530.651878 1135.13,528.889515 1136.12036,527.92992 C1137.50561,526.746689 1139.1763,526.283616 1141.13248,526.540687 C1143.08866,526.797759 1144.86185,527.733532 1146.4521,529.348034 C1147.24722,530.155286 1148.06261,531.756169 1148.89827,534.150733 C1149.73394,536.545296 1150.89762,540.019254 1152.38934,544.572711 C1153.88105,549.126167 1155.61588,553.526531 1157.59386,557.773935 L1161.93799,567.873827 L1177.69038,563.507667 L1173.9052,548.628494 C1172.29361,541.995894 1171.40427,537.760816 1171.23715,535.923132 C1171.07003,534.085448 1171.48164,532.68683 1172.472,531.727235 C1173.85725,530.544004 1175.13618,529.904067 1176.30882,529.807405 C1177.48146,529.710743 1178.67881,530.320856 1179.90091,531.637762 C1181.12301,532.954668 1182.35512,534.925314 1183.59726,537.549758 C1184.83941,540.174203 1186.23729,543.668879 1187.79097,548.03389 L1192.01074,559.538431 L1212.85481,553.760988 L1208.30217,535.497816 C1205.16098,523.351709 1204.00046,516.080378 1204.82057,513.683602 C1205.45795,511.45166 1206.29966,510.162191 1207.34572,509.815158 C1208.39178,509.468125 1210.11952,509.93123 1212.52897,511.204489 C1214.39645,512.171239 1215.79368,513.810663 1216.72072,516.12281 C1217.64776,518.434957 1219.74379,525.475533 1223.00889,537.244749 C1225.86217,547.529559 1227.59742,554.29905 1228.21468,557.553424 C1228.83195,560.807798 1228.86335,563.082703 1228.30888,564.378208 C1227.54226,565.732516 1225.44548,567.027319 1222.01847,568.262654 C1218.59146,569.497989 1209.71787,572.100245 1195.39745,576.069501 C1181.39525,579.950551 1172.31554,582.324491 1168.15803,583.191392 C1164.00051,584.058292 1160.54014,584.246702 1157.77679,583.756627 Z M1096.99902,457.48909 C1094.68011,457.366568 1093.13908,456.542156 1092.37586,455.015829 C1091.61265,453.489501 1091.52651,451.19069 1092.11743,448.119327 L1092.91342,442.99827 L1113.16128,433.92989 C1126.70439,427.73515 1136.04622,422.623011 1141.18705,418.593321 C1146.32788,414.563631 1149.03363,412.162928 1149.30437,411.39114 C1149.57511,410.619352 1146.87897,404.884233 1141.21586,394.185612 L1132.94502,378.204428 L1136.9214,375.492154 C1139.66917,373.631623 1141.84923,373.266281 1143.46167,374.396117 C1145.67877,375.949642 1150.13849,382.9205 1156.84096,395.308901 C1161.55364,404.019495 1164.45653,409.674133 1165.54972,412.272983 C1166.6429,414.871832 1166.96322,416.793893 1166.51067,418.039221 C1165.41981,420.880464 1154.45115,428.247915 1133.60437,440.141795 C1112.75758,452.035675 1100.55592,457.818049 1096.99902,457.48909 Z M1001.15465,324.865599 C998.193067,323.780929 995.383195,321.47891 992.724953,317.959474 C990.066711,314.440039 988.229238,310.651758 987.212481,306.594517 C985.836867,301.105309 985.959147,294.404167 987.579324,286.490889 C989.199501,278.577612 991.751683,272.257248 995.235947,267.529607 C1000.39067,260.354638 1007.62678,255.309084 1016.9445,252.392793 C1026.26223,249.476502 1034.79015,249.484512 1042.52854,252.416822 C1045.3349,253.48963 1047.61895,254.756593 1049.38075,256.217751 C1051.14256,257.678909 1053.70785,260.371887 1057.0767,264.296767 C1063.1693,271.394953 1067.01692,277.989843 1068.61967,284.081636 C1070.22242,290.173428 1069.969,297.313215 1067.85942,305.501209 C1067.07283,308.640328 1066.13365,310.967941 1065.04185,312.484117 C1063.95005,314.000293 1061.64972,316.262893 1058.14079,319.271986 C1053.87994,322.925885 1049.74103,325.496639 1045.72395,326.984325 C1041.70687,328.472011 1035.80026,329.659205 1028.00393,330.545941 C1024.30276,330.96535 1019.94173,330.827129 1014.92069,330.131275 C1009.89966,329.435422 1006.92328,328.544706 1005.99147,327.459101 C1005.11947,326.612157 1003.50721,325.747665 1001.15465,324.865599 Z M1002.05417,294.73685 C1001.49495,298.985767 1001.34707,301.939564 1001.61051,303.598329 C1001.87395,305.257095 1002.65076,306.838026 1003.94096,308.341172 C1008.18181,313.112995 1014.31399,315.6104 1022.33768,315.833461 C1027.71071,316.010005 1031.72831,315.790356 1034.39062,315.174507 C1037.05292,314.558658 1040.42521,313.080242 1044.50756,310.739214 C1047.68278,309.031128 1049.81637,307.672624 1050.90841,306.663662 C1052.00044,305.654699 1052.88633,304.278868 1053.5661,302.536127 C1054.73481,299.504243 1055.25888,296.735253 1055.13833,294.229077 C1055.01777,291.722901 1054.16265,288.61442 1052.57294,284.903542 C1049.36978,277.792091 1045.04807,272.292387 1039.60767,268.404265 C1034.16726,264.516142 1029.04757,263.325072 1024.24844,264.83102 C1018.16004,266.862676 1013.15899,270.49896 1009.24513,275.739979 C1005.33126,280.980998 1002.9343,287.313225 1002.05417,294.73685 Z M895.003274,238.77446 C887.38311,235.830119 881.128296,231.761089 876.238644,226.56725 C871.348993,221.37341 868.624234,216.021902 868.064285,210.512565 C867.344883,204.083296 868.203795,198.328334 870.641046,193.247506 C873.078296,188.166679 876.639705,184.786307 881.32538,183.106291 C885.767679,181.389459 890.212358,181.054044 894.659552,182.100036 C899.106746,183.146028 904.831458,185.865821 911.833859,190.259498 L923.917241,197.760819 L932.747247,185.80876 C938.72393,177.90406 942.465886,173.742294 943.973228,173.323339 C945.48057,172.904383 947.443861,173.748807 949.86316,175.856634 L953.722178,178.978515 L933.352881,208.444836 C919.799857,228.242471 912.227827,238.792166 910.636562,240.094237 C909.262098,241.279802 907.393801,241.781003 905.031615,241.597855 C902.669429,241.414707 899.326682,240.473585 895.003274,238.77446 Z M885.120751,215.257601 C887.165663,218.85158 888.912041,221.293044 890.359937,222.582067 C891.807833,223.871089 894.288522,225.079938 897.802078,226.208649 C900.7389,227.200349 903.156299,227.018603 905.054346,225.663405 C906.825578,224.488092 909.429818,221.51036 912.867146,216.730118 C916.304473,211.949876 917.879978,209.189773 917.593709,208.449727 C916.894355,207.14952 912.866601,204.649104 905.510327,200.948405 C898.154053,197.247707 893.529059,195.403443 891.635208,195.415559 C886.990562,195.50923 884.028491,197.561918 882.748905,201.573686 C881.469319,205.585455 882.259927,210.146714 885.120751,215.257601 Z M787.453196,171.376774 C784.494662,174.200649 782.07361,175.728548 780.189968,175.960516 C778.306325,176.192484 769.513453,173.115062 753.811086,166.728157 C742.726909,162.135614 736.042758,159.217264 733.758431,157.97302 C731.474105,156.728776 730.25873,155.421234 730.112271,154.050356 C730.032732,152.23077 730.696625,150.62991 732.103971,149.247727 C733.511317,147.865544 735.340933,147.045449 737.592873,146.787416 C738.718844,146.6584 740.482848,147.002188 742.88494,147.818792 C745.287032,148.635396 748.74193,149.858438 753.249737,151.487955 C757.757544,153.117472 762.294397,154.46126 766.860433,155.51936 L777.49672,158.318369 L783.75635,143.224394 L769.697165,137.041881 C763.476709,134.226322 759.590828,132.318505 758.039406,131.318373 C756.487984,130.318241 755.639056,129.132754 755.492596,127.761876 C755.413057,125.94229 755.696274,124.541024 756.342256,123.558034 C756.988238,122.575045 758.206533,122.007863 759.997178,121.856472 C761.787823,121.705081 764.099921,121.948419 766.93354,122.586492 C769.767158,123.224566 773.382626,124.275924 777.780051,125.740597 L789.446923,129.502598 L797.729868,109.529762 L780.530702,101.867589 C769.022382,96.8610913 762.576258,93.2969461 761.192137,91.1750462 C759.825401,89.2985667 759.327381,87.8415983 759.698063,86.8040972 C760.068744,85.766596 761.497799,84.6912048 763.985271,83.5778911 C765.897373,82.7026175 768.050092,82.6119288 770.443492,83.3058223 C772.836891,83.9997158 779.677267,86.6850275 790.964823,91.3618378 C800.828724,95.4487802 807.233233,98.251265 810.178543,99.7693764 C813.123852,101.287488 814.936318,102.663764 815.615994,103.898246 C816.211365,105.336014 815.940649,107.784645 814.803837,111.244212 C813.667026,114.70378 810.25337,123.294366 804.562769,137.016231 C798.998626,150.433165 795.27806,159.045472 793.400961,162.853411 C791.523861,166.66135 789.541293,169.502442 787.453196,171.376774 Z M635.476113,142.123091 C628.56474,141.401125 621.717717,140.299463 614.934839,138.818071 C608.15196,137.336679 603.748624,135.978565 601.724698,134.743689 C599.393512,133.34528 597.128206,130.89791 594.928712,127.401505 C593.522505,125.155126 592.694517,123.285501 592.444725,121.792571 C592.194933,120.299642 592.317846,118.088603 592.813467,115.159387 C593.492652,111.145277 594.948344,107.820448 597.180587,105.1848 C599.41283,102.549152 603.265518,99.5737287 608.738769,96.2584406 C611.85608,94.3303721 613.61004,93.0367014 614.000704,92.3773899 C614.391367,91.7180783 614.263483,90.3294721 613.617048,88.2115296 L610.788307,79.1965583 C609.764385,76.0104706 607.844646,72.8403807 605.029033,69.6861935 C602.701045,66.9492147 600.126484,65.1749067 597.305274,64.3632164 C594.484063,63.5515261 590.792599,63.4296597 586.230769,63.9976135 C583.71442,64.3533839 582.058427,64.4082185 581.262742,64.1621191 C580.467057,63.9160197 579.73603,63.1228978 579.069639,61.7827296 C576.404076,56.422057 578.720486,52.6289786 586.018942,50.4033807 C593.100319,48.1410869 599.85836,48.6139577 606.293268,51.8220074 C612.728175,55.0300571 618.071617,60.564362 622.323753,68.425088 C625.296577,73.9492941 628.189153,78.9577004 631.001567,83.4504573 C632.967226,86.3493711 634.469382,88.1934733 635.50808,88.9828194 C636.546778,89.7721654 638.224116,90.2509957 640.540144,90.4193247 L645.642244,90.9470355 L648.120339,76.30103 C649.77241,66.5369775 651.074683,61.1496804 652.027196,60.1389769 C652.97971,59.1282734 655.192555,58.9164928 658.665798,59.5036286 C661.813425,60.0357205 663.683693,61.1888122 664.276658,62.9629382 C665.247111,65.8052095 664.192819,75.3353906 661.11375,91.5537674 C660.654842,94.2660042 659.976467,97.9454171 659.078605,102.592116 C655.43049,122.173667 652.878613,133.62671 651.4229,136.951589 C649.821934,140.475099 647.491965,142.368841 644.432921,142.632871 C643.075386,142.738164 640.089813,142.568239 635.476113,142.123091 Z M608.729069,123.038874 C609.991624,124.814598 611.323395,126.016148 612.724422,126.643559 C614.12545,127.27097 617.376577,128.015843 622.477903,128.878198 C627.687768,129.758902 631.05741,130.133241 632.586932,130.001226 C634.116454,129.86921 635.896349,129.082083 637.926673,127.639819 C642.531612,124.177747 644.163286,119.153009 642.821743,112.565453 C642.303802,109.688084 641.014532,107.74048 638.953893,106.722584 C636.893254,105.704687 633.229723,105.25277 627.96319,105.36682 C622.606475,105.354032 618.592388,105.819275 615.92081,106.762563 C613.249231,107.705852 611.014832,109.36467 609.217544,111.739067 C607.420256,114.113465 606.492892,115.965333 606.435424,117.294729 C606.377956,118.624125 607.142497,120.53882 608.729069,123.038874 Z" id="DEVELOPER-something" fill="#494A36" transform="translate(917.000000, 548.000000) rotate(121.000000) translate(-917.000000, -548.000000) "></path>
        </g>
    </g>
</svg>